<?xml version="1.0" encoding="UTF-8" standalone="no"?>
<svg
   xmlns:dc="http://purl.org/dc/elements/1.1/"
   xmlns:cc="http://creativecommons.org/ns#"
   xmlns:rdf="http://www.w3.org/1999/02/22-rdf-syntax-ns#"
   xmlns:svg="http://www.w3.org/2000/svg"
   xmlns="http://www.w3.org/2000/svg"
   viewBox="0 0 340.41333 298.09332"
   height="298.09332"
   width="340.41333"
   xml:space="preserve"
   id="svg3978"
   version="1.1"><metadata
     id="metadata3984"><rdf:RDF><cc:Work
         rdf:about=""><dc:format>image/svg+xml</dc:format><dc:type
           rdf:resource="http://purl.org/dc/dcmitype/StillImage" /><dc:title></dc:title></cc:Work></rdf:RDF></metadata><defs
     id="defs3982" /><g
     transform="matrix(1.3333333,0,0,-1.3333333,0,298.09333)"
     id="g3986"><g
       transform="scale(0.1)"
       id="g3988"><path
         id="path3990"
         style="fill:#f14824;fill-opacity:1;fill-rule:nonzero;stroke:none"
         d="M 1353.96,2189.88 2539.79,135 c 7.92,-13.691 12.24,-28.801 12.24,-44.6406 0,-48.961 -40.31,-89.28127 -89.28,-89.28127 H 90.3516 c -48.961,0 -89.27738,40.32027 -89.27738,89.28127 0,15.8396 4.32031,30.9496 12.24218,45.3516 L 1199.16,2189.88 c 35.27,59.76 120.95,59.76 155.51,-0.72 l -0.71,0.72" /><path
         id="path3992"
         style="fill:none;stroke:#f14824;stroke-width:2.1500001;stroke-linecap:butt;stroke-linejoin:miter;stroke-miterlimit:4;stroke-dasharray:none;stroke-opacity:1"
         d="M 1353.96,2189.88 2539.79,135 c 7.92,-13.691 12.24,-28.801 12.24,-44.6406 0,-48.961 -40.31,-89.28127 -89.28,-89.28127 H 90.3516 c -48.961,0 -89.27738,40.32027 -89.27738,89.28127 0,15.8396 4.32031,30.9496 12.24218,45.3516 L 1199.16,2189.88 c 35.27,59.76 120.95,59.76 155.51,-0.72 z" /><path
         id="path3994"
         style="fill:#ffffff;fill-opacity:1;fill-rule:nonzero;stroke:none"
         d="M 399.965,269.641 1276.91,1787.39 2153.15,269.641 Z" /><path
         id="path3996"
         style="fill:none;stroke:#ffffff;stroke-width:2.1500001;stroke-linecap:butt;stroke-linejoin:miter;stroke-miterlimit:4;stroke-dasharray:none;stroke-opacity:1"
         d="M 399.965,269.641 1276.91,1787.39 2153.15,269.641 Z" /><path
         id="path3998"
         style="fill:#231f20;fill-opacity:1;fill-rule:nonzero;stroke:none"
         d="m 1030.67,834.121 c -2.88,-2.172 -6.48,-4.32 -8.63,-6.48 -5.77,-3.61 -11.53,-7.2 -17.28,-10.09 -4.33,-2.879 -9.365,-5.75 -15.127,-7.91 -2.879,-2.161 -5.039,-3.602 -7.918,-4.332 -5.762,-2.149 -10.801,-5.039 -15.84,-8.629 -2.16,-0.731 -2.883,-1.442 -5.762,-1.442 -3.597,-2.16 -7.922,-4.328 -12.238,-6.476 -4.32,-1.442 -10.082,-4.332 -15.121,-5.774 -2.883,-1.437 -4.32,-2.879 -6.481,-3.59 -1.437,-1.437 -3.597,-1.437 -5.039,-2.16 -2.164,-0.726 -3.601,-1.437 -5.043,-1.437 -1.433,-1.442 -2.16,-1.442 -4.316,-1.442 0,3.602 0,6.481 -0.723,9.36 -1.441,5.043 -3.597,11.519 -5.039,18 -1.441,1.441 -2.16,3.59 -2.883,3.59 -0.714,0 -2.156,0.73 -2.878,0.73 -1.434,0 -2.875,-0.73 -4.317,-0.73 -2.164,0 -3.601,-1.438 -5.039,-1.438 -2.883,-0.711 -5.762,-1.43 -8.641,-3.601 -2.16,-1.442 -5.042,-3.59 -7.199,-5.758 -2.883,-5.75 -5.761,-10.793 -8.64,-17.274 -0.719,0.723 -2.883,2.871 -3.602,4.313 l -0.723,1.437 c -2.156,1.442 -3.597,2.172 -5.753,2.172 0,0 -0.723,0 -1.442,0 0,0 0,0 -0.723,0 l -3.597,-0.73 c -6.481,4.332 -11.52,10.082 -18,15.129 -4.321,4.312 -7.918,10.082 -10.801,15.113 -0.723,4.328 -0.723,10.09 0.719,15.129 3.597,10.07 9.359,18.719 16.562,26.64 1.442,-1.441 3.598,-3.613 5.754,-4.32 1.442,0 1.442,0 2.164,0 2.883,0 4.317,0.707 7.199,2.149 1.442,0.73 3.602,2.171 5.04,5.05 0,2.16 0.722,3.602 0.722,5.75 0,2.168 -0.722,5.039 -1.441,7.211 -2.879,5.75 -6.481,11.52 -11.52,15.11 -2.879,1.437 -6.476,3.609 -10.082,3.609 v 0 c -2.883,0 -5.039,-2.172 -7.922,-5.051 -0.715,-0.711 -1.437,-2.148 -1.437,-3.597 -1.442,-1.442 -1.442,-2.153 -1.442,-4.321 0,-2.871 1.442,-5.043 2.879,-7.922 -3.597,-1.437 -7.195,-3.597 -10.8,-5.039 -5.04,-2.879 -9.352,-5.75 -14.399,-9.359 -3.598,-3.59 -7.195,-7.191 -8.637,-10.801 -7.203,-9.351 -10.8,-20.148 -10.8,-31.68 v 0 c 0,-1.429 0,-2.152 0,-2.871 0,-10.8 3.597,-20.89 10.078,-29.519 7.203,-10.801 16.562,-20.16 27.363,-27.36 l -10.801,-23.761 c -18.719,-2.168 -31.679,-17.278 -31.679,-36 0,-2.168 0.718,-3.61 0.718,-5.758 -21.597,-24.481 -39.601,-51.852 -53.277,-81.371 l -9.359,-8.629 c -2.883,-3.602 -5.043,-8.641 -6.481,-13.691 0,-1.442 0,-2.872 0,-5.04 0,-6.468 1.438,-12.242 3.598,-17.992 8.636,-5.769 16.558,-10.797 25.203,-15.129 0.715,0 2.156,0 3.598,0 3.597,0 7.918,0.731 11.515,2.172 0.727,-2.883 2.164,-5.761 3.606,-7.922 0.718,-2.168 3.597,-2.879 5.757,-2.879 0,0 0,0 0.723,0 4.317,0.711 7.918,1.442 12.238,2.879 0.719,0 0.719,0 2.161,0 4.32,0 7.918,0 11.519,0.719 2.16,1.442 4.32,3.594 5.039,5.762 2.16,3.601 3.602,7.191 4.32,10.801 1.442,2.16 2.161,3.597 3.598,4.308 2.164,0 2.883,0 5.047,-0.711 0.715,0 2.156,0 2.875,0 1.437,0 2.879,0 3.602,0 2.875,-0.726 5.757,-1.437 7.199,-1.437 2.879,-0.731 6.476,-0.731 9.359,-0.731 0,0 0,0 0.723,0 0.719,0 1.433,0 3.597,0.731 1.442,0.711 3.598,0.711 5.04,2.148 8.644,2.891 16.562,6.481 24.484,10.09 5.039,2.16 9.359,3.602 14.398,6.481 0.719,0.71 2.16,0.71 3.598,2.878 4.32,1.43 7.922,4.313 12.242,6.481 3.598,3.601 7.195,6.48 10.801,10.793 1.434,1.437 2.875,2.879 4.316,3.609 2.879,0 5.039,0 7.203,0 1.442,-0.73 4.321,-1.441 7.196,-1.441 7.203,-2.168 14.406,-2.168 22.324,-2.168 0,0 0.719,0 1.438,0 10.082,-0.711 18.718,-1.434 26.64,-1.434 -2.879,0 -0.719,0 2.879,-0.726 2.164,0 4.32,-1.442 7.203,-2.153 0.719,0 2.883,-0.73 3.598,-1.437 2.883,-2.172 4.32,-2.883 6.48,-5.043 1.442,-1.438 3.598,-3.609 5.037,-5.758 2.88,-2.16 4.32,-3.601 6.48,-5.769 3.61,-2.153 7.2,-4.313 10.8,-5.043 1.44,-0.707 3.61,-0.707 4.32,-2.149 0.72,0 1.44,-0.73 1.44,-0.73 2.89,-1.442 3.6,-2.871 6.48,-4.309 2.16,-3.609 4.33,-7.922 7.21,-11.531 1.43,-2.871 4.31,-5.75 7.92,-7.192 4.31,-2.168 9.36,-2.878 13.67,-4.32 3.61,-2.156 5.76,-3.598 8.65,-6.476 3.59,-3.602 7.19,-6.481 10.8,-10.09 2.87,-1.434 5.04,-2.16 7.92,-2.16 0.71,0 0.71,0 0.71,0 7.21,0 12.96,1.449 18.72,3.597 1.44,-3.597 2.16,-7.918 2.89,-11.519 -0.73,-5.032 -1.45,-10.071 -1.45,-14.391 -1.44,-3.598 -1.44,-5.769 -1.44,-7.918 0,-2.891 0,-5.043 1.44,-6.48 0,-3.602 0.72,-6.481 0.72,-10.082 0.73,-2.168 2.88,-7.2 4.32,-9.36 2.88,-3.609 4.33,-8.648 5.77,-12.969 0,-0.71 0,-1.441 0,-3.589 0,-4.332 0,-7.922 -1.44,-12.25 0,-2.879 0,-5.039 -0.73,-7.922 -0.72,-6.481 -2.88,-11.508 -6.48,-15.84 -0.71,-3.59 -2.16,-8.629 -3.6,-12.231 -1.44,-5.757 -5.76,-10.089 -11.51,-12.968 -2.17,-2.149 -5.05,-3.59 -7.92,-5.75 -2.88,-0.731 -4.33,-4.321 -4.33,-7.211 -7.92,-7.918 -15.84,-15.828 -23.76,-23.75 -1.44,-0.719 -2.16,-1.449 -2.16,-2.891 0,-0.707 0.72,-1.437 2.16,-1.437 h 83.53 c 4.31,2.879 7.92,7.211 10.07,12.25 v 0.718 c 0,2.161 0,2.871 -1.44,5.039 -0.71,0 -0.71,1.442 -0.71,2.153 0,0 0.71,1.449 0.71,2.168 1.44,0 1.44,0 2.17,0 0.71,-0.719 1.43,-2.168 2.87,-2.168 1.44,-1.442 3.61,-3.59 5.05,-4.321 0,-0.71 0,-0.71 0.71,-0.71 0.72,0 2.16,0.71 2.16,0.71 1.44,0.731 2.17,2.879 2.17,4.321 0,0 0,1.449 0,2.168 0,2.871 0,5.043 -1.45,7.922 0,2.871 0.72,5.039 1.45,7.918 0,7.203 -0.73,15.121 -1.45,23.043 -0.72,9.359 -2.16,17.988 -2.88,27.347 0,2.879 0,6.492 0.72,9.36 -0.72,5.769 0,10.8 2.16,15.839 5.04,9.364 7.92,18.723 7.92,29.532 v 0 c 0,1.441 0,2.879 -0.72,3.59 0.72,7.921 0.72,14.402 0.72,21.609 0,10.07 2.16,20.871 3.6,30.23 0.73,2.172 0.73,4.332 2.16,6.481 4.32,1.441 8.64,3.609 12.97,4.332 0.71,0.719 2.15,0.719 2.88,2.148 4.31,0.731 8.63,1.442 12.96,2.168 6.47,0.711 13.67,2.153 20.87,2.153 1.44,-1.442 3.6,-1.442 5.04,-2.153 2.88,-0.726 5.76,-1.437 8.65,-2.168 1.44,-1.429 4.31,-2.148 5.75,-2.871 28.8,-13.679 56.16,-24.48 85.69,-32.398 15.84,-3.602 31.68,-5.77 45.35,-8.641 1.44,0 2.17,0 2.88,0 2.16,0 3.6,0 5.77,0.719 2.15,0.711 5.03,2.152 8.63,2.152 3.6,0.731 7.21,1.438 10.8,2.168 23.76,6.481 48.25,17.281 69.12,31.68 5.78,-10.801 8.64,-17.277 10.81,-22.32 5.03,-3.61 10.8,-9.36 17.28,-14.399 -0.73,-7.922 -2.17,-17.281 -2.89,-25.93 0.72,-6.468 3.6,-11.511 7.92,-15.839 2.17,-2.153 3.6,-2.879 5.76,-2.879 2.16,0 4.32,0.726 5.76,2.879 5.05,2.168 7.21,6.48 8.65,11.519 0.71,3.61 1.43,5.77 1.43,8.649 0,0.711 0,0.711 0,2.152 v 12.25 c 0,0.711 0,1.437 0.72,2.879 3.6,0.711 7.2,2.148 10.09,5.039 0.72,-1.449 2.87,-2.891 3.6,-4.328 0.71,-2.153 2.87,-3.59 4.31,-4.313 2.17,-1.437 3.61,-2.879 4.32,-3.609 v -3.59 c -0.71,-4.328 -1.44,-9.359 -1.44,-14.398 0,-0.731 0,-2.161 0,-2.879 0,-4.332 0.73,-9.371 3.62,-12.961 1.42,-2.879 3.59,-5.039 5.74,-5.77 1.44,0 2.16,-0.711 2.88,-0.711 2.89,0 5.78,1.442 7.92,2.879 2.89,2.16 5.77,5.039 6.48,8.641 0.73,2.879 0.73,6.469 0.73,10.07 0,0.731 0,2.168 0,3.61 0,8.628 0,12.23 0,16.55 5.76,-4.32 10.07,-3.59 14.4,-2.879 8.63,2.879 15.84,8.649 20.87,16.571 0.73,-2.883 2.17,-4.332 4.33,-6.481 1.43,-2.883 3.59,-6.48 4.31,-8.652 2.88,-5.75 4.32,-10.801 7.21,-15.109 2.88,-5.758 5.03,-10.09 7.19,-15.129 0.72,-2.879 1.44,-5.75 1.44,-8.629 -0.72,-12.973 -2.16,-26.641 -5.75,-38.883 0,-4.328 -2.16,-7.918 -2.88,-12.25 -4.33,-5.027 -7.93,-10.801 -10.81,-17.277 -2.87,-2.872 -6.48,-5.043 -8.63,-7.922 -2.88,0 -5.05,-0.711 -7.21,-2.149 -2.14,-1.441 -3.58,-3.601 -5.04,-5.769 -0.72,-1.442 -0.72,-2.153 -0.72,-2.871 -8.64,-7.922 -18.71,-15.852 -26.62,-25.922 0,-0.719 -0.73,-1.449 -0.73,-2.891 v 0 c 0,-1.437 0.73,-2.148 1.43,-2.148 h 87.12 c 4.32,3.59 7.92,8.629 10.09,13.679 v 2.871 l -0.73,2.168 c -0.71,1.442 -0.71,2.153 -0.71,3.602 l 0.71,0.719 c 0.73,-0.719 2.88,-2.168 3.6,-2.879 0.73,-0.731 2.17,-1.442 3.62,-2.879 0,0 0.71,0 2.14,0 0,0 0.72,0 1.44,0 0,0 0.72,1.437 1.44,2.148 v 3.61 c -0.72,2.871 -0.72,5.043 -1.44,8.64 0.72,2.879 0.72,5.762 1.44,7.922 0,2.879 1.45,5.758 1.45,9.36 0,0.711 0,3.589 -1.45,5.039 0,0 0,0 0,0.718 0,1.43 0,2.161 0,2.161 0,0.711 0,1.441 0,2.882 1.45,10.071 1.45,22.321 2.89,31.68 0.71,10.801 2.15,21.598 4.31,31.68 0,1.437 0,3.59 0,5.039 1.44,2.879 2.18,5.031 2.89,8.64 0,5.04 0.73,10.079 0.73,14.399 0,0.723 0,2.16 0,3.601 0,2.879 0,4.321 0,7.192 2.14,3.609 2.86,7.207 5.02,10.797 0,-2.879 0,-5.039 0.72,-7.918 0,-0.711 0,-0.711 0,-2.153 0.73,-0.726 0.73,-0.726 0.73,-2.16 0,-2.168 -0.73,-5.047 -1.45,-7.199 v 0 c 0,0 0.72,-1.437 1.45,-1.437 v 0 h 0.71 c 2.17,1.437 3.6,2.148 4.32,2.878 0,-2.878 0,-5.039 0,-7.921 0,-1.438 0,-3.598 0,-5.039 2.17,-2.879 2.89,-5.758 3.6,-8.649 v -1.441 h 1.44 c 0.73,-3.59 2.16,-6.481 5.04,-8.629 2.17,-1.442 2.88,-2.16 4.32,-3.602 v 0 0 0 c 1.44,0.723 2.16,2.16 2.16,3.602 1.45,0.711 2.88,1.437 4.32,2.148 v 0 c 0,1.442 0,1.442 0,1.442 v 0.73 c 0,1.438 0.73,4.309 1.44,5.75 0,1.438 1.44,2.168 1.44,2.891 0.72,-2.891 1.44,-5.043 3.6,-7.203 v 0 c 0.73,0 0.73,0 0.73,0 v 2.16 0.711 c 0,1.441 0,2.879 0.71,4.332 0.73,2.148 2.16,3.59 2.89,5.758 v 12.23 c 0,0 0,0 0,0.73 1.44,-0.73 1.44,-2.878 1.44,-3.601 l 2.88,-1.438 c 0.71,0 2.88,-0.73 3.59,-0.73 v -1.441 1.441 0 c 0,0.73 -0.71,2.168 -0.71,2.891 0,7.199 0,13.679 0,20.867 v 0.73 c 0.71,-0.73 2.15,-0.73 2.15,-2.168 l 1.44,0.731 c 0,3.59 0,5.75 0.72,9.359 0,2.149 0,5.039 0,7.188 0,2.171 0,2.882 0,5.05 0,5.039 -2.16,9.36 -3.6,13.672 -2.88,5.77 -3.59,10.809 -5.04,16.571 0,5.75 0,12.226 0,18.718 l 0.72,10.789 c 0.73,9.36 1.44,17.282 2.88,25.2 2.88,27.371 5.77,51.839 8.66,76.332 0.71,9.359 1.44,22.32 1.44,35.281 0,1.437 0,2.148 0,3.59 0,2.879 -0.73,5.769 -0.73,9.359 0,0.731 0,1.438 0,2.168 0,2.871 0,6.481 -0.71,9.359 -2.18,3.602 -2.18,7.204 -2.18,10.793 0,2.168 -0.71,5.77 -0.71,9.36 -0.73,2.879 -0.73,6.48 -0.73,9.359 -0.72,3.602 -2.16,9.36 -3.6,15.84 -1.44,6.48 -4.32,12.25 -7.91,19.449 -2.89,2.871 -4.33,6.481 -6.49,10.082 -1.44,1.438 -4.32,3.59 -5.76,6.481 -2.15,2.148 -5.04,4.316 -7.19,7.199 -2.17,2.16 -5.05,5.039 -7.21,7.918 -2.87,1.441 -5.04,3.601 -7.19,4.312 l -7.21,3.61 c -2.87,0.711 -6.48,1.437 -9.36,2.871 -1.44,0 -2.15,0 -4.32,0 -2.16,0.726 -5.03,1.437 -7.19,2.168 -1.45,0 -3.6,0 -5.04,1.441 -2.17,0.707 -3.61,0.707 -4.33,1.438 -2.14,0.711 -3.58,1.441 -4.32,3.601 -2.88,0.711 -5.76,0.711 -8.63,1.442 -1.44,1.437 -4.32,2.148 -5.76,2.879 -3.6,0 -6.49,0 -10.08,0 -1.44,0 -4.32,0 -6.49,0 -3.6,-0.731 -5.76,-1.442 -9.35,-1.442 -2.88,0 -6.49,0 -9.36,0 -4.33,0.711 -7.91,1.442 -12.25,2.153 -2.88,1.449 -5.03,1.449 -8.64,2.16 -3.59,0.726 -7.2,0.726 -11.52,0.726 -2.15,0 -2.88,0 -5.04,0 -2.14,-0.726 -5.03,-0.726 -7.92,-1.437 -3.59,-1.449 -7.2,-2.891 -9.35,-5.039 -7.21,-4.332 -14.4,-7.922 -22.33,-9.364 -5.03,-0.726 -10.08,-0.726 -14.39,-0.726 -7.2,0 -16.57,0 -25.93,0 -4.31,0 -9.36,0 -13.67,0 -15.13,-1.434 -30.25,0 -44.65,0.726 -12.22,0 -23.76,1.442 -35.28,5.032 -6.48,0.73 -12.96,2.16 -20.16,2.16 -0.72,0 -1.44,0 -2.16,0 -3.59,0 -6.48,0 -9.36,0 -3.59,0 -5.76,0 -9.36,0 -2.15,0 -5.04,0 -6.48,0 -3.59,-1.43 -5.03,-1.43 -7.92,-1.43 -3.59,0 -7.92,-0.73 -11.51,0 h -12.97 c -0.72,0 -1.43,0 -2.16,0 -2.15,0 -3.59,0 -5.76,0 h -7.92 c -1.44,0 -3.6,0 -5.04,0 -2.16,0 -5.04,0 -6.48,0 -3.6,0 -7.19,0 -10.8,0 -5.04,0 -10.08,0 -15.11,-0.73 -1.44,0 -3.61,0.73 -5.05,0.73 -2.87,0 -5.76,-0.73 -8.64,-0.73 -1.44,0 -4.32,0 -5.04,0 -1.44,0 -4.32,0 -5.03,0 -10.09,0.73 -18.72,0.73 -28.81,2.89 -5.75,0.711 -10.79,2.879 -15.84,3.59 -9.36,2.891 -18,4.328 -27.36,4.328 -5.04,0.711 -10.07,0.711 -16.55,0.711 -3.61,0 -7.21,0 -10.8,-0.711 -0.73,0 -0.73,0 -0.73,0 -7.19,0 -13.67,0 -20.16,-1.437 -5.04,-2.891 -10.08,-5.039 -15.84,-6.481 -2.87,-2.16 -5.04,-2.89 -7.92,-3.601 -3.6,-2.879 -7.92,-4.321 -13.67,-5.047 -4.33,-2.871 -9.37,-5.043 -13.69,-6.481 -10.8,-5.75 -17.99,-10.793 -25.2,-17.281 -2.15,-1.43 -4.32,-3.601 -7.19,-5.039 -2.88,-2.883 -4.33,-4.312 -7.21,-5.75" /><path
         id="path4000"
         style="fill:none;stroke:#231f20;stroke-width:2.1500001;stroke-linecap:butt;stroke-linejoin:miter;stroke-miterlimit:4;stroke-dasharray:none;stroke-opacity:1"
         d="m 1030.67,834.121 c -2.88,-2.172 -6.48,-4.32 -8.63,-6.48 -5.77,-3.61 -11.53,-7.2 -17.28,-10.09 -4.33,-2.879 -9.365,-5.75 -15.127,-7.91 -2.879,-2.161 -5.039,-3.602 -7.918,-4.332 -5.762,-2.149 -10.801,-5.039 -15.84,-8.629 -2.16,-0.731 -2.883,-1.442 -5.762,-1.442 -3.597,-2.16 -7.922,-4.328 -12.238,-6.476 -4.32,-1.442 -10.082,-4.332 -15.121,-5.774 -2.883,-1.437 -4.32,-2.879 -6.481,-3.59 -1.437,-1.437 -3.597,-1.437 -5.039,-2.16 -2.164,-0.726 -3.601,-1.437 -5.043,-1.437 -1.433,-1.442 -2.16,-1.442 -4.316,-1.442 0,3.602 0,6.481 -0.723,9.36 -1.441,5.043 -3.597,11.519 -5.039,18 -1.441,1.441 -2.16,3.59 -2.883,3.59 -0.714,0 -2.156,0.73 -2.878,0.73 -1.434,0 -2.875,-0.73 -4.317,-0.73 -2.164,0 -3.601,-1.438 -5.039,-1.438 -2.883,-0.711 -5.762,-1.43 -8.641,-3.601 -2.16,-1.442 -5.042,-3.59 -7.199,-5.758 -2.883,-5.75 -5.761,-10.793 -8.64,-17.274 -0.719,0.723 -2.883,2.871 -3.602,4.313 l -0.723,1.437 c -2.156,1.442 -3.597,2.172 -5.753,2.172 0,0 -0.723,0 -1.442,0 0,0 0,0 -0.723,0 l -3.597,-0.73 c -6.481,4.332 -11.52,10.082 -18,15.129 -4.321,4.312 -7.918,10.082 -10.801,15.113 -0.723,4.328 -0.723,10.09 0.719,15.129 3.597,10.07 9.359,18.719 16.562,26.64 1.442,-1.441 3.598,-3.613 5.754,-4.32 1.442,0 1.442,0 2.164,0 2.883,0 4.317,0.707 7.199,2.149 1.442,0.73 3.602,2.171 5.04,5.05 0,2.16 0.722,3.602 0.722,5.75 0,2.168 -0.722,5.039 -1.441,7.211 -2.879,5.75 -6.481,11.52 -11.52,15.11 -2.879,1.437 -6.476,3.609 -10.082,3.609 v 0 c -2.883,0 -5.039,-2.172 -7.922,-5.051 -0.715,-0.711 -1.437,-2.148 -1.437,-3.597 -1.442,-1.442 -1.442,-2.153 -1.442,-4.321 0,-2.871 1.442,-5.043 2.879,-7.922 -3.597,-1.437 -7.195,-3.597 -10.8,-5.039 -5.04,-2.879 -9.352,-5.75 -14.399,-9.359 -3.598,-3.59 -7.195,-7.191 -8.637,-10.801 -7.203,-9.351 -10.8,-20.148 -10.8,-31.68 v 0 c 0,-1.429 0,-2.152 0,-2.871 0,-10.8 3.597,-20.89 10.078,-29.519 7.203,-10.801 16.562,-20.16 27.363,-27.36 l -10.801,-23.761 c -18.719,-2.168 -31.679,-17.278 -31.679,-36 0,-2.168 0.718,-3.61 0.718,-5.758 -21.597,-24.481 -39.601,-51.852 -53.277,-81.371 l -9.359,-8.629 c -2.883,-3.602 -5.043,-8.641 -6.481,-13.691 0,-1.442 0,-2.872 0,-5.04 0,-6.468 1.438,-12.242 3.598,-17.992 8.636,-5.769 16.558,-10.797 25.203,-15.129 0.715,0 2.156,0 3.598,0 3.597,0 7.918,0.731 11.515,2.172 0.727,-2.883 2.164,-5.761 3.606,-7.922 0.718,-2.168 3.597,-2.879 5.757,-2.879 0,0 0,0 0.723,0 4.317,0.711 7.918,1.442 12.238,2.879 0.719,0 0.719,0 2.161,0 4.32,0 7.918,0 11.519,0.719 2.16,1.442 4.32,3.594 5.039,5.762 2.16,3.601 3.602,7.191 4.32,10.801 1.442,2.16 2.161,3.597 3.598,4.308 2.164,0 2.883,0 5.047,-0.711 0.715,0 2.156,0 2.875,0 1.437,0 2.879,0 3.602,0 2.875,-0.726 5.757,-1.437 7.199,-1.437 2.879,-0.731 6.476,-0.731 9.359,-0.731 0,0 0,0 0.723,0 0.719,0 1.433,0 3.597,0.731 1.442,0.711 3.598,0.711 5.04,2.148 8.644,2.891 16.562,6.481 24.484,10.09 5.039,2.16 9.359,3.602 14.398,6.481 0.719,0.71 2.16,0.71 3.598,2.878 4.32,1.43 7.922,4.313 12.242,6.481 3.598,3.601 7.195,6.48 10.801,10.793 1.434,1.437 2.875,2.879 4.316,3.609 2.879,0 5.039,0 7.203,0 1.442,-0.73 4.321,-1.441 7.196,-1.441 7.203,-2.168 14.406,-2.168 22.324,-2.168 0,0 0.719,0 1.438,0 10.082,-0.711 18.718,-1.434 26.64,-1.434 -2.879,0 -0.719,0 2.879,-0.726 2.164,0 4.32,-1.442 7.203,-2.153 0.719,0 2.883,-0.73 3.598,-1.437 2.883,-2.172 4.32,-2.883 6.48,-5.043 1.442,-1.438 3.598,-3.609 5.037,-5.758 2.88,-2.16 4.32,-3.601 6.48,-5.769 3.61,-2.153 7.2,-4.313 10.8,-5.043 1.44,-0.707 3.61,-0.707 4.32,-2.149 0.72,0 1.44,-0.73 1.44,-0.73 2.89,-1.442 3.6,-2.871 6.48,-4.309 2.16,-3.609 4.33,-7.922 7.21,-11.531 1.43,-2.871 4.31,-5.75 7.92,-7.192 4.31,-2.168 9.36,-2.878 13.67,-4.32 3.61,-2.156 5.76,-3.598 8.65,-6.476 3.59,-3.602 7.19,-6.481 10.8,-10.09 2.87,-1.434 5.04,-2.16 7.92,-2.16 0.71,0 0.71,0 0.71,0 7.21,0 12.96,1.449 18.72,3.597 1.44,-3.597 2.16,-7.918 2.89,-11.519 -0.73,-5.032 -1.45,-10.071 -1.45,-14.391 -1.44,-3.598 -1.44,-5.769 -1.44,-7.918 0,-2.891 0,-5.043 1.44,-6.48 0,-3.602 0.72,-6.481 0.72,-10.082 0.73,-2.168 2.88,-7.2 4.32,-9.36 2.88,-3.609 4.33,-8.648 5.77,-12.969 0,-0.71 0,-1.441 0,-3.589 0,-4.332 0,-7.922 -1.44,-12.25 0,-2.879 0,-5.039 -0.73,-7.922 -0.72,-6.481 -2.88,-11.508 -6.48,-15.84 -0.71,-3.59 -2.16,-8.629 -3.6,-12.231 -1.44,-5.757 -5.76,-10.089 -11.51,-12.968 -2.17,-2.149 -5.05,-3.59 -7.92,-5.75 -2.88,-0.731 -4.33,-4.321 -4.33,-7.211 -7.92,-7.918 -15.84,-15.828 -23.76,-23.75 -1.44,-0.719 -2.16,-1.449 -2.16,-2.891 0,-0.707 0.72,-1.437 2.16,-1.437 h 83.53 c 4.31,2.879 7.92,7.211 10.07,12.25 v 0.718 c 0,2.161 0,2.871 -1.44,5.039 -0.71,0 -0.71,1.442 -0.71,2.153 0,0 0.71,1.449 0.71,2.168 1.44,0 1.44,0 2.17,0 0.71,-0.719 1.43,-2.168 2.87,-2.168 1.44,-1.442 3.61,-3.59 5.05,-4.321 0,-0.71 0,-0.71 0.71,-0.71 0.72,0 2.16,0.71 2.16,0.71 1.44,0.731 2.17,2.879 2.17,4.321 0,0 0,1.449 0,2.168 0,2.871 0,5.043 -1.45,7.922 0,2.871 0.72,5.039 1.45,7.918 0,7.203 -0.73,15.121 -1.45,23.043 -0.72,9.359 -2.16,17.988 -2.88,27.347 0,2.879 0,6.492 0.72,9.36 -0.72,5.769 0,10.8 2.16,15.839 5.04,9.364 7.92,18.723 7.92,29.532 v 0 c 0,1.441 0,2.879 -0.72,3.59 0.72,7.921 0.72,14.402 0.72,21.609 0,10.07 2.16,20.871 3.6,30.23 0.73,2.172 0.73,4.332 2.16,6.481 4.32,1.441 8.64,3.609 12.97,4.332 0.71,0.719 2.15,0.719 2.88,2.148 4.31,0.731 8.63,1.442 12.96,2.168 6.47,0.711 13.67,2.153 20.87,2.153 1.44,-1.442 3.6,-1.442 5.04,-2.153 2.88,-0.726 5.76,-1.437 8.65,-2.168 1.44,-1.429 4.31,-2.148 5.75,-2.871 28.8,-13.679 56.16,-24.48 85.69,-32.398 15.84,-3.602 31.68,-5.77 45.35,-8.641 1.44,0 2.17,0 2.88,0 2.16,0 3.6,0 5.77,0.719 2.15,0.711 5.03,2.152 8.63,2.152 3.6,0.731 7.21,1.438 10.8,2.168 23.76,6.481 48.25,17.281 69.12,31.68 5.78,-10.801 8.64,-17.277 10.81,-22.32 5.03,-3.61 10.8,-9.36 17.28,-14.399 -0.73,-7.922 -2.17,-17.281 -2.89,-25.93 0.72,-6.468 3.6,-11.511 7.92,-15.839 2.17,-2.153 3.6,-2.879 5.76,-2.879 2.16,0 4.32,0.726 5.76,2.879 5.05,2.168 7.21,6.48 8.65,11.519 0.71,3.61 1.43,5.77 1.43,8.649 0,0.711 0,0.711 0,2.152 v 12.25 c 0,0.711 0,1.437 0.72,2.879 3.6,0.711 7.2,2.148 10.09,5.039 0.72,-1.449 2.87,-2.891 3.6,-4.328 0.71,-2.153 2.87,-3.59 4.31,-4.313 2.17,-1.437 3.61,-2.879 4.32,-3.609 v -3.59 c -0.71,-4.328 -1.44,-9.359 -1.44,-14.398 0,-0.731 0,-2.161 0,-2.879 0,-4.332 0.73,-9.371 3.62,-12.961 1.42,-2.879 3.59,-5.039 5.74,-5.77 1.44,0 2.16,-0.711 2.88,-0.711 2.89,0 5.78,1.442 7.92,2.879 2.89,2.16 5.77,5.039 6.48,8.641 0.73,2.879 0.73,6.469 0.73,10.07 0,0.731 0,2.168 0,3.61 0,8.628 0,12.23 0,16.55 5.76,-4.32 10.07,-3.59 14.4,-2.879 8.63,2.879 15.84,8.649 20.87,16.571 0.73,-2.883 2.17,-4.332 4.33,-6.481 1.43,-2.883 3.59,-6.48 4.31,-8.652 2.88,-5.75 4.32,-10.801 7.21,-15.109 2.88,-5.758 5.03,-10.09 7.19,-15.129 0.72,-2.879 1.44,-5.75 1.44,-8.629 -0.72,-12.973 -2.16,-26.641 -5.75,-38.883 0,-4.328 -2.16,-7.918 -2.88,-12.25 -4.33,-5.027 -7.93,-10.801 -10.81,-17.277 -2.87,-2.872 -6.48,-5.043 -8.63,-7.922 -2.88,0 -5.05,-0.711 -7.21,-2.149 -2.14,-1.441 -3.58,-3.601 -5.04,-5.769 -0.72,-1.442 -0.72,-2.153 -0.72,-2.871 -8.64,-7.922 -18.71,-15.852 -26.62,-25.922 0,-0.719 -0.73,-1.449 -0.73,-2.891 v 0 c 0,-1.437 0.73,-2.148 1.43,-2.148 h 87.12 c 4.32,3.59 7.92,8.629 10.09,13.679 v 2.871 l -0.73,2.168 c -0.71,1.442 -0.71,2.153 -0.71,3.602 l 0.71,0.719 c 0.73,-0.719 2.88,-2.168 3.6,-2.879 0.73,-0.731 2.17,-1.442 3.62,-2.879 0,0 0.71,0 2.14,0 0,0 0.72,0 1.44,0 0,0 0.72,1.437 1.44,2.148 v 3.61 c -0.72,2.871 -0.72,5.043 -1.44,8.64 0.72,2.879 0.72,5.762 1.44,7.922 0,2.879 1.45,5.758 1.45,9.36 0,0.711 0,3.589 -1.45,5.039 0,0 0,0 0,0.718 0,1.43 0,2.161 0,2.161 0,0.711 0,1.441 0,2.882 1.45,10.071 1.45,22.321 2.89,31.68 0.71,10.801 2.15,21.598 4.31,31.68 0,1.437 0,3.59 0,5.039 1.44,2.879 2.18,5.031 2.89,8.64 0,5.04 0.73,10.079 0.73,14.399 0,0.723 0,2.16 0,3.601 0,2.879 0,4.321 0,7.192 2.14,3.609 2.86,7.207 5.02,10.797 0,-2.879 0,-5.039 0.72,-7.918 0,-0.711 0,-0.711 0,-2.153 0.73,-0.726 0.73,-0.726 0.73,-2.16 0,-2.168 -0.73,-5.047 -1.45,-7.199 v 0 c 0,0 0.72,-1.437 1.45,-1.437 v 0 h 0.71 c 2.17,1.437 3.6,2.148 4.32,2.878 0,-2.878 0,-5.039 0,-7.921 0,-1.438 0,-3.598 0,-5.039 2.17,-2.879 2.89,-5.758 3.6,-8.649 v -1.441 h 1.44 c 0.73,-3.59 2.16,-6.481 5.04,-8.629 2.17,-1.442 2.88,-2.16 4.32,-3.602 v 0 0 0 c 1.44,0.723 2.16,2.16 2.16,3.602 1.45,0.711 2.88,1.437 4.32,2.148 v 0 c 0,1.442 0,1.442 0,1.442 v 0.73 c 0,1.438 0.73,4.309 1.44,5.75 0,1.438 1.44,2.168 1.44,2.891 0.72,-2.891 1.44,-5.043 3.6,-7.203 v 0 c 0.73,0 0.73,0 0.73,0 v 2.16 0.711 c 0,1.441 0,2.879 0.71,4.332 0.73,2.148 2.16,3.59 2.89,5.758 v 12.23 c 0,0 0,0 0,0.73 1.44,-0.73 1.44,-2.878 1.44,-3.601 l 2.88,-1.438 c 0.71,0 2.88,-0.73 3.59,-0.73 v -1.441 1.441 0 c 0,0.73 -0.71,2.168 -0.71,2.891 0,7.199 0,13.679 0,20.867 v 0.73 c 0.71,-0.73 2.15,-0.73 2.15,-2.168 l 1.44,0.731 c 0,3.59 0,5.75 0.72,9.359 0,2.149 0,5.039 0,7.188 0,2.171 0,2.882 0,5.05 0,5.039 -2.16,9.36 -3.6,13.672 -2.88,5.77 -3.59,10.809 -5.04,16.571 0,5.75 0,12.226 0,18.718 l 0.72,10.789 c 0.73,9.36 1.44,17.282 2.88,25.2 2.88,27.371 5.77,51.839 8.66,76.332 0.71,9.359 1.44,22.32 1.44,35.281 0,1.437 0,2.148 0,3.59 0,2.879 -0.73,5.769 -0.73,9.359 0,0.731 0,1.438 0,2.168 0,2.871 0,6.481 -0.71,9.359 -2.18,3.602 -2.18,7.204 -2.18,10.793 0,2.168 -0.71,5.77 -0.71,9.36 -0.73,2.879 -0.73,6.48 -0.73,9.359 -0.72,3.602 -2.16,9.36 -3.6,15.84 -1.44,6.48 -4.32,12.25 -7.91,19.449 -2.89,2.871 -4.33,6.481 -6.49,10.082 -1.44,1.438 -4.32,3.59 -5.76,6.481 -2.15,2.148 -5.04,4.316 -7.19,7.199 -2.17,2.16 -5.05,5.039 -7.21,7.918 -2.87,1.441 -5.04,3.601 -7.19,4.312 l -7.21,3.61 c -2.87,0.711 -6.48,1.437 -9.36,2.871 -1.44,0 -2.15,0 -4.32,0 -2.16,0.726 -5.03,1.437 -7.19,2.168 -1.45,0 -3.6,0 -5.04,1.441 -2.17,0.707 -3.61,0.707 -4.33,1.438 -2.14,0.711 -3.58,1.441 -4.32,3.601 -2.88,0.711 -5.76,0.711 -8.63,1.442 -1.44,1.437 -4.32,2.148 -5.76,2.879 -3.6,0 -6.49,0 -10.08,0 -1.44,0 -4.32,0 -6.49,0 -3.6,-0.731 -5.76,-1.442 -9.35,-1.442 -2.88,0 -6.49,0 -9.36,0 -4.33,0.711 -7.91,1.442 -12.25,2.153 -2.88,1.449 -5.03,1.449 -8.64,2.16 -3.59,0.726 -7.2,0.726 -11.52,0.726 -2.15,0 -2.88,0 -5.04,0 -2.14,-0.726 -5.03,-0.726 -7.92,-1.437 -3.59,-1.449 -7.2,-2.891 -9.35,-5.039 -7.21,-4.332 -14.4,-7.922 -22.33,-9.364 -5.03,-0.726 -10.08,-0.726 -14.39,-0.726 -7.2,0 -16.57,0 -25.93,0 -4.31,0 -9.36,0 -13.67,0 -15.13,-1.434 -30.25,0 -44.65,0.726 -12.22,0 -23.76,1.442 -35.28,5.032 -6.48,0.73 -12.96,2.16 -20.16,2.16 -0.72,0 -1.44,0 -2.16,0 -3.59,0 -6.48,0 -9.36,0 -3.59,0 -5.76,0 -9.36,0 -2.15,0 -5.04,0 -6.48,0 -3.59,-1.43 -5.03,-1.43 -7.92,-1.43 -3.59,0 -7.92,-0.73 -11.51,0 h -12.97 c -0.72,0 -1.43,0 -2.16,0 -2.15,0 -3.59,0 -5.76,0 h -7.92 c -1.44,0 -3.6,0 -5.04,0 -2.16,0 -5.04,0 -6.48,0 -3.6,0 -7.19,0 -10.8,0 -5.04,0 -10.08,0 -15.11,-0.73 -1.44,0 -3.61,0.73 -5.05,0.73 -2.87,0 -5.76,-0.73 -8.64,-0.73 -1.44,0 -4.32,0 -5.04,0 -1.44,0 -4.32,0 -5.03,0 -10.09,0.73 -18.72,0.73 -28.81,2.89 -5.75,0.711 -10.79,2.879 -15.84,3.59 -9.36,2.891 -18,4.328 -27.36,4.328 -5.04,0.711 -10.07,0.711 -16.55,0.711 -3.61,0 -7.21,0 -10.8,-0.711 -0.73,0 -0.73,0 -0.73,0 -7.19,0 -13.67,0 -20.16,-1.437 -5.04,-2.891 -10.08,-5.039 -15.84,-6.481 -2.87,-2.16 -5.04,-2.89 -7.92,-3.601 -3.6,-2.879 -7.92,-4.321 -13.67,-5.047 -4.33,-2.871 -9.37,-5.043 -13.69,-6.481 -10.8,-5.75 -17.99,-10.793 -25.2,-17.281 -2.15,-1.43 -4.32,-3.601 -7.19,-5.039 -2.88,-2.883 -4.33,-4.312 -7.21,-5.75 z" /><path
         id="path4002"
         style="fill:#ffffff;fill-opacity:1;fill-rule:nonzero;stroke:none"
         d="m 1693.08,693.719 c 7.19,18.722 12.96,36 18.71,54 0,-0.731 0,-0.731 0,-0.731 l 0.72,-2.867 c 0.72,-7.199 0.72,-14.402 0.72,-20.891 0,-3.589 0,-7.191 0,-12.23 -0.72,-23.039 -1.44,-59.762 -3.6,-95.762 0,-6.476 0,-8.648 0,-10.078 0,-10.801 -0.71,-20.89 -0.71,-30.961 -0.73,-5.769 -2.88,-10.808 -4.33,-16.558 -4.32,-8.641 -7.2,-18.719 -7.92,-28.082 -2.88,3.601 -5.02,5.75 -7.2,8.632 -3.6,2.887 -5.75,6.481 -7.19,10.09 -2.17,5.039 -4.33,10.789 -7.2,15.11 -0.72,3.597 -2.89,7.211 -4.33,10.808 -2.16,4.321 -2.87,7.922 -3.6,12.949 0,9.364 0.73,18.012 2.17,28.09 1.43,11.512 3.6,23.043 6.49,34.563 6.47,15.84 11.5,30.238 17.27,44.629 v -0.711" /><path
         id="path4004"
         style="fill:none;stroke:#ffffff;stroke-width:2.1500001;stroke-linecap:butt;stroke-linejoin:miter;stroke-miterlimit:4;stroke-dasharray:none;stroke-opacity:1"
         d="m 1693.08,693.719 c 7.19,18.722 12.96,36 18.71,54 0,-0.731 0,-0.731 0,-0.731 l 0.72,-2.867 c 0.72,-7.199 0.72,-14.402 0.72,-20.891 0,-3.589 0,-7.191 0,-12.23 -0.72,-23.039 -1.44,-59.762 -3.6,-95.762 0,-6.476 0,-8.648 0,-10.078 0,-10.801 -0.71,-20.89 -0.71,-30.961 -0.73,-5.769 -2.88,-10.808 -4.33,-16.558 -4.32,-8.641 -7.2,-18.719 -7.92,-28.082 -2.88,3.601 -5.02,5.75 -7.2,8.632 -3.6,2.887 -5.75,6.481 -7.19,10.09 -2.17,5.039 -4.33,10.789 -7.2,15.11 -0.72,3.597 -2.89,7.211 -4.33,10.808 -2.16,4.321 -2.87,7.922 -3.6,12.949 0,9.364 0.73,18.012 2.17,28.09 1.43,11.512 3.6,23.043 6.49,34.563 6.47,15.84 11.5,30.238 17.27,44.629 z" /></g></g></svg>