<?xml version="1.0" encoding="UTF-8" standalone="no"?>
<svg
   xmlns:dc="http://purl.org/dc/elements/1.1/"
   xmlns:cc="http://creativecommons.org/ns#"
   xmlns:rdf="http://www.w3.org/1999/02/22-rdf-syntax-ns#"
   xmlns:svg="http://www.w3.org/2000/svg"
   xmlns="http://www.w3.org/2000/svg"
   viewBox="0 0 793.70667 694.93335"
   height="694.93335"
   width="793.70667"
   xml:space="preserve"
   id="svg3848"
   version="1.1"><metadata
     id="metadata3854"><rdf:RDF><cc:Work
         rdf:about=""><dc:format>image/svg+xml</dc:format><dc:type
           rdf:resource="http://purl.org/dc/dcmitype/StillImage" /><dc:title></dc:title></cc:Work></rdf:RDF></metadata><defs
     id="defs3852" /><g
     transform="matrix(1.3333333,0,0,-1.3333333,0,694.93333)"
     id="g3856"><g
       transform="scale(0.1)"
       id="g3858"><path
         id="path3860"
         style="fill:#f1491c;fill-opacity:1;fill-rule:nonzero;stroke:none"
         d="M 3156.83,5104.3 5921.29,316.09 c 37.22,-64.469 37.22,-143.891 0,-208.367 C 5884.07,43.2695 5815.28,3.55078 5740.85,3.55078 H 211.91 C 137.465,3.55078 68.6875,43.2695 31.4648,107.723 -5.75,172.199 -5.75,251.621 31.4648,316.09 L 2795.94,5104.3 c 37.22,64.46 106,104.17 180.44,104.17 74.44,0 143.22,-39.71 180.45,-104.17" /><path
         id="path3862"
         style="fill:none;stroke:#f1491c;stroke-width:7.10031986;stroke-linecap:round;stroke-linejoin:round;stroke-miterlimit:500;stroke-dasharray:none;stroke-opacity:1"
         d="M 3156.83,5104.3 5921.29,316.09 c 37.22,-64.469 37.22,-143.891 0,-208.367 C 5884.07,43.2695 5815.28,3.55078 5740.85,3.55078 H 211.91 C 137.465,3.55078 68.6875,43.2695 31.4648,107.723 -5.75,172.199 -5.75,251.621 31.4648,316.09 L 2795.94,5104.3 c 37.22,64.46 106,104.17 180.44,104.17 74.44,0 143.22,-39.71 180.45,-104.17 z" /><path
         id="path3864"
         style="fill:#ffffff;fill-opacity:1;fill-rule:nonzero;stroke:none"
         d="M 933.676,628.621 2976.38,4166.68 5019.08,628.621 Z" /><path
         id="path3866"
         style="fill:none;stroke:#ffffff;stroke-width:7.10031986;stroke-linecap:round;stroke-linejoin:round;stroke-miterlimit:500;stroke-dasharray:none;stroke-opacity:1"
         d="M 933.676,628.621 2976.38,4166.68 5019.08,628.621 Z" /><path
         id="path3868"
         style="fill:#100f0d;fill-opacity:1;fill-rule:nonzero;stroke:none"
         d="m 3258.95,1242.54 c 29.06,-232.98 200.89,-422.81 429.83,-474.86 228.93,-52.028 465.95,44.871 592.85,242.4 126.91,197.52 116.52,453.37 -25.96,639.96 -142.49,186.59 -386.57,263.97 -610.54,193.56 l -181.04,393.51 127.54,104.18 c 70.24,57.37 88.52,157.2 43.17,235.74 l -281.11,486.91 c -27.13,46.98 -73.51,79.69 -126.87,89.46 -53.36,9.77 -108.33,-4.37 -150.35,-38.69 L 2463.1,2613.67 2234.04,1858.66 c -288.88,60.89 -575.23,-113.66 -653.45,-398.34 -78.22,-284.69 78.73,-581.039 358.16,-676.32 279.45,-95.258 584.75,43.52 696.71,316.69 111.96,273.19 -8.13,586.31 -274.05,714.55 l 39.27,131.1 543.63,-622.19 c -5.56,-57.84 29.02,-112.02 83.81,-131.35 54.8,-19.33 115.72,1.15 147.68,49.68 l 83.16,0.06 h -0.01" /><path
         id="path3870"
         style="fill:none;stroke:#100f0d;stroke-width:7.10031986;stroke-linecap:round;stroke-linejoin:round;stroke-miterlimit:500;stroke-dasharray:none;stroke-opacity:1"
         d="m 3258.95,1242.54 c 29.06,-232.98 200.89,-422.81 429.83,-474.86 228.93,-52.028 465.95,44.871 592.85,242.4 126.91,197.52 116.52,453.37 -25.96,639.96 -142.49,186.59 -386.57,263.97 -610.54,193.56 l -181.04,393.51 127.54,104.18 c 70.24,57.37 88.52,157.2 43.17,235.74 l -281.11,486.91 c -27.13,46.98 -73.51,79.69 -126.87,89.46 -53.36,9.77 -108.33,-4.37 -150.35,-38.69 L 2463.1,2613.67 2234.04,1858.66 c -288.88,60.89 -575.23,-113.66 -653.45,-398.34 -78.22,-284.69 78.73,-581.039 358.16,-676.32 279.45,-95.258 584.75,43.52 696.71,316.69 111.96,273.19 -8.13,586.31 -274.05,714.55 l 39.27,131.1 543.63,-622.19 c -5.56,-57.84 29.02,-112.02 83.81,-131.35 54.8,-19.33 115.72,1.15 147.68,49.68 l 83.16,0.06 z" /><path
         id="path3872"
         style="fill:#100f0d;fill-opacity:1;fill-rule:nonzero;stroke:none"
         d="m 3144.79,3360.44 c 0,124.06 -100.57,224.62 -224.62,224.62 -124.05,0 -224.61,-100.56 -224.61,-224.62 0,-124.05 100.56,-224.61 224.61,-224.61 124.05,0 224.62,100.56 224.62,224.61" /><path
         id="path3874"
         style="fill:none;stroke:#100f0d;stroke-width:7.10031986;stroke-linecap:round;stroke-linejoin:round;stroke-miterlimit:500;stroke-dasharray:none;stroke-opacity:1"
         d="m 3144.79,3360.44 c 0,124.06 -100.57,224.62 -224.62,224.62 -124.05,0 -224.61,-100.56 -224.61,-224.62 0,-124.05 100.56,-224.61 224.61,-224.61 124.05,0 224.62,100.56 224.62,224.61 z" /><path
         id="path3876"
         style="fill:#ffffff;fill-opacity:1;fill-rule:nonzero;stroke:none"
         d="m 2563.03,2482.05 480.47,392.47 217.53,-376.78 -407.23,-332.64 -13.35,-10.9 -343.01,110 65.59,217.85" /><path
         id="path3878"
         style="fill:none;stroke:#ffffff;stroke-width:7.10031986;stroke-linecap:round;stroke-linejoin:round;stroke-miterlimit:500;stroke-dasharray:none;stroke-opacity:1"
         d="m 2563.03,2482.05 480.47,392.47 217.53,-376.78 -407.23,-332.64 -13.35,-10.9 -343.01,110 z" /><path
         id="path3880"
         style="fill:#ffffff;fill-opacity:1;fill-rule:nonzero;stroke:none"
         d="m 2467.68,2165.1 -19.67,-64.78 485.34,-556.89 -153.38,480.38 c -4.36,13.66 -5.71,28.11 -3.94,42.33 l -308.35,98.96" /><path
         id="path3882"
         style="fill:none;stroke:#ffffff;stroke-width:6.74076986;stroke-linecap:round;stroke-linejoin:round;stroke-miterlimit:500;stroke-dasharray:none;stroke-opacity:1"
         d="m 2467.68,2165.1 -19.67,-64.78 485.34,-556.89 -153.38,480.38 c -4.36,13.66 -5.71,28.11 -3.94,42.33 z" /><path
         id="path3884"
         style="fill:#ffffff;fill-opacity:1;fill-rule:nonzero;stroke:none"
         d="m 3087.48,1929.47 70.55,-220.95 65.63,213.98 -103.9,33.35 -32.28,-26.38" /><path
         id="path3886"
         style="fill:none;stroke:#ffffff;stroke-width:1.89137995;stroke-linecap:round;stroke-linejoin:round;stroke-miterlimit:500;stroke-dasharray:none;stroke-opacity:1"
         d="m 3087.48,1929.47 70.55,-220.95 65.63,213.98 -103.9,33.35 z" /><path
         id="path3888"
         style="fill:#ffffff;fill-opacity:1;fill-rule:nonzero;stroke:none"
         d="m 3198.7,1381.38 203.92,667.96 119.84,-261.47 c -145.11,-88.32 -242.04,-237.97 -263.31,-406.51 l -60.45,0.02" /><path
         id="path3890"
         style="fill:none;stroke:#ffffff;stroke-width:4.49676991;stroke-linecap:round;stroke-linejoin:round;stroke-miterlimit:500;stroke-dasharray:none;stroke-opacity:1"
         d="m 3198.7,1381.38 203.92,667.96 119.84,-261.47 c -145.11,-88.32 -242.04,-237.97 -263.31,-406.51 z" /><path
         id="path3892"
         style="fill:#ffffff;fill-opacity:1;fill-rule:nonzero;stroke:none"
         d="m 3386.46,1383.33 c 20,118.71 88.64,223.68 189.35,289.62 l 132.77,-289.7 -322.12,0.08" /><path
         id="path3894"
         style="fill:none;stroke:#ffffff;stroke-width:4.47398996;stroke-linecap:round;stroke-linejoin:round;stroke-miterlimit:500;stroke-dasharray:none;stroke-opacity:1"
         d="m 3386.46,1383.33 c 20,118.71 88.64,223.68 189.35,289.62 l 132.77,-289.7 z" /><path
         id="path3896"
         style="fill:#ffffff;fill-opacity:1;fill-rule:nonzero;stroke:none"
         d="m 3698.12,1728.89 178.42,-389.65 c 9.8,-21.37 7.91,-46.27 -4.99,-65.92 -12.89,-19.66 -34.97,-31.3 -58.47,-30.84 -142.32,2.79 -284.67,2.58 -426.97,-0.65 28.87,-176.49 163.51,-316.947 338.63,-353.24 175.11,-36.301 354.49,39.07 451.12,189.55 96.63,150.49 90.54,344.95 -15.32,489.1 -105.87,144.14 -289.61,208.14 -462.11,160.95 l -0.31,0.7" /><path
         id="path3898"
         style="fill:none;stroke:#ffffff;stroke-width:7.10031986;stroke-linecap:round;stroke-linejoin:round;stroke-miterlimit:500;stroke-dasharray:none;stroke-opacity:1"
         d="m 3698.12,1728.89 178.42,-389.65 c 9.8,-21.37 7.91,-46.27 -4.99,-65.92 -12.89,-19.66 -34.97,-31.3 -58.47,-30.84 -142.32,2.79 -284.67,2.58 -426.97,-0.65 28.87,-176.49 163.51,-316.947 338.63,-353.24 175.11,-36.301 354.49,39.07 451.12,189.55 96.63,150.49 90.54,344.95 -15.32,489.1 -105.87,144.14 -289.61,208.14 -462.11,160.95 z" /><path
         id="path3900"
         style="fill:#ffffff;fill-opacity:1;fill-rule:nonzero;stroke:none"
         d="m 2322.12,1685.18 -60.1,-192.32 c -18.19,-62 -40.52,-122.71 -66.83,-181.72 -7.6,-16.49 -17.4,-31.89 -29.14,-45.78 -22.78,-23.1 -58.89,-26.48 -85.58,-8.01 -26.68,18.47 -36.23,53.46 -22.62,82.93 26.76,52.18 49.21,106.47 67.11,162.31 l 72.23,235.23 c -222.1,40.99 -438.38,-95.72 -496.64,-313.93 -58.27,-218.21 61.07,-444.531 274.03,-519.71 212.98,-75.2 447.95,26.043 539.6,232.47 91.65,206.42 9.14,448.6 -189.47,556.15 -1.43,0.77 -3.18,0.63 -4.46,-0.37 -1.28,-1.01 -1.84,-2.67 -1.43,-4.24 0.41,-1.57 1.7,-2.75 3.3,-3.01" /><path
         id="path3902"
         style="fill:none;stroke:#ffffff;stroke-width:7.10031986;stroke-linecap:round;stroke-linejoin:round;stroke-miterlimit:500;stroke-dasharray:none;stroke-opacity:1"
         d="m 2322.12,1685.18 -60.1,-192.32 c -18.19,-62 -40.52,-122.71 -66.83,-181.72 -7.6,-16.49 -17.4,-31.89 -29.14,-45.78 -22.78,-23.1 -58.89,-26.48 -85.58,-8.01 -26.68,18.47 -36.23,53.46 -22.62,82.93 26.76,52.18 49.21,106.47 67.11,162.31 l 72.23,235.23 c -222.1,40.99 -438.38,-95.72 -496.64,-313.93 -58.27,-218.21 61.07,-444.531 274.03,-519.71 212.98,-75.2 447.95,26.043 539.6,232.47 91.65,206.42 9.14,448.6 -189.47,556.15 -1.43,0.77 -3.18,0.63 -4.46,-0.37 -1.28,-1.01 -1.84,-2.67 -1.43,-4.24 0.41,-1.57 1.7,-2.75 3.3,-3.01 z" /></g></g></svg>