<?xml version="1.0" encoding="UTF-8" standalone="no"?>
<svg
   xmlns:dc="http://purl.org/dc/elements/1.1/"
   xmlns:cc="http://creativecommons.org/ns#"
   xmlns:rdf="http://www.w3.org/1999/02/22-rdf-syntax-ns#"
   xmlns:svg="http://www.w3.org/2000/svg"
   xmlns="http://www.w3.org/2000/svg"
   viewBox="0 0 340.41333 297.98666"
   height="297.98666"
   width="340.41333"
   xml:space="preserve"
   id="svg3904"
   version="1.1"><metadata
     id="metadata3910"><rdf:RDF><cc:Work
         rdf:about=""><dc:format>image/svg+xml</dc:format><dc:type
           rdf:resource="http://purl.org/dc/dcmitype/StillImage" /><dc:title></dc:title></cc:Work></rdf:RDF></metadata><defs
     id="defs3908" /><g
     transform="matrix(1.3333333,0,0,-1.3333333,0,297.98667)"
     id="g3912"><g
       transform="scale(0.1)"
       id="g3914"><path
         id="path3916"
         style="fill:#f14824;fill-opacity:1;fill-rule:nonzero;stroke:none"
         d="M 1199.16,2189.16 13.3164,135 C 5.39453,121.32 1.07422,106.199 1.07422,90.3594 1.07422,41.3984 41.3906,1.08203 90.3516,1.08203 H 2462.75 c 48.97,0 89.28,40.31637 89.28,89.27737 0,15.8396 -4.32,30.9606 -12.24,44.6406 L 1353.96,2189.16 c -15.84,28.08 -45.37,44.64 -77.05,44.64 -32.4,0 -61.91,-16.56 -77.75,-44.64" /><path
         id="path3918"
         style="fill:none;stroke:#f14824;stroke-width:2.1500001;stroke-linecap:butt;stroke-linejoin:miter;stroke-miterlimit:4;stroke-dasharray:none;stroke-opacity:1"
         d="M 1199.16,2189.16 13.3164,135 C 5.39453,121.32 1.07422,106.199 1.07422,90.3594 1.07422,41.3984 41.3906,1.08203 90.3516,1.08203 H 2462.75 c 48.97,0 89.28,40.31637 89.28,89.27737 0,15.8396 -4.32,30.9606 -12.24,44.6406 L 1353.96,2189.16 c -15.84,28.08 -45.37,44.64 -77.05,44.64 -32.4,0 -61.91,-16.56 -77.75,-44.64 z" /><path
         id="path3920"
         style="fill:#ffffff;fill-opacity:1;fill-rule:nonzero;stroke:none"
         d="M 399.965,268.922 H 2153.15 L 1276.91,1787.39 Z" /><path
         id="path3922"
         style="fill:none;stroke:#ffffff;stroke-width:2.1500001;stroke-linecap:butt;stroke-linejoin:miter;stroke-miterlimit:4;stroke-dasharray:none;stroke-opacity:1"
         d="M 399.965,268.922 H 2153.15 L 1276.91,1787.39 Z" /><path
         id="path3924"
         style="fill:#231f20;fill-opacity:1;fill-rule:nonzero;stroke:none"
         d="m 1564.91,425.879 c -5.04,-7.207 -10.8,-15.84 -16.56,-23.758 -3.59,-5.039 -7.91,-10.082 -10.8,-15.84 -5.04,-7.922 -8.63,-17.281 -10.79,-26.64 -1.44,-5.039 -2.89,-8.641 -6.49,-12.25 -0.71,-1.442 -1.44,-2.879 -1.44,-3.59 -0.71,-0.719 -1.44,-1.442 -1.44,-2.891 h 0.73 c 0,-2.148 -0.73,-3.59 -1.45,-5.031 0,-0.719 -2.16,-0.719 -2.88,0 -1.44,1.441 -2.14,2.152 -2.87,3.59 -0.71,1.441 -2.17,3.613 -2.89,5.043 -0.72,0.726 -1.44,1.437 -2.87,1.437 0,0.731 0,0.731 -0.73,0.731 -1.44,0 -2.15,-0.731 -2.15,-2.168 0,-0.711 0,-1.43 0,-2.153 v 0 c 0,-0.718 0,-1.449 0,-2.16 0.71,-1.437 1.44,-2.168 2.15,-3.609 0.73,0 0.73,-1.43 0.73,-2.149 0,-0.722 0,-1.453 0,-2.16 -1.44,-3.609 -4.33,-7.199 -7.21,-10.09 -1.43,-0.711 -2.14,-2.152 -3.59,-2.152 h -39.6 l -33.84,0.711 c -1.45,0.73 -2.17,2.172 -1.45,3.609 3.61,4.313 7.2,8.629 10.8,12.961 2.88,3.59 6.49,7.192 10.08,10.071 0.72,1.441 2.16,2.168 2.88,2.89 1.44,1.438 2.17,3.59 2.88,4.321 0,2.878 1.44,4.32 2.88,5.039 2.89,2.879 6.48,5.031 10.08,6.48 0.72,0 2.17,0 2.88,0.719 2.89,2.16 5.05,4.308 7.21,7.199 1.44,0.723 1.44,2.16 2.15,2.883 0.73,3.59 2.88,6.476 5.77,9.359 2.15,2.879 5.75,5.758 9.36,7.918 4.31,2.883 7.92,6.481 11.51,10.801 7.21,9.359 14.4,18.719 20.88,28.082 4.32,5.039 7.21,11.52 10.8,16.559 2.88,3.589 5.04,8.64 7.92,12.238 2.89,6.48 5.04,12.961 5.04,19.441 0,12.95 0.73,24.481 1.44,34.559 0,2.883 -1.44,6.48 -3.59,10.07 -3.6,7.922 -8.65,16.571 -13.68,25.93 -5.05,7.922 -8.64,15.84 -10.81,24.473 -0.72,3.609 -2.16,7.207 -3.6,11.527 -1.43,7.203 -2.14,12.961 -3.6,18.711 -2.16,11.531 -5.76,22.332 -10.8,33.129 -2.14,6.48 -3.59,12.23 -3.59,19.441 0,0.711 0,1.442 0,2.879 0,1.441 0,3.602 0,5.043 -5.77,-1.441 -12.25,-3.602 -17.28,-6.48 -5.77,-2.883 -11.51,-5.043 -17.29,-6.481 -7.2,-2.883 -13.68,-4.32 -21.6,-5.762 -2.15,0 -4.32,0 -6.48,0 -5.76,-0.718 -11.5,-0.718 -17.28,-0.718 0,0 0,0 -1.44,0 -6.48,0 -12.96,0 -19.44,-0.719 -3.59,0 -8.64,0 -12.95,-0.723 -3.61,0 -7.92,0 -12.25,0 -2.16,-11.527 -3.59,-23.039 -3.59,-34.558 -2.17,-8.653 -2.88,-16.559 -3.61,-24.481 -0.72,-4.328 -1.44,-12.25 -2.16,-20.168 -0.72,-10.793 -1.44,-18.711 -1.44,-26.633 0,-3.609 0,-7.918 0.72,-11.527 0.72,-7.922 0.72,-15.844 2.16,-23.031 1.45,-7.922 2.16,-14.403 2.16,-21.602 0,0 0,-0.719 0,-1.437 0,-3.602 0,-7.203 -2.16,-10.813 -1.44,-3.59 -2.16,-7.187 -2.16,-10.801 0,-1.429 0,-1.429 0,-2.867 0.72,-6.492 1.44,-12.972 2.16,-18.722 0.72,-7.2 2.16,-14.399 3.6,-22.321 2.16,-9.359 4.32,-18.718 7.21,-28.078 2.15,-7.922 4.31,-15.121 5.75,-23.039 0.72,-2.16 0.72,-5.039 0.72,-7.199 0,-1.442 0,-2.883 0,-4.32 -1.44,-2.161 -2.16,-5.77 -2.16,-8.653 v 0 0 c 0,-2.148 -1.43,-3.59 -3.6,-3.59 0,0 -0.71,0 -1.44,0.723 -2.16,2.156 -4.32,4.309 -7.19,6.477 -0.73,1.441 -0.73,1.441 -2.17,1.441 -0.72,0 -2.16,0 -2.16,-1.441 -0.72,-0.727 -1.44,-2.168 -1.44,-3.61 0,0 0,-1.437 0.72,-1.437 0.72,-2.871 1.44,-5.043 2.16,-7.922 0,0 0,-0.711 0,-1.43 0,-7.922 -5.76,-14.41 -14.39,-15.121 h -63.36 c -1.44,0 -2.17,1.441 -2.17,2.883 0,0.707 0,1.437 0.73,1.437 5.03,7.922 11.51,15.84 18.72,21.59 1.43,6.492 6.48,12.973 12.96,13.692 2.88,3.589 5.03,6.48 7.91,10.078 0.72,1.429 0.72,2.16 0.72,2.871 0,0.73 0,0.73 0,1.449 0,5.031 1.44,10.082 3.61,14.391 0.71,3.609 2.15,7.211 2.87,11.531 0,1.437 0.72,3.598 0.72,5.039 0,0.711 -0.72,2.16 -0.72,3.602 0,11.507 -1.44,24.48 -4.31,36 -1.44,10.07 -5.05,20.16 -10.8,28.796 -3.61,10.801 -5.04,22.313 -2.89,33.84 0,1.434 0,2.16 0,3.602 0,10.07 -2.15,20.879 -5.03,30.949 -1.45,7.211 -3.61,14.41 -5.77,22.332 -2.15,4.309 -2.88,9.359 -3.6,14.399 -3.59,11.519 -7.2,23.031 -9.36,34.562 0,4.309 -1.44,7.918 -1.44,11.52 -0.71,-0.731 -2.15,-1.442 -2.88,-1.442 -5.76,-2.16 -10.8,-5.039 -15.84,-8.648 -5.76,-3.602 -10.8,-7.192 -15.84,-10.793 -6.48,-5.047 -13.68,-9.36 -20.88,-13.68 -3.59,-1.437 -17.28,-7.918 -30.23,-15.129 -20.17,-10.789 -28.09,-15.109 -34.57,-20.871 -3.59,-2.16 -5.76,-5.039 -7.92,-7.918 0,-0.723 -0.72,-2.16 -2.16,-3.601 -4.31,-5.77 -8.64,-11.52 -12.23,-18.008 -5.77,-7.922 -10.09,-17.274 -11.53,-26.633 -0.72,-8.641 -3.6,-17.277 -5.04,-25.93 -0.71,-3.59 -1.44,-7.91 -1.44,-11.508 0,-4.32 0.73,-8.652 1.44,-12.242 1.44,-6.48 2.88,-12.961 2.88,-20.168 0,-1.441 0,-3.59 1.44,-4.312 0,-1.438 0.72,-2.168 0.72,-2.879 0,-0.731 0,-0.731 -0.72,-1.442 -0.72,-1.437 -2.88,-2.16 -3.59,-2.16 -1.44,0.723 -4.33,1.434 -6.48,1.434 v 0.726 c -2.17,0 -3.61,-2.16 -3.61,-3.597 0,-0.719 0,-0.719 0,-1.442 0.73,-1.437 2.17,-2.168 3.61,-2.168 v 0 c 2.87,0 5.75,-0.711 7.92,-1.441 6.48,-1.43 10.79,-7.191 10.79,-13.668 0,-2.883 -0.72,-5.043 -1.43,-7.211 -8.65,-18.723 -18.72,-37.43 -30.25,-56.152 -0.72,-1.438 -2.16,-1.438 -3.6,-0.731 l -12.24,32.41 c -0.72,0.723 -1.44,2.161 -2.16,2.883 -1.44,2.16 -2.88,4.309 -3.59,6.481 v 0.718 5.758 c 0,5.754 -1.44,12.242 -3.61,18 0.72,-2.156 -1.44,1.442 -2.87,5.762 -3.61,10.082 -3.61,13.672 -3.61,16.551 0,3.609 0.73,7.211 1.44,11.531 0.73,2.867 1.44,5.75 2.17,8.637 2.87,5.031 5.04,10.07 7.19,14.402 0.73,0.719 1.44,2.16 1.44,4.32 0.72,2.149 1.44,5.039 2.16,7.918 0.72,4.321 2.17,8.633 3.61,12.961 0.71,2.16 0.71,4.321 0.71,6.469 0.73,1.449 1.44,3.609 2.16,6.481 0.72,3.609 1.44,7.921 2.16,11.531 0,0.719 0,2.16 0,2.871 0.72,1.437 0.72,2.168 0.72,3.609 0.72,2.16 0.72,5.75 0.72,8.629 0,0.731 0,1.449 0,2.172 0,4.309 -0.72,7.918 -1.44,12.227 0,2.171 0,4.332 0,6.48 0,3.609 0,7.211 1.44,10.801 1.45,4.332 2.89,8.648 4.33,12.969 2.15,4.312 3.59,7.921 5.75,11.523 0.73,1.438 2.17,2.879 3.6,4.316 1.44,1.434 2.88,2.161 4.32,2.161 1.44,1.441 2.88,2.882 3.6,2.882 7.2,5.039 12.97,10.797 18.72,15.84 7.92,6.481 14.4,13.668 20.89,20.16 4.31,5.039 7.92,10.079 11.51,15.118 2.16,2.16 3.6,4.32 5.76,6.48 3.61,4.32 7.2,7.91 12.24,11.52 2.88,2.16 5.76,4.312 8.65,6.48 l 1.44,1.441 c -6.48,2.872 -12.25,7.2 -16.57,12.231 -2.88,3.609 -6.48,7.211 -9.36,10.809 -3.6,4.32 -7.19,8.64 -10.08,13.679 -1.44,2.883 -2.88,5.039 -5.03,7.192 -1.44,1.441 -2.17,4.328 -2.89,5.769 -1.44,2.879 -2.88,5.039 -4.32,7.199 -1.44,2.161 -2.88,4.313 -3.6,6.481 -0.72,0 -0.72,0 -0.72,0.719 -3.6,2.882 -5.75,7.203 -6.48,11.511 -1.44,4.328 -2.88,10.09 -5.04,15.129 -0.71,2.883 -1.44,6.481 -2.88,9.36 -2.16,8.632 -4.32,12.242 -7.19,15.839 -1.44,1.442 -3.61,2.153 -5.05,3.59 -2.87,0.731 -5.04,1.453 -6.48,2.172 -1.44,1.43 -2.16,2.16 -2.87,2.16 -4.33,3.59 -8.65,7.192 -14.41,9.36 -8.64,4.32 -17.28,8.629 -26.63,12.242 -5.05,1.437 -8.65,2.879 -12.97,3.598 -2.16,1.441 -5.75,2.152 -9.36,2.878 -4.31,1.442 -5.75,2.161 -6.48,2.161 -1.44,0 -3.6,-0.719 -5.04,-2.161 -0.71,-0.726 -1.44,-1.437 -1.44,-1.437 -2.88,-1.441 -5.75,-3.602 -6.48,-6.481 -0.71,0 -1.44,0 -1.44,0 -1.44,2.161 -3.6,4.321 -5.04,5.75 0,0.731 -1.44,1.442 -2.88,1.442 l -0.71,-0.711 c -1.45,0 -1.45,-1.441 -1.45,-2.16 0,0 0,0 0,-0.719 0,-0.723 0,-1.441 0,-2.16 0,0 0,0 0,-0.723 0,-0.719 0,-2.16 0,-4.328 0,0 -0.72,-0.711 -1.44,-1.43 0,0 0,0 -0.72,0 l -0.72,-0.722 c 0,0 0,0 -0.71,0 -0.73,0 -0.73,0 -1.44,-0.719 -1.44,0 -2.89,0 -3.61,-0.719 -2.16,0 -4.31,-1.449 -5.75,-2.89 v 0 c -1.44,0 -1.44,0 -1.44,0 -0.73,-1.442 -0.73,-1.442 -1.45,-2.153 -0.719,-0.726 -0.719,-1.437 -0.719,-2.879 0,0 0,0 0,-0.718 0,-1.442 0.719,-2.879 0.719,-4.321 l -0.719,-0.73 c 0,0 0,-0.711 -0.719,0 -1.437,1.441 -3.597,2.879 -5.039,4.32 -1.437,0.731 -2.879,1.449 -4.32,1.449 v 0 c 0,0 -0.715,0 -0.715,-0.718 0,-0.731 -0.727,-1.442 -0.727,-2.879 0,-0.731 0.727,-2.172 1.442,-3.602 0,-0.719 0,-1.441 0,-2.172 0,-0.707 0,-1.437 -0.715,-2.148 -0.727,-1.442 -0.727,-2.879 -0.727,-3.602 0,-0.718 0,-0.718 0,-0.718 v 0 c 0,-0.719 0,-0.719 0,-1.438 -0.714,-0.723 -1.437,-0.723 -1.437,-1.453 -0.719,-0.707 -1.441,-0.707 -1.441,-0.707 -0.719,0 -1.442,0 -1.442,0 0,0 0,0.707 -0.719,1.437 -1.437,0 -2.879,1.442 -4.32,2.879 -0.719,1.434 -2.879,2.16 -5.039,2.871 v 0 c -0.719,0 -0.719,-0.711 -0.719,-0.711 -0.719,-1.437 -1.437,-2.16 -1.437,-2.878 0,-0.719 -1.442,-1.438 -1.442,-0.719 -1.441,2.16 -2.882,3.597 -3.601,5.75 0,0.73 -0.719,1.437 -1.438,2.168 -3.601,5.043 -6.484,10.793 -9.359,16.562 -0.723,0.719 -1.442,2.16 -2.164,3.59 -1.442,2.168 -3.598,3.609 -5.758,5.77 -2.16,1.441 -2.879,2.879 -3.602,4.32 -0.718,2.879 -2.16,5.039 -2.882,7.187 -0.715,2.172 -2.157,4.332 -2.875,5.774 -0.723,0.719 -1.442,2.148 -1.442,2.879 -1.437,0.711 -1.437,1.437 -2.879,1.437 -2.882,1.442 -6.48,2.16 -10.8,3.602 -1.442,0 -2.883,0 -5.04,0.719 -0.722,0 -1.441,0 -2.164,0 -1.433,0.722 -2.875,0.722 -3.597,0.722 0,0 -0.719,0 -1.442,0 -2.882,0 -5.039,0 -8.636,0 0,0 -1.442,0 -2.164,0 -2.875,0 -5.758,0 -7.918,0.711 -3.602,0 -7.922,0.727 -11.52,0.727 -1.441,0 -2.883,0.711 -5.039,0.711 v 0 c -0.719,0 -1.441,-0.711 -1.441,-1.438 -3.598,-6.48 -7.2,-12.953 -11.52,-17.992 -0.723,-0.719 -1.437,-0.719 -1.437,-0.719 -1.442,0 -2.883,0 -3.602,0 0,0 0,0 -0.723,0 -2.156,0.719 -3.597,2.16 -5.039,3.598 -1.437,1.441 -3.597,2.16 -5.039,2.16 -2.164,0 -3.601,0 -5.761,0 v 0 c -1.442,0 -2.879,0 -3.598,-0.719 -2.164,0 -4.32,-0.73 -5.762,-1.441 -1.441,0 -2.883,0 -3.598,0.711 -3.597,0.73 -7.203,2.89 -10.085,5.051 -6.477,5.039 -13.676,10.789 -19.438,18.711 -1.437,0.73 -2.156,2.168 -2.156,4.328 -0.723,0.718 -0.723,1.441 -0.723,2.879 0,1.441 0,4.32 1.442,5.043 0,1.437 0,1.437 0,2.878 0,1.442 0,2.149 -1.442,3.602 0,1.438 -0.719,3.59 -0.719,5.758 -0.722,2.148 0,4.32 0,5.75 0.719,2.172 2.161,3.609 2.161,5.051 2.878,2.871 5.039,5.75 7.199,8.64 1.441,0.719 2.16,2.16 3.597,2.879 1.442,0 2.161,1.442 3.602,2.149 2.16,2.171 3.602,4.332 5.043,5.773 1.434,2.148 2.875,3.59 4.316,6.477 1.442,1.441 2.879,2.882 5.039,5.031 3.606,2.172 7.204,3.609 10.801,5.769 4.321,2.153 8.645,4.321 12.965,5.762 5.039,1.438 10.078,2.871 15.117,2.871 3.598,0 7.199,0 10.082,0 4.317,-0.711 7.918,-1.433 10.797,-1.433 1.442,0 3.602,0 5.043,-0.719 0.719,0 2.156,-0.719 2.875,-0.719 1.442,0 2.883,0.719 4.32,0.719 3.602,0.719 6.481,0.719 10.079,0.719 3.605,0.722 7.203,1.433 11.527,2.16 2.879,0.711 6.476,1.441 10.074,1.441 2.164,0.711 4.324,1.442 6.481,1.442 4.324,1.437 8.644,2.16 12.961,3.597 1.441,0.711 3.601,1.442 5.042,2.883 1.442,0.707 2.161,1.438 3.598,1.438 1.442,0 3.602,0.718 4.32,2.16 1.442,0.718 2.883,2.152 3.602,3.59 0.719,0.73 2.156,2.171 3.598,2.89 2.164,1.442 3.601,2.879 5.761,3.59 2.161,0 4.321,1.441 7.2,1.441 2.879,0 5.757,0 7.918,-1.441 1.441,0 1.441,0 2.164,0 0.714,0 1.437,0 2.156,0.73 6.478,2.879 12.238,4.321 18.718,6.481 2.16,0.711 4.32,1.437 6.48,2.879 v 0.711 0 c -1.44,4.328 -3.6,7.918 -6.48,10.808 -0.71,0.723 -0.71,0.723 -1.44,0.723 -5.04,4.309 -10.8,7.199 -17.278,7.918 -2.879,0.719 -6.481,0.719 -9.359,1.441 -4.317,0.719 -8.637,0.719 -12.239,1.43 -3.601,0 -7.199,0 -10.082,0.731 -3.597,0.707 -7.195,1.437 -10.801,2.148 -3.597,1.449 -7.918,2.891 -12.234,5.051 -5.762,3.597 -10.801,7.918 -15.84,12.959 -0.722,1.44 -2.164,2.16 -2.883,3.6 -2.164,4.32 -5.043,7.92 -6.476,12.24 -1.442,3.6 -2.883,7.19 -5.047,9.36 0,2.16 -0.719,3.6 -0.719,5.75 0,0 0,0.73 0.719,0.73 0.723,0.72 1.441,0.72 2.883,0.72 0.722,0.72 2.164,0 3.597,-0.72 2.164,-1.44 4.321,-3.61 6.485,-5.04 2.875,-3.61 5.758,-6.49 8.637,-7.92 0.722,-0.72 1.441,-0.72 1.441,-0.72 2.156,0 3.598,1.44 4.32,2.15 0,0.73 0,1.44 0,1.44 0,1.44 0,2.89 -0.722,3.61 -2.157,5.75 -3.598,11.52 -3.598,17.28 -0.719,3.6 -0.719,7.92 0.719,11.52 0.722,0.71 0.722,2.15 0.722,2.88 0,0.72 0.715,2.16 0.715,2.87 0.727,1.44 0.727,2.17 2.164,2.88 0,0.73 0,1.44 0,1.44 0,0.73 0.719,1.45 1.442,2.17 h 0.718 c 1.442,-0.72 2.879,-1.44 4.321,-2.17 0.718,-2.88 1.441,-4.32 2.16,-6.47 0,-5.04 2.879,-9.37 5.762,-13.69 0.714,-0.71 1.437,-1.43 2.156,-1.43 0.722,0 0.722,0 1.441,0.72 0.723,0 2.16,0 2.879,-0.72 2.883,-2.88 4.32,-5.76 5.762,-7.92 1.441,-3.61 2.879,-6.49 4.316,-9.36 2.883,-3.61 5.762,-7.2 8.645,-10.8 0.719,-1.44 2.156,-2.88 4.32,-3.6 7.195,-5.05 15.84,-8.64 24.474,-10.8 1.44,-1.44 4.32,-1.44 7.21,-1.44 v 0 0 c 3.59,0 6.48,0 10.07,0.72 3.6,1.44 6.48,4.32 8.64,8.64 0.72,1.44 1.44,2.88 1.44,5.04 0,2.15 0.72,5.76 0.72,8.63 v 0.73 c 0,2.88 -0.72,5.04 -0.72,7.19 -1.44,1.44 -1.44,3.61 -2.87,5.05 -0.73,2.16 -2.17,5.04 -2.88,7.2 -0.73,2.15 -2.17,5.03 -2.17,7.2 -0.72,2.16 -0.72,5.04 -0.72,7.19 0,2.89 1.44,5.77 3.6,8.65 1.44,0.72 2.17,0.72 3.6,0.72 2.88,-2.16 5.05,-3.6 8.64,-4.33 h 0.72 c 0.72,0 2.17,0 3.61,1.44 3.59,6.48 5.03,12.97 5.03,19.45 0,2.88 0,5.75 -0.72,7.92 -0.72,3.6 -1.43,7.19 -1.43,10.8 0,2.87 0,5.04 0.71,7.2 0,0.72 0.72,2.15 1.44,2.88 0.72,0.71 1.44,1.44 1.44,2.88 0,1.44 0.72,3.6 1.45,5.04 0.71,2.88 2.88,5.76 5.03,7.92 1.44,1.44 1.44,3.6 2.16,5.04 0.73,3.59 0.73,6.47 0.73,9.36 0,0.71 0,1.44 0,1.44 0,3.59 0,7.19 -0.73,10.8 0,3.6 0.73,6.49 2.17,9.37 1.44,1.43 2.87,3.59 4.31,5.03 1.44,0.71 3.61,0 3.61,-1.44 v 0 c 0.71,-5.03 1.44,-10.08 1.44,-15.12 1.43,-3.6 2.87,-7.93 4.31,-11.52 0.73,-2.16 2.17,-3.6 4.32,-4.33 0.72,0 0.72,0 0.72,0 1.44,0 1.44,0 1.44,0 5.76,2.88 10.09,7.92 12.24,13.69 0.73,2.16 1.44,3.59 2.16,5.76 2.16,5.05 2.88,10.08 4.32,14.4 0.73,0.71 1.44,2.16 2.17,3.6 0.71,0 1.44,0 2.15,-0.72 0.72,-0.72 1.44,-0.72 2.16,-2.17 1.44,-2.15 1.44,-5.03 1.44,-7.91 0,-0.71 0,-1.44 0,-2.15 v 0 c 0,-2.89 0,-5.05 -1.44,-6.49 0,-2.16 -0.72,-5.04 -1.44,-6.48 0,-0.73 0,-0.73 0,-1.44 0,-0.73 0,-0.73 0.72,-2.17 0,-0.71 0.72,-2.15 1.44,-3.59 0.72,-1.45 1.45,-2.16 2.89,-2.16 0,0 0.71,0 1.44,-0.73 h 3.59 c 1.45,0 2.89,0.73 4.33,1.44 0.71,0.73 1.43,1.45 2.87,1.45 3.61,2.15 7.2,3.59 10.8,5.03 1.44,0.73 4.32,1.44 6.48,2.17 0.72,0.72 2.17,1.44 3.61,2.87 2.15,2.17 3.59,3.61 5.75,6.49 0,0.72 0.73,2.17 0.73,3.61 0.71,3.59 2.88,6.47 5.75,8.62 2.17,2.89 5.05,6.49 7.2,9.36 2.16,2.17 3.6,4.33 5.04,7.21 0,0.71 0,2.88 0,4.33 0,0 0.73,0 1.44,0.72 0,0 1.44,0 1.44,-0.72 2.16,0 3.6,-2.18 5.04,-3.62 0.73,-2.87 1.44,-5.03 1.44,-7.92 0,-0.71 0,-1.44 0,-1.44 0,-2.87 -1.44,-5.03 -2.88,-6.48 -1.44,-1.44 -2.16,-2.15 -2.16,-3.59 -1.44,-1.44 -2.16,-2.88 -2.88,-5.03 -0.71,-1.44 -0.71,-2.88 -0.71,-4.33 0,-0.72 0,-0.72 0,-2.16 0,0 0,0 0.71,0 v -0.73 c 0,0 0,0 0,0.73 2.88,2.16 5.04,4.33 7.92,6.49 1.44,0 2.16,1.44 3.6,1.44 1.44,0.71 2.17,2.15 3.61,3.59 0,1.44 1.43,1.44 2.15,2.15 0.72,1.44 1.44,2.17 2.88,3.61 1.45,2.16 2.89,4.31 4.33,7.2 0,0 0,0.72 0,1.44 0.71,0.72 1.43,1.44 1.43,2.16 0,0.72 0.72,0.72 1.44,0.72 2.17,0 3.61,-1.44 4.32,-3.6 0.73,-2.17 0.73,-3.61 1.44,-5.76 0,0 0,-0.72 0,-1.44 v -1.44 c -0.71,-2.89 -0.71,-5.04 -2.15,-6.48 -1.44,-2.15 -2.89,-5.03 -4.33,-6.47 -1.44,-2.17 -2.88,-3.61 -4.32,-6.49 -1.44,-1.44 -2.16,-3.6 -2.88,-5.77 -0.72,-2.15 -1.44,-4.32 -1.44,-6.47 0,-1.45 0,-2.16 0,-3.6 0.72,-1.44 2.16,-2.17 3.61,-2.17 h 0.71 c 2.88,0 5.76,0 8.65,1.44 1.44,0 2.87,0.73 5.03,0.73 0.72,0 1.45,-0.73 1.45,-2.17 v 0 0 c 0,-2.15 0,-3.59 -1.45,-5.04 -1.44,-2.15 -3.59,-3.59 -5.03,-5.03 -5.05,-2.16 -9.36,-6.48 -12.25,-10.81 -2.16,-2.88 -3.59,-7.19 -5.76,-10.07 -1.44,-2.16 -2.16,-5.04 -2.88,-7.92 -0.72,-2.88 -2.16,-5.76 -2.87,-9.36 -1.44,-6.48 -2.88,-11.52 -4.33,-17.28 -0.72,-2.88 -1.44,-5.04 -2.88,-7.21 -2.15,-5.04 -5.04,-8.63 -7.92,-12.96 -0.71,-0.71 -0.71,-1.44 -2.15,-2.15 -1.44,-2.88 -3.61,-6.48 -7.21,-9.36 -5.04,-5.04 -10.07,-9.36 -15.11,-13.69 -7.21,-5.03 -13.69,-10.07 -20.89,-14.39 -6.48,-3.6 -12.96,-7.2 -19.44,-10.08 -4.32,-2.88 -9.36,-5.039 -14.4,-7.922 -2.88,-1.437 -7.2,-3.597 -12.24,-5.757 -2.88,-2.161 -5.04,-3.602 -7.19,-5.039 -2.17,-1.442 -4.33,-2.883 -5.77,-5.77 0,-0.711 0,-1.441 0,-2.152 0,-1.442 0,-2.168 0,-2.879 1.44,-3.602 3.6,-7.211 5.04,-10.082 l 6.48,6.48 c 2.17,2.883 4.32,5.039 6.48,7.922 0.73,1.438 2.17,2.16 4.32,3.598 2.88,1.441 5.77,2.883 7.92,4.32 2.16,0.711 4.33,2.16 6.48,2.16 4.32,0 8.65,1.442 12.24,1.442 2.89,0.718 5.77,0 8.64,0 0.72,-0.719 1.44,-1.442 1.44,-2.891 v 0 l -1.44,-6.469 c -0.72,-3.601 -2.16,-7.922 -3.6,-11.519 -0.71,-2.172 -1.44,-3.602 -3.6,-5.043 -2.16,-2.168 -4.32,-4.321 -5.76,-6.481 -1.44,-1.437 -2.88,-2.156 -3.6,-2.879 -0.72,-0.73 -1.44,-0.73 -1.44,-2.168 v 0 c 2.16,0 4.33,0 6.48,0 5.04,0 10.08,0 15.13,0.731 9.36,0 17.99,0.707 27.35,1.437 6.48,0.723 12.25,1.442 18.72,1.442 8.64,1.437 16.56,2.16 25.2,5.039 10.08,1.441 19.44,4.32 29.52,7.191 7.2,2.168 14.41,3.61 21.6,5.77 7.92,2.879 17.28,4.32 25.93,5.031 19.43,1.449 38.16,-0.711 56.15,-7.191 10.8,-4.321 20.16,-8.653 29.52,-13.68 7.92,-4.332 15.12,-8.641 22.32,-12.961 8.64,-4.32 18.72,-7.918 29.53,-10.09 13.67,-2.148 26.64,-2.871 40.31,-4.308 6.49,0 12.96,0 19.44,0 5.05,0 11.52,0 16.57,0 0,0 0,0 0.73,0 10.78,0 21.58,0.718 32.38,2.16 7.21,0 14.4,0.718 21.61,1.437 9.36,1.442 19.44,1.442 29.51,0 15.12,-2.879 30.25,-7.918 44.65,-13.687 12.23,-5.032 24.47,-10.793 36.72,-14.391 23.75,-7.922 43.93,-20.172 60.47,-37.449 3.6,-2.152 6.48,-3.59 10.8,-5.043 4.33,-0.707 8.64,-2.149 12.96,-5.027 8.65,-0.723 15.12,-6.481 19.46,-14.403 l 18.7,-45.367 c 0.72,-2.883 1.44,-5.75 3.61,-8.633 1.44,-2.879 2.15,-6.48 2.15,-10.801 0,-3.597 -3.6,-7.207 -7.19,-7.918 -6.49,1.442 -11.53,4.321 -16.56,7.918 -2.89,1.442 -6.49,3.59 -8.64,6.481 -0.73,0 -0.73,0 -0.73,0 v 0 c -0.71,-0.719 -0.71,-1.438 -0.71,-2.16 0,-5.758 -0.73,-10.797 -0.73,-15.84 0,-2.168 0.73,-5.047 0.73,-7.918 0,-0.723 0,-0.723 0,-1.441 0,-4.321 -1.44,-9.36 -2.89,-13.68 l -11.52,-29.531 c -2.16,-4.309 -3.6,-8.629 -5.03,-13.668 0,-3.61 -0.72,-5.762 -0.72,-8.653 0,-0.707 0,-0.707 0,-2.148 0,-3.602 1.44,-7.918 2.88,-12.238 0.71,-2.891 1.44,-6.481 1.44,-10.082 0,0 0,0 0,-0.731 0,-3.59 1.43,-7.187 2.87,-9.359 1.44,-0.711 1.44,-2.149 2.16,-2.871 0,-0.719 0,-1.438 0.72,-1.438 0.73,-1.441 1.44,-2.172 2.17,-2.172 8.63,-10.801 17.29,-19.429 25.2,-29.508 0.71,0 2.87,-2.16 3.59,-4.32 2.16,-2.172 5.05,-4.32 7.92,-6.48 17.28,-10.09 34.57,-18.719 52.56,-26.641 2.89,-0.73 6.48,-1.441 10.09,-1.441 4.31,0 9.36,-2.161 12.23,-5.77 0.73,-1.437 2.17,-4.309 2.17,-7.187 v 0 c 0.71,-9.364 2.15,-18.012 5.03,-26.641 0.72,-7.211 2.16,-14.402 3.61,-20.879 1.43,-4.32 1.43,-9.363 1.43,-14.41 0,-0.711 0,-1.434 0,-2.152 2.16,-15.84 5.77,-30.961 10.8,-46.079 2.9,-8.652 5.77,-17.281 7.92,-25.203 0.72,-2.156 2.16,-4.328 4.33,-7.207 3.59,-2.871 5.03,-7.191 6.48,-11.511 1.44,-1.438 2.88,-4.329 5.03,-5.04 1.44,-0.73 2.16,-1.441 2.16,-2.878 0,-1.442 -0.72,-2.891 -2.88,-2.891 -2.16,-0.711 -4.31,-0.711 -6.48,-2.152 -1.44,-0.727 -2.87,-2.161 -2.87,-2.879 0,-2.16 2.15,-3.598 3.59,-3.598 0.73,0 1.45,0 1.45,0 1.44,0.707 3.59,1.438 5.03,2.156 6.48,2.883 13.69,0 15.84,-5.758 0.72,-1.441 0.72,-1.441 0.72,-2.878 5.76,-13.68 10.8,-26.641 15.85,-41.043 l 5.04,-11.528 c 1.44,-2.152 1.44,-4.312 1.44,-6.48 v 0 c 0,0 0,0 0,-0.711 0,-0.731 -0.72,-1.442 -1.44,-1.442 v 0 c -6.49,0.711 -12.95,2.153 -18.73,5.043 -2.16,0.719 -4.32,2.149 -7.2,2.149 -1.43,0.73 -2.15,0.73 -3.6,1.441 -1.44,0.731 -2.88,2.168 -4.32,2.879 -0.71,0 -0.71,0 -2.16,0 0,0 -0.72,0 -1.44,0 -1.44,-0.711 -2.15,-0.711 -3.59,0 -2.89,0 -5.05,1.449 -6.48,2.891 -2.88,2.148 -5.05,5.031 -7.92,7.918 -1.44,2.883 -3.61,5.031 -6.49,7.203 -4.31,2.867 -7.92,6.476 -12.23,10.078 -2.17,1.441 -3.61,2.879 -4.33,5.039 -1.44,2.16 -2.88,3.602 -5.03,5.031 -6.48,9.36 -8.65,20.168 -8.65,31.68 v 0 c 0,4.332 -0.72,8.648 -1.44,12.969 -1.44,7.191 -3.6,15.84 -5.04,23.031 -3.59,16.57 -7.92,30.969 -12.96,46.082 -3.59,9.359 -8.64,16.566 -15.12,23.758 -5.04,4.32 -10.08,10.09 -16.56,15.129 -0.72,0.722 -1.44,0.722 -1.44,1.441 -1.44,0.711 -2.87,0.711 -3.58,2.149 -2.9,1.441 -6.49,2.171 -9.38,3.613 -2.16,0 -5.02,1.437 -7.91,2.867 -7.21,2.172 -15.13,5.051 -22.32,8.652 -13.69,7.918 -25.93,16.551 -37.45,26.641 -5.03,5.039 -10.07,9.359 -15.12,13.668 -3.6,2.879 -6.48,4.332 -10.08,6.488 -10.8,5.043 -20.87,10.793 -30.96,18 -9.36,7.203 -17.28,14.403 -25.92,22.321 0,0 0,0 -0.72,0 v 0 c -1.43,-0.719 -1.43,-1.438 -2.87,-1.438 -2.89,-2.16 -7.92,-6.48 -12.97,-10.082 -5.76,-8.648 -9.35,-18.719 -12.96,-28.801 0,-2.156 0,-3.609 0,-5.047 0,-1.441 0,-2.871 0,-3.589 2.17,-17.282 6.48,-34.563 12.96,-51.122 4.32,-9.359 7.92,-18.718 13.68,-28.082 2.88,-3.597 4.32,-8.648 5.77,-12.957 0,-0.73 0,-2.171 0,-2.882 0,-2.161 0,-4.321 -2.17,-6.477 -1.44,-3.602 -5.03,-6.48 -8.64,-7.922 -2.15,-1.441 -3.59,-3.601 -4.32,-5.762 -2.16,-3.597 -4.32,-5.757 -6.48,-7.918 -5.76,-7.199 -12.24,-12.96 -17.99,-18.73 -1.44,-1.441 -1.44,-1.441 -2.89,-2.148 -1.44,-1.442 -2.88,-2.883 -4.32,-4.321 -4.32,-4.332 -7.92,-9.371 -12.24,-14.402 v 0" /><path
         id="path3926"
         style="fill:none;stroke:#231f20;stroke-width:2.1500001;stroke-linecap:butt;stroke-linejoin:miter;stroke-miterlimit:4;stroke-dasharray:none;stroke-opacity:1"
         d="m 1564.91,425.879 c -5.04,-7.207 -10.8,-15.84 -16.56,-23.758 -3.59,-5.039 -7.91,-10.082 -10.8,-15.84 -5.04,-7.922 -8.63,-17.281 -10.79,-26.64 -1.44,-5.039 -2.89,-8.641 -6.49,-12.25 -0.71,-1.442 -1.44,-2.879 -1.44,-3.59 -0.71,-0.719 -1.44,-1.442 -1.44,-2.891 h 0.73 c 0,-2.148 -0.73,-3.59 -1.45,-5.031 0,-0.719 -2.16,-0.719 -2.88,0 -1.44,1.441 -2.14,2.152 -2.87,3.59 -0.71,1.441 -2.17,3.613 -2.89,5.043 -0.72,0.726 -1.44,1.437 -2.87,1.437 0,0.731 0,0.731 -0.73,0.731 -1.44,0 -2.15,-0.731 -2.15,-2.168 0,-0.711 0,-1.43 0,-2.153 v 0 c 0,-0.718 0,-1.449 0,-2.16 0.71,-1.437 1.44,-2.168 2.15,-3.609 0.73,0 0.73,-1.43 0.73,-2.149 0,-0.722 0,-1.453 0,-2.16 -1.44,-3.609 -4.33,-7.199 -7.21,-10.09 -1.43,-0.711 -2.14,-2.152 -3.59,-2.152 h -39.6 l -33.84,0.711 c -1.45,0.73 -2.17,2.172 -1.45,3.609 3.61,4.313 7.2,8.629 10.8,12.961 2.88,3.59 6.49,7.192 10.08,10.071 0.72,1.441 2.16,2.168 2.88,2.89 1.44,1.438 2.17,3.59 2.88,4.321 0,2.878 1.44,4.32 2.88,5.039 2.89,2.879 6.48,5.031 10.08,6.48 0.72,0 2.17,0 2.88,0.719 2.89,2.16 5.05,4.308 7.21,7.199 1.44,0.723 1.44,2.16 2.15,2.883 0.73,3.59 2.88,6.476 5.77,9.359 2.15,2.879 5.75,5.758 9.36,7.918 4.31,2.883 7.92,6.481 11.51,10.801 7.21,9.359 14.4,18.719 20.88,28.082 4.32,5.039 7.21,11.52 10.8,16.559 2.88,3.589 5.04,8.64 7.92,12.238 2.89,6.48 5.04,12.961 5.04,19.441 0,12.95 0.73,24.481 1.44,34.559 0,2.883 -1.44,6.48 -3.59,10.07 -3.6,7.922 -8.65,16.571 -13.68,25.93 -5.05,7.922 -8.64,15.84 -10.81,24.473 -0.72,3.609 -2.16,7.207 -3.6,11.527 -1.43,7.203 -2.14,12.961 -3.6,18.711 -2.16,11.531 -5.76,22.332 -10.8,33.129 -2.14,6.48 -3.59,12.23 -3.59,19.441 0,0.711 0,1.442 0,2.879 0,1.441 0,3.602 0,5.043 -5.77,-1.441 -12.25,-3.602 -17.28,-6.48 -5.77,-2.883 -11.51,-5.043 -17.29,-6.481 -7.2,-2.883 -13.68,-4.32 -21.6,-5.762 -2.15,0 -4.32,0 -6.48,0 -5.76,-0.718 -11.5,-0.718 -17.28,-0.718 0,0 0,0 -1.44,0 -6.48,0 -12.96,0 -19.44,-0.719 -3.59,0 -8.64,0 -12.95,-0.723 -3.61,0 -7.92,0 -12.25,0 -2.16,-11.527 -3.59,-23.039 -3.59,-34.558 -2.17,-8.653 -2.88,-16.559 -3.61,-24.481 -0.72,-4.328 -1.44,-12.25 -2.16,-20.168 -0.72,-10.793 -1.44,-18.711 -1.44,-26.633 0,-3.609 0,-7.918 0.72,-11.527 0.72,-7.922 0.72,-15.844 2.16,-23.031 1.45,-7.922 2.16,-14.403 2.16,-21.602 0,0 0,-0.719 0,-1.437 0,-3.602 0,-7.203 -2.16,-10.813 -1.44,-3.59 -2.16,-7.187 -2.16,-10.801 0,-1.429 0,-1.429 0,-2.867 0.72,-6.492 1.44,-12.972 2.16,-18.722 0.72,-7.2 2.16,-14.399 3.6,-22.321 2.16,-9.359 4.32,-18.718 7.21,-28.078 2.15,-7.922 4.31,-15.121 5.75,-23.039 0.72,-2.16 0.72,-5.039 0.72,-7.199 0,-1.442 0,-2.883 0,-4.32 -1.44,-2.161 -2.16,-5.77 -2.16,-8.653 v 0 0 c 0,-2.148 -1.43,-3.59 -3.6,-3.59 0,0 -0.71,0 -1.44,0.723 -2.16,2.156 -4.32,4.309 -7.19,6.477 -0.73,1.441 -0.73,1.441 -2.17,1.441 -0.72,0 -2.16,0 -2.16,-1.441 -0.72,-0.727 -1.44,-2.168 -1.44,-3.61 0,0 0,-1.437 0.72,-1.437 0.72,-2.871 1.44,-5.043 2.16,-7.922 0,0 0,-0.711 0,-1.43 0,-7.922 -5.76,-14.41 -14.39,-15.121 h -63.36 c -1.44,0 -2.17,1.441 -2.17,2.883 0,0.707 0,1.437 0.73,1.437 5.03,7.922 11.51,15.84 18.72,21.59 1.43,6.492 6.48,12.973 12.96,13.692 2.88,3.589 5.03,6.48 7.91,10.078 0.72,1.429 0.72,2.16 0.72,2.871 0,0.73 0,0.73 0,1.449 0,5.031 1.44,10.082 3.61,14.391 0.71,3.609 2.15,7.211 2.87,11.531 0,1.437 0.72,3.598 0.72,5.039 0,0.711 -0.72,2.16 -0.72,3.602 0,11.507 -1.44,24.48 -4.31,36 -1.44,10.07 -5.05,20.16 -10.8,28.796 -3.61,10.801 -5.04,22.313 -2.89,33.84 0,1.434 0,2.16 0,3.602 0,10.07 -2.15,20.879 -5.03,30.949 -1.45,7.211 -3.61,14.41 -5.77,22.332 -2.15,4.309 -2.88,9.359 -3.6,14.399 -3.59,11.519 -7.2,23.031 -9.36,34.562 0,4.309 -1.44,7.918 -1.44,11.52 -0.71,-0.731 -2.15,-1.442 -2.88,-1.442 -5.76,-2.16 -10.8,-5.039 -15.84,-8.648 -5.76,-3.602 -10.8,-7.192 -15.84,-10.793 -6.48,-5.047 -13.68,-9.36 -20.88,-13.68 -3.59,-1.437 -17.28,-7.918 -30.23,-15.129 -20.17,-10.789 -28.09,-15.109 -34.57,-20.871 -3.59,-2.16 -5.76,-5.039 -7.92,-7.918 0,-0.723 -0.72,-2.16 -2.16,-3.601 -4.31,-5.77 -8.64,-11.52 -12.23,-18.008 -5.77,-7.922 -10.09,-17.274 -11.53,-26.633 -0.72,-8.641 -3.6,-17.277 -5.04,-25.93 -0.71,-3.59 -1.44,-7.91 -1.44,-11.508 0,-4.32 0.73,-8.652 1.44,-12.242 1.44,-6.48 2.88,-12.961 2.88,-20.168 0,-1.441 0,-3.59 1.44,-4.312 0,-1.438 0.72,-2.168 0.72,-2.879 0,-0.731 0,-0.731 -0.72,-1.442 -0.72,-1.437 -2.88,-2.16 -3.59,-2.16 -1.44,0.723 -4.33,1.434 -6.48,1.434 v 0.726 c -2.17,0 -3.61,-2.16 -3.61,-3.597 0,-0.719 0,-0.719 0,-1.442 0.73,-1.437 2.17,-2.168 3.61,-2.168 v 0 c 2.87,0 5.75,-0.711 7.92,-1.441 6.48,-1.43 10.79,-7.191 10.79,-13.668 0,-2.883 -0.72,-5.043 -1.43,-7.211 -8.65,-18.723 -18.72,-37.43 -30.25,-56.152 -0.72,-1.438 -2.16,-1.438 -3.6,-0.731 l -12.24,32.41 c -0.72,0.723 -1.44,2.161 -2.16,2.883 -1.44,2.16 -2.88,4.309 -3.59,6.481 v 0.718 5.758 c 0,5.754 -1.44,12.242 -3.61,18 0.72,-2.156 -1.44,1.442 -2.87,5.762 -3.61,10.082 -3.61,13.672 -3.61,16.551 0,3.609 0.73,7.211 1.44,11.531 0.73,2.867 1.44,5.75 2.17,8.637 2.87,5.031 5.04,10.07 7.19,14.402 0.73,0.719 1.44,2.16 1.44,4.32 0.72,2.149 1.44,5.039 2.16,7.918 0.72,4.321 2.17,8.633 3.61,12.961 0.71,2.16 0.71,4.321 0.71,6.469 0.73,1.449 1.44,3.609 2.16,6.481 0.72,3.609 1.44,7.921 2.16,11.531 0,0.719 0,2.16 0,2.871 0.72,1.437 0.72,2.168 0.72,3.609 0.72,2.16 0.72,5.75 0.72,8.629 0,0.731 0,1.449 0,2.172 0,4.309 -0.72,7.918 -1.44,12.227 0,2.171 0,4.332 0,6.48 0,3.609 0,7.211 1.44,10.801 1.45,4.332 2.89,8.648 4.33,12.969 2.15,4.312 3.59,7.921 5.75,11.523 0.73,1.438 2.17,2.879 3.6,4.316 1.44,1.434 2.88,2.161 4.32,2.161 1.44,1.441 2.88,2.882 3.6,2.882 7.2,5.039 12.97,10.797 18.72,15.84 7.92,6.481 14.4,13.668 20.89,20.16 4.31,5.039 7.92,10.079 11.51,15.118 2.16,2.16 3.6,4.32 5.76,6.48 3.61,4.32 7.2,7.91 12.24,11.52 2.88,2.16 5.76,4.312 8.65,6.48 l 1.44,1.441 c -6.48,2.872 -12.25,7.2 -16.57,12.231 -2.88,3.609 -6.48,7.211 -9.36,10.809 -3.6,4.32 -7.19,8.64 -10.08,13.679 -1.44,2.883 -2.88,5.039 -5.03,7.192 -1.44,1.441 -2.17,4.328 -2.89,5.769 -1.44,2.879 -2.88,5.039 -4.32,7.199 -1.44,2.161 -2.88,4.313 -3.6,6.481 -0.72,0 -0.72,0 -0.72,0.719 -3.6,2.882 -5.75,7.203 -6.48,11.511 -1.44,4.328 -2.88,10.09 -5.04,15.129 -0.71,2.883 -1.44,6.481 -2.88,9.36 -2.16,8.632 -4.32,12.242 -7.19,15.839 -1.44,1.442 -3.61,2.153 -5.05,3.59 -2.87,0.731 -5.04,1.453 -6.48,2.172 -1.44,1.43 -2.16,2.16 -2.87,2.16 -4.33,3.59 -8.65,7.192 -14.41,9.36 -8.64,4.32 -17.28,8.629 -26.63,12.242 -5.05,1.437 -8.65,2.879 -12.97,3.598 -2.16,1.441 -5.75,2.152 -9.36,2.878 -4.31,1.442 -5.75,2.161 -6.48,2.161 -1.44,0 -3.6,-0.719 -5.04,-2.161 -0.71,-0.726 -1.44,-1.437 -1.44,-1.437 -2.88,-1.441 -5.75,-3.602 -6.48,-6.481 -0.71,0 -1.44,0 -1.44,0 -1.44,2.161 -3.6,4.321 -5.04,5.75 0,0.731 -1.44,1.442 -2.88,1.442 l -0.71,-0.711 c -1.45,0 -1.45,-1.441 -1.45,-2.16 0,0 0,0 0,-0.719 0,-0.723 0,-1.441 0,-2.16 0,0 0,0 0,-0.723 0,-0.719 0,-2.16 0,-4.328 0,0 -0.72,-0.711 -1.44,-1.43 0,0 0,0 -0.72,0 l -0.72,-0.722 c 0,0 0,0 -0.71,0 -0.73,0 -0.73,0 -1.44,-0.719 -1.44,0 -2.89,0 -3.61,-0.719 -2.16,0 -4.31,-1.449 -5.75,-2.89 v 0 c -1.44,0 -1.44,0 -1.44,0 -0.73,-1.442 -0.73,-1.442 -1.45,-2.153 -0.719,-0.726 -0.719,-1.437 -0.719,-2.879 0,0 0,0 0,-0.718 0,-1.442 0.719,-2.879 0.719,-4.321 l -0.719,-0.73 c 0,0 0,-0.711 -0.719,0 -1.437,1.441 -3.597,2.879 -5.039,4.32 -1.437,0.731 -2.879,1.449 -4.32,1.449 v 0 c 0,0 -0.715,0 -0.715,-0.718 0,-0.731 -0.727,-1.442 -0.727,-2.879 0,-0.731 0.727,-2.172 1.442,-3.602 0,-0.719 0,-1.441 0,-2.172 0,-0.707 0,-1.437 -0.715,-2.148 -0.727,-1.442 -0.727,-2.879 -0.727,-3.602 0,-0.718 0,-0.718 0,-0.718 v 0 c 0,-0.719 0,-0.719 0,-1.438 -0.714,-0.723 -1.437,-0.723 -1.437,-1.453 -0.719,-0.707 -1.441,-0.707 -1.441,-0.707 -0.719,0 -1.442,0 -1.442,0 0,0 0,0.707 -0.719,1.437 -1.437,0 -2.879,1.442 -4.32,2.879 -0.719,1.434 -2.879,2.16 -5.039,2.871 v 0 c -0.719,0 -0.719,-0.711 -0.719,-0.711 -0.719,-1.437 -1.437,-2.16 -1.437,-2.878 0,-0.719 -1.442,-1.438 -1.442,-0.719 -1.441,2.16 -2.882,3.597 -3.601,5.75 0,0.73 -0.719,1.437 -1.438,2.168 -3.601,5.043 -6.484,10.793 -9.359,16.562 -0.723,0.719 -1.442,2.16 -2.164,3.59 -1.442,2.168 -3.598,3.609 -5.758,5.77 -2.16,1.441 -2.879,2.879 -3.602,4.32 -0.718,2.879 -2.16,5.039 -2.882,7.187 -0.715,2.172 -2.157,4.332 -2.875,5.774 -0.723,0.719 -1.442,2.148 -1.442,2.879 -1.437,0.711 -1.437,1.437 -2.879,1.437 -2.882,1.442 -6.48,2.16 -10.8,3.602 -1.442,0 -2.883,0 -5.04,0.719 -0.722,0 -1.441,0 -2.164,0 -1.433,0.722 -2.875,0.722 -3.597,0.722 0,0 -0.719,0 -1.442,0 -2.882,0 -5.039,0 -8.636,0 0,0 -1.442,0 -2.164,0 -2.875,0 -5.758,0 -7.918,0.711 -3.602,0 -7.922,0.727 -11.52,0.727 -1.441,0 -2.883,0.711 -5.039,0.711 v 0 c -0.719,0 -1.441,-0.711 -1.441,-1.438 -3.598,-6.48 -7.2,-12.953 -11.52,-17.992 -0.723,-0.719 -1.437,-0.719 -1.437,-0.719 -1.442,0 -2.883,0 -3.602,0 0,0 0,0 -0.723,0 -2.156,0.719 -3.597,2.16 -5.039,3.598 -1.437,1.441 -3.597,2.16 -5.039,2.16 -2.164,0 -3.601,0 -5.761,0 v 0 c -1.442,0 -2.879,0 -3.598,-0.719 -2.164,0 -4.32,-0.73 -5.762,-1.441 -1.441,0 -2.883,0 -3.598,0.711 -3.597,0.73 -7.203,2.89 -10.085,5.051 -6.477,5.039 -13.676,10.789 -19.438,18.711 -1.437,0.73 -2.156,2.168 -2.156,4.328 -0.723,0.718 -0.723,1.441 -0.723,2.879 0,1.441 0,4.32 1.442,5.043 0,1.437 0,1.437 0,2.878 0,1.442 0,2.149 -1.442,3.602 0,1.438 -0.719,3.59 -0.719,5.758 -0.722,2.148 0,4.32 0,5.75 0.719,2.172 2.161,3.609 2.161,5.051 2.878,2.871 5.039,5.75 7.199,8.64 1.441,0.719 2.16,2.16 3.597,2.879 1.442,0 2.161,1.442 3.602,2.149 2.16,2.171 3.602,4.332 5.043,5.773 1.434,2.148 2.875,3.59 4.316,6.477 1.442,1.441 2.879,2.882 5.039,5.031 3.606,2.172 7.204,3.609 10.801,5.769 4.321,2.153 8.645,4.321 12.965,5.762 5.039,1.438 10.078,2.871 15.117,2.871 3.598,0 7.199,0 10.082,0 4.317,-0.711 7.918,-1.433 10.797,-1.433 1.442,0 3.602,0 5.043,-0.719 0.719,0 2.156,-0.719 2.875,-0.719 1.442,0 2.883,0.719 4.32,0.719 3.602,0.719 6.481,0.719 10.079,0.719 3.605,0.722 7.203,1.433 11.527,2.16 2.879,0.711 6.476,1.441 10.074,1.441 2.164,0.711 4.324,1.442 6.481,1.442 4.324,1.437 8.644,2.16 12.961,3.597 1.441,0.711 3.601,1.442 5.042,2.883 1.442,0.707 2.161,1.438 3.598,1.438 1.442,0 3.602,0.718 4.32,2.16 1.442,0.718 2.883,2.152 3.602,3.59 0.719,0.73 2.156,2.171 3.598,2.89 2.164,1.442 3.601,2.879 5.761,3.59 2.161,0 4.321,1.441 7.2,1.441 2.879,0 5.757,0 7.918,-1.441 1.441,0 1.441,0 2.164,0 0.714,0 1.437,0 2.156,0.73 6.478,2.879 12.238,4.321 18.718,6.481 2.16,0.711 4.32,1.437 6.48,2.879 v 0.711 0 c -1.44,4.328 -3.6,7.918 -6.48,10.808 -0.71,0.723 -0.71,0.723 -1.44,0.723 -5.04,4.309 -10.8,7.199 -17.278,7.918 -2.879,0.719 -6.481,0.719 -9.359,1.441 -4.317,0.719 -8.637,0.719 -12.239,1.43 -3.601,0 -7.199,0 -10.082,0.731 -3.597,0.707 -7.195,1.437 -10.801,2.148 -3.597,1.449 -7.918,2.891 -12.234,5.051 -5.762,3.597 -10.801,7.918 -15.84,12.959 -0.722,1.44 -2.164,2.16 -2.883,3.6 -2.164,4.32 -5.043,7.92 -6.476,12.24 -1.442,3.6 -2.883,7.19 -5.047,9.36 0,2.16 -0.719,3.6 -0.719,5.75 0,0 0,0.73 0.719,0.73 0.723,0.72 1.441,0.72 2.883,0.72 0.722,0.72 2.164,0 3.597,-0.72 2.164,-1.44 4.321,-3.61 6.485,-5.04 2.875,-3.61 5.758,-6.49 8.637,-7.92 0.722,-0.72 1.441,-0.72 1.441,-0.72 2.156,0 3.598,1.44 4.32,2.15 0,0.73 0,1.44 0,1.44 0,1.44 0,2.89 -0.722,3.61 -2.157,5.75 -3.598,11.52 -3.598,17.28 -0.719,3.6 -0.719,7.92 0.719,11.52 0.722,0.71 0.722,2.15 0.722,2.88 0,0.72 0.715,2.16 0.715,2.87 0.727,1.44 0.727,2.17 2.164,2.88 0,0.73 0,1.44 0,1.44 0,0.73 0.719,1.45 1.442,2.17 h 0.718 c 1.442,-0.72 2.879,-1.44 4.321,-2.17 0.718,-2.88 1.441,-4.32 2.16,-6.47 0,-5.04 2.879,-9.37 5.762,-13.69 0.714,-0.71 1.437,-1.43 2.156,-1.43 0.722,0 0.722,0 1.441,0.72 0.723,0 2.16,0 2.879,-0.72 2.883,-2.88 4.32,-5.76 5.762,-7.92 1.441,-3.61 2.879,-6.49 4.316,-9.36 2.883,-3.61 5.762,-7.2 8.645,-10.8 0.719,-1.44 2.156,-2.88 4.32,-3.6 7.195,-5.05 15.84,-8.64 24.474,-10.8 1.44,-1.44 4.32,-1.44 7.21,-1.44 v 0 0 c 3.59,0 6.48,0 10.07,0.72 3.6,1.44 6.48,4.32 8.64,8.64 0.72,1.44 1.44,2.88 1.44,5.04 0,2.15 0.72,5.76 0.72,8.63 v 0.73 c 0,2.88 -0.72,5.04 -0.72,7.19 -1.44,1.44 -1.44,3.61 -2.87,5.05 -0.73,2.16 -2.17,5.04 -2.88,7.2 -0.73,2.15 -2.17,5.03 -2.17,7.2 -0.72,2.16 -0.72,5.04 -0.72,7.19 0,2.89 1.44,5.77 3.6,8.65 1.44,0.72 2.17,0.72 3.6,0.72 2.88,-2.16 5.05,-3.6 8.64,-4.33 h 0.72 c 0.72,0 2.17,0 3.61,1.44 3.59,6.48 5.03,12.97 5.03,19.45 0,2.88 0,5.75 -0.72,7.92 -0.72,3.6 -1.43,7.19 -1.43,10.8 0,2.87 0,5.04 0.71,7.2 0,0.72 0.72,2.15 1.44,2.88 0.72,0.71 1.44,1.44 1.44,2.88 0,1.44 0.72,3.6 1.45,5.04 0.71,2.88 2.88,5.76 5.03,7.92 1.44,1.44 1.44,3.6 2.16,5.04 0.73,3.59 0.73,6.47 0.73,9.36 0,0.71 0,1.44 0,1.44 0,3.59 0,7.19 -0.73,10.8 0,3.6 0.73,6.49 2.17,9.37 1.44,1.43 2.87,3.59 4.31,5.03 1.44,0.71 3.61,0 3.61,-1.44 v 0 c 0.71,-5.03 1.44,-10.08 1.44,-15.12 1.43,-3.6 2.87,-7.93 4.31,-11.52 0.73,-2.16 2.17,-3.6 4.32,-4.33 0.72,0 0.72,0 0.72,0 1.44,0 1.44,0 1.44,0 5.76,2.88 10.09,7.92 12.24,13.69 0.73,2.16 1.44,3.59 2.16,5.76 2.16,5.05 2.88,10.08 4.32,14.4 0.73,0.71 1.44,2.16 2.17,3.6 0.71,0 1.44,0 2.15,-0.72 0.72,-0.72 1.44,-0.72 2.16,-2.17 1.44,-2.15 1.44,-5.03 1.44,-7.91 0,-0.71 0,-1.44 0,-2.15 v 0 c 0,-2.89 0,-5.05 -1.44,-6.49 0,-2.16 -0.72,-5.04 -1.44,-6.48 0,-0.73 0,-0.73 0,-1.44 0,-0.73 0,-0.73 0.72,-2.17 0,-0.71 0.72,-2.15 1.44,-3.59 0.72,-1.45 1.45,-2.16 2.89,-2.16 0,0 0.71,0 1.44,-0.73 h 3.59 c 1.45,0 2.89,0.73 4.33,1.44 0.71,0.73 1.43,1.45 2.87,1.45 3.61,2.15 7.2,3.59 10.8,5.03 1.44,0.73 4.32,1.44 6.48,2.17 0.72,0.72 2.17,1.44 3.61,2.87 2.15,2.17 3.59,3.61 5.75,6.49 0,0.72 0.73,2.17 0.73,3.61 0.71,3.59 2.88,6.47 5.75,8.62 2.17,2.89 5.05,6.49 7.2,9.36 2.16,2.17 3.6,4.33 5.04,7.21 0,0.71 0,2.88 0,4.33 0,0 0.73,0 1.44,0.72 0,0 1.44,0 1.44,-0.72 2.16,0 3.6,-2.18 5.04,-3.62 0.73,-2.87 1.44,-5.03 1.44,-7.92 0,-0.71 0,-1.44 0,-1.44 0,-2.87 -1.44,-5.03 -2.88,-6.48 -1.44,-1.44 -2.16,-2.15 -2.16,-3.59 -1.44,-1.44 -2.16,-2.88 -2.88,-5.03 -0.71,-1.44 -0.71,-2.88 -0.71,-4.33 0,-0.72 0,-0.72 0,-2.16 0,0 0,0 0.71,0 v -0.73 c 0,0 0,0 0,0.73 2.88,2.16 5.04,4.33 7.92,6.49 1.44,0 2.16,1.44 3.6,1.44 1.44,0.71 2.17,2.15 3.61,3.59 0,1.44 1.43,1.44 2.15,2.15 0.72,1.44 1.44,2.17 2.88,3.61 1.45,2.16 2.89,4.31 4.33,7.2 0,0 0,0.72 0,1.44 0.71,0.72 1.43,1.44 1.43,2.16 0,0.72 0.72,0.72 1.44,0.72 2.17,0 3.61,-1.44 4.32,-3.6 0.73,-2.17 0.73,-3.61 1.44,-5.76 0,0 0,-0.72 0,-1.44 v -1.44 c -0.71,-2.89 -0.71,-5.04 -2.15,-6.48 -1.44,-2.15 -2.89,-5.03 -4.33,-6.47 -1.44,-2.17 -2.88,-3.61 -4.32,-6.49 -1.44,-1.44 -2.16,-3.6 -2.88,-5.77 -0.72,-2.15 -1.44,-4.32 -1.44,-6.47 0,-1.45 0,-2.16 0,-3.6 0.72,-1.44 2.16,-2.17 3.61,-2.17 h 0.71 c 2.88,0 5.76,0 8.65,1.44 1.44,0 2.87,0.73 5.03,0.73 0.72,0 1.45,-0.73 1.45,-2.17 v 0 0 c 0,-2.15 0,-3.59 -1.45,-5.04 -1.44,-2.15 -3.59,-3.59 -5.03,-5.03 -5.05,-2.16 -9.36,-6.48 -12.25,-10.81 -2.16,-2.88 -3.59,-7.19 -5.76,-10.07 -1.44,-2.16 -2.16,-5.04 -2.88,-7.92 -0.72,-2.88 -2.16,-5.76 -2.87,-9.36 -1.44,-6.48 -2.88,-11.52 -4.33,-17.28 -0.72,-2.88 -1.44,-5.04 -2.88,-7.21 -2.15,-5.04 -5.04,-8.63 -7.92,-12.96 -0.71,-0.71 -0.71,-1.44 -2.15,-2.15 -1.44,-2.88 -3.61,-6.48 -7.21,-9.36 -5.04,-5.04 -10.07,-9.36 -15.11,-13.69 -7.21,-5.03 -13.69,-10.07 -20.89,-14.39 -6.48,-3.6 -12.96,-7.2 -19.44,-10.08 -4.32,-2.88 -9.36,-5.039 -14.4,-7.922 -2.88,-1.437 -7.2,-3.597 -12.24,-5.757 -2.88,-2.161 -5.04,-3.602 -7.19,-5.039 -2.17,-1.442 -4.33,-2.883 -5.77,-5.77 0,-0.711 0,-1.441 0,-2.152 0,-1.442 0,-2.168 0,-2.879 1.44,-3.602 3.6,-7.211 5.04,-10.082 l 6.48,6.48 c 2.17,2.883 4.32,5.039 6.48,7.922 0.73,1.438 2.17,2.16 4.32,3.598 2.88,1.441 5.77,2.883 7.92,4.32 2.16,0.711 4.33,2.16 6.48,2.16 4.32,0 8.65,1.442 12.24,1.442 2.89,0.718 5.77,0 8.64,0 0.72,-0.719 1.44,-1.442 1.44,-2.891 v 0 l -1.44,-6.469 c -0.72,-3.601 -2.16,-7.922 -3.6,-11.519 -0.71,-2.172 -1.44,-3.602 -3.6,-5.043 -2.16,-2.168 -4.32,-4.321 -5.76,-6.481 -1.44,-1.437 -2.88,-2.156 -3.6,-2.879 -0.72,-0.73 -1.44,-0.73 -1.44,-2.168 v 0 c 2.16,0 4.33,0 6.48,0 5.04,0 10.08,0 15.13,0.731 9.36,0 17.99,0.707 27.35,1.437 6.48,0.723 12.25,1.442 18.72,1.442 8.64,1.437 16.56,2.16 25.2,5.039 10.08,1.441 19.44,4.32 29.52,7.191 7.2,2.168 14.41,3.61 21.6,5.77 7.92,2.879 17.28,4.32 25.93,5.031 19.43,1.449 38.16,-0.711 56.15,-7.191 10.8,-4.321 20.16,-8.653 29.52,-13.68 7.92,-4.332 15.12,-8.641 22.32,-12.961 8.64,-4.32 18.72,-7.918 29.53,-10.09 13.67,-2.148 26.64,-2.871 40.31,-4.308 6.49,0 12.96,0 19.44,0 5.05,0 11.52,0 16.57,0 0,0 0,0 0.73,0 10.78,0 21.58,0.718 32.38,2.16 7.21,0 14.4,0.718 21.61,1.437 9.36,1.442 19.44,1.442 29.51,0 15.12,-2.879 30.25,-7.918 44.65,-13.687 12.23,-5.032 24.47,-10.793 36.72,-14.391 23.75,-7.922 43.93,-20.172 60.47,-37.449 3.6,-2.152 6.48,-3.59 10.8,-5.043 4.33,-0.707 8.64,-2.149 12.96,-5.027 8.65,-0.723 15.12,-6.481 19.46,-14.403 l 18.7,-45.367 c 0.72,-2.883 1.44,-5.75 3.61,-8.633 1.44,-2.879 2.15,-6.48 2.15,-10.801 0,-3.597 -3.6,-7.207 -7.19,-7.918 -6.49,1.442 -11.53,4.321 -16.56,7.918 -2.89,1.442 -6.49,3.59 -8.64,6.481 -0.73,0 -0.73,0 -0.73,0 v 0 c -0.71,-0.719 -0.71,-1.438 -0.71,-2.16 0,-5.758 -0.73,-10.797 -0.73,-15.84 0,-2.168 0.73,-5.047 0.73,-7.918 0,-0.723 0,-0.723 0,-1.441 0,-4.321 -1.44,-9.36 -2.89,-13.68 l -11.52,-29.531 c -2.16,-4.309 -3.6,-8.629 -5.03,-13.668 0,-3.61 -0.72,-5.762 -0.72,-8.653 0,-0.707 0,-0.707 0,-2.148 0,-3.602 1.44,-7.918 2.88,-12.238 0.71,-2.891 1.44,-6.481 1.44,-10.082 0,0 0,0 0,-0.731 0,-3.59 1.43,-7.187 2.87,-9.359 1.44,-0.711 1.44,-2.149 2.16,-2.871 0,-0.719 0,-1.438 0.72,-1.438 0.73,-1.441 1.44,-2.172 2.17,-2.172 8.63,-10.801 17.29,-19.429 25.2,-29.508 0.71,0 2.87,-2.16 3.59,-4.32 2.16,-2.172 5.05,-4.32 7.92,-6.48 17.28,-10.09 34.57,-18.719 52.56,-26.641 2.89,-0.73 6.48,-1.441 10.09,-1.441 4.31,0 9.36,-2.161 12.23,-5.77 0.73,-1.437 2.17,-4.309 2.17,-7.187 v 0 c 0.71,-9.364 2.15,-18.012 5.03,-26.641 0.72,-7.211 2.16,-14.402 3.61,-20.879 1.43,-4.32 1.43,-9.363 1.43,-14.41 0,-0.711 0,-1.434 0,-2.152 2.16,-15.84 5.77,-30.961 10.8,-46.079 2.9,-8.652 5.77,-17.281 7.92,-25.203 0.72,-2.156 2.16,-4.328 4.33,-7.207 3.59,-2.871 5.03,-7.191 6.48,-11.511 1.44,-1.438 2.88,-4.329 5.03,-5.04 1.44,-0.73 2.16,-1.441 2.16,-2.878 0,-1.442 -0.72,-2.891 -2.88,-2.891 -2.16,-0.711 -4.31,-0.711 -6.48,-2.152 -1.44,-0.727 -2.87,-2.161 -2.87,-2.879 0,-2.16 2.15,-3.598 3.59,-3.598 0.73,0 1.45,0 1.45,0 1.44,0.707 3.59,1.438 5.03,2.156 6.48,2.883 13.69,0 15.84,-5.758 0.72,-1.441 0.72,-1.441 0.72,-2.878 5.76,-13.68 10.8,-26.641 15.85,-41.043 l 5.04,-11.528 c 1.44,-2.152 1.44,-4.312 1.44,-6.48 v 0 c 0,0 0,0 0,-0.711 0,-0.731 -0.72,-1.442 -1.44,-1.442 v 0 c -6.49,0.711 -12.95,2.153 -18.73,5.043 -2.16,0.719 -4.32,2.149 -7.2,2.149 -1.43,0.73 -2.15,0.73 -3.6,1.441 -1.44,0.731 -2.88,2.168 -4.32,2.879 -0.71,0 -0.71,0 -2.16,0 0,0 -0.72,0 -1.44,0 -1.44,-0.711 -2.15,-0.711 -3.59,0 -2.89,0 -5.05,1.449 -6.48,2.891 -2.88,2.148 -5.05,5.031 -7.92,7.918 -1.44,2.883 -3.61,5.031 -6.49,7.203 -4.31,2.867 -7.92,6.476 -12.23,10.078 -2.17,1.441 -3.61,2.879 -4.33,5.039 -1.44,2.16 -2.88,3.602 -5.03,5.031 -6.48,9.36 -8.65,20.168 -8.65,31.68 v 0 c 0,4.332 -0.72,8.648 -1.44,12.969 -1.44,7.191 -3.6,15.84 -5.04,23.031 -3.59,16.57 -7.92,30.969 -12.96,46.082 -3.59,9.359 -8.64,16.566 -15.12,23.758 -5.04,4.32 -10.08,10.09 -16.56,15.129 -0.72,0.722 -1.44,0.722 -1.44,1.441 -1.44,0.711 -2.87,0.711 -3.58,2.149 -2.9,1.441 -6.49,2.171 -9.38,3.613 -2.16,0 -5.02,1.437 -7.91,2.867 -7.21,2.172 -15.13,5.051 -22.32,8.652 -13.69,7.918 -25.93,16.551 -37.45,26.641 -5.03,5.039 -10.07,9.359 -15.12,13.668 -3.6,2.879 -6.48,4.332 -10.08,6.488 -10.8,5.043 -20.87,10.793 -30.96,18 -9.36,7.203 -17.28,14.403 -25.92,22.321 0,0 0,0 -0.72,0 v 0 c -1.43,-0.719 -1.43,-1.438 -2.87,-1.438 -2.89,-2.16 -7.92,-6.48 -12.97,-10.082 -5.76,-8.648 -9.35,-18.719 -12.96,-28.801 0,-2.156 0,-3.609 0,-5.047 0,-1.441 0,-2.871 0,-3.589 2.17,-17.282 6.48,-34.563 12.96,-51.122 4.32,-9.359 7.92,-18.718 13.68,-28.082 2.88,-3.597 4.32,-8.648 5.77,-12.957 0,-0.73 0,-2.171 0,-2.882 0,-2.161 0,-4.321 -2.17,-6.477 -1.44,-3.602 -5.03,-6.48 -8.64,-7.922 -2.15,-1.441 -3.59,-3.601 -4.32,-5.762 -2.16,-3.597 -4.32,-5.757 -6.48,-7.918 -5.76,-7.199 -12.24,-12.96 -17.99,-18.73 -1.44,-1.441 -1.44,-1.441 -2.89,-2.148 -1.44,-1.442 -2.88,-2.883 -4.32,-4.321 -4.32,-4.332 -7.92,-9.371 -12.24,-14.402 z" /></g></g></svg>