<?xml version="1.0" encoding="UTF-8" standalone="no"?>
<svg
   xmlns:dc="http://purl.org/dc/elements/1.1/"
   xmlns:cc="http://creativecommons.org/ns#"
   xmlns:rdf="http://www.w3.org/1999/02/22-rdf-syntax-ns#"
   xmlns:svg="http://www.w3.org/2000/svg"
   xmlns="http://www.w3.org/2000/svg"
   viewBox="0 0 793.70667 694.93335"
   height="694.93335"
   width="793.70667"
   xml:space="preserve"
   id="svg4076"
   version="1.1"><metadata
     id="metadata4082"><rdf:RDF><cc:Work
         rdf:about=""><dc:format>image/svg+xml</dc:format><dc:type
           rdf:resource="http://purl.org/dc/dcmitype/StillImage" /><dc:title></dc:title></cc:Work></rdf:RDF></metadata><defs
     id="defs4080" /><g
     transform="matrix(1.3333333,0,0,-1.3333333,0,694.93333)"
     id="g4084"><g
       transform="scale(0.1)"
       id="g4086"><path
         id="path4088"
         style="fill:#f1491c;fill-opacity:1;fill-rule:nonzero;stroke:none"
         d="M 3156.83,5104.3 5921.29,316.09 c 37.22,-64.469 37.22,-143.891 0,-208.367 C 5884.07,43.2695 5815.28,3.55078 5740.85,3.55078 H 211.91 C 137.465,3.55078 68.6875,43.2695 31.4648,107.723 -5.75,172.199 -5.75,251.621 31.4648,316.09 L 2795.94,5104.3 c 37.22,64.46 106,104.17 180.44,104.17 74.44,0 143.22,-39.71 180.45,-104.17" /><path
         id="path4090"
         style="fill:none;stroke:#f1491c;stroke-width:7.10031986;stroke-linecap:round;stroke-linejoin:round;stroke-miterlimit:500;stroke-dasharray:none;stroke-opacity:1"
         d="M 3156.83,5104.3 5921.29,316.09 c 37.22,-64.469 37.22,-143.891 0,-208.367 C 5884.07,43.2695 5815.28,3.55078 5740.85,3.55078 H 211.91 C 137.465,3.55078 68.6875,43.2695 31.4648,107.723 -5.75,172.199 -5.75,251.621 31.4648,316.09 L 2795.94,5104.3 c 37.22,64.46 106,104.17 180.44,104.17 74.44,0 143.22,-39.71 180.45,-104.17 z" /><path
         id="path4092"
         style="fill:#ffffff;fill-opacity:1;fill-rule:nonzero;stroke:none"
         d="M 933.676,628.621 2976.38,4166.68 5019.08,628.621 Z" /><path
         id="path4094"
         style="fill:none;stroke:#ffffff;stroke-width:7.10031986;stroke-linecap:round;stroke-linejoin:round;stroke-miterlimit:500;stroke-dasharray:none;stroke-opacity:1"
         d="M 933.676,628.621 2976.38,4166.68 5019.08,628.621 Z" /><path
         id="path4096"
         style="fill:#100f0d;fill-opacity:1;fill-rule:nonzero;stroke:none"
         d="m 2293.79,2550.52 c -32.42,46.65 -87.49,72.19 -144.04,66.79 l 65.18,-92.55 -103.82,-489.31 c -8.93,-42.09 12.11,-84.83 50.91,-103.43 33.88,-16.24 73.78,-13.63 105.25,6.87 32.27,21.04 48.51,59.59 41.01,97.37 l 124.75,141.64 95.76,-277.65 c 1.03,-60.59 5.87,-121.07 14.49,-181.07 9.46,-71.65 40,-138.89 87.72,-193.15 l -215.38,-25.89 c -17.57,-1.9 -34.52,-7.62 -49.63,-16.77 -11.88,-7.19 -22.32,-16.52 -30.8,-27.49 -10.66,-13.79 -16.44,-30.73 -16.44,-48.16 v -321.1 c -3.79,-35.48 12.3,-70.15 41.85,-90.14 l 159.34,-107.839 21.61,43.101 c 5.56,14.309 7.41,29.789 5.38,45.008 -1.87,14.082 -5.47,27.89 -10.71,41.09 -6.53,16.47 -16.78,31.18 -29.96,43.03 l -39.43,35.41 v 251.89 h 353.29 l 197.17,-512.65 -74.83,-140.829 99.66,1.539 c 10.77,1.29 21.24,4.493 30.89,9.461 17.05,8.758 32.69,20.032 46.41,33.399 16.28,15.84 28.22,35.582 34.69,57.34 6.96,23.371 8.41,48.043 4.23,72.062 -4.39,25.289 -11.2,50.09 -20.32,74.071 l -175.45,461.147 c 105.5,-7.04 211.45,0.9 314.72,23.55 l 99.85,21.91 48.32,11.46 59.57,10.7 50.56,4 83.69,-231.78 -237.71,-196.66 c -9.97,-7.18 -17.17,-17.58 -20.39,-29.45 -3.48,-12.88 -3.85,-26.42 -1.04,-39.467 l 47.48,-221.313 c 17.26,8.012 34.53,15.981 51.82,23.922 18.65,8.578 34.02,22.981 43.77,41.027 6.54,12.071 12.25,24.551 17.11,37.383 5.15,13.571 6.25,28.328 3.19,42.52 l -12.88,59.558 255.92,207.63 c 3.64,3.9 7.32,7.76 11.02,11.57 5.5,5.64 8.97,12.92 9.92,20.72 1.87,15.33 0.76,30.87 -3.23,45.78 l -45.07,168.2 238.21,-237.41 70.02,-325.951 -82.9,-156.918 h 73.24 c 63.19,0 120.45,37.2 146.14,94.93 9.21,20.699 14.17,43.039 14.6,65.699 0.4,21.43 -1.42,42.84 -5.4,63.91 l -60.37,282.48 c -4.85,22.7 -12.14,44.82 -21.73,65.98 l -106.23,155.33 v 421.71 l 46.68,-0.82 c 19.54,-0.34 37.79,-9.86 49.23,-25.72 10.18,-14.08 17.34,-30.13 21.02,-47.11 4.81,-22.19 6.52,-44.95 5.05,-67.6 -2.33,-36.01 -5.85,-71.93 -10.54,-107.71 -3.71,-28.41 -5.2,-57.06 -4.43,-85.7 1.41,-52.32 17,-103.26 45.09,-147.42 22.11,-34.74 58.84,-57.55 99.79,-61.97 v 387.11 c 0,48.53 -10.96,96.45 -32.05,140.15 -19.52,40.42 -53.42,72.12 -95.06,88.87 -43.11,17.36 -89.91,23.57 -136.05,18.04 -64.98,54.21 -142.64,91.08 -225.73,107.17 -86.08,16.82 -174.69,15.89 -260.41,-2.73 l -144.23,-23.16 17.62,15.98 c 31.76,33.56 43.82,81.23 31.83,125.86 l -94.51,448.58 c -19.39,62.48 -81.82,101.15 -146.39,90.68 -64.58,-10.48 -111.58,-66.9 -110.22,-132.31 l 38.19,-184.13 -235.52,-125.06 c -60.66,96.37 -141.65,178.31 -237.31,240.09 -100.33,56.59 -217.31,76.22 -330.61,55.5 -0.84,-0.16 -1.65,-0.42 -2.42,-0.8" /><path
         id="path4098"
         style="fill:none;stroke:#100f0d;stroke-width:7.10031986;stroke-linecap:round;stroke-linejoin:round;stroke-miterlimit:500;stroke-dasharray:none;stroke-opacity:1"
         d="m 2293.79,2550.52 c -32.42,46.65 -87.49,72.19 -144.04,66.79 l 65.18,-92.55 -103.82,-489.31 c -8.93,-42.09 12.11,-84.83 50.91,-103.43 33.88,-16.24 73.78,-13.63 105.25,6.87 32.27,21.04 48.51,59.59 41.01,97.37 l 124.75,141.64 95.76,-277.65 c 1.03,-60.59 5.87,-121.07 14.49,-181.07 9.46,-71.65 40,-138.89 87.72,-193.15 l -215.38,-25.89 c -17.57,-1.9 -34.52,-7.62 -49.63,-16.77 -11.88,-7.19 -22.32,-16.52 -30.8,-27.49 -10.66,-13.79 -16.44,-30.73 -16.44,-48.16 v -321.1 c -3.79,-35.48 12.3,-70.15 41.85,-90.14 l 159.34,-107.839 21.61,43.101 c 5.56,14.309 7.41,29.789 5.38,45.008 -1.87,14.082 -5.47,27.89 -10.71,41.09 -6.53,16.47 -16.78,31.18 -29.96,43.03 l -39.43,35.41 v 251.89 h 353.29 l 197.17,-512.65 -74.83,-140.829 99.66,1.539 c 10.77,1.29 21.24,4.493 30.89,9.461 17.05,8.758 32.69,20.032 46.41,33.399 16.28,15.84 28.22,35.582 34.69,57.34 6.96,23.371 8.41,48.043 4.23,72.062 -4.39,25.289 -11.2,50.09 -20.32,74.071 l -175.45,461.147 c 105.5,-7.04 211.45,0.9 314.72,23.55 l 99.85,21.91 48.32,11.46 59.57,10.7 50.56,4 83.69,-231.78 -237.71,-196.66 c -9.97,-7.18 -17.17,-17.58 -20.39,-29.45 -3.48,-12.88 -3.85,-26.42 -1.04,-39.467 l 47.48,-221.313 c 17.26,8.012 34.53,15.981 51.82,23.922 18.65,8.578 34.02,22.981 43.77,41.027 6.54,12.071 12.25,24.551 17.11,37.383 5.15,13.571 6.25,28.328 3.19,42.52 l -12.88,59.558 255.92,207.63 c 3.64,3.9 7.32,7.76 11.02,11.57 5.5,5.64 8.97,12.92 9.92,20.72 1.87,15.33 0.76,30.87 -3.23,45.78 l -45.07,168.2 238.21,-237.41 70.02,-325.951 -82.9,-156.918 h 73.24 c 63.19,0 120.45,37.2 146.14,94.93 9.21,20.699 14.17,43.039 14.6,65.699 0.4,21.43 -1.42,42.84 -5.4,63.91 l -60.37,282.48 c -4.85,22.7 -12.14,44.82 -21.73,65.98 l -106.23,155.33 v 421.71 l 46.68,-0.82 c 19.54,-0.34 37.79,-9.86 49.23,-25.72 10.18,-14.08 17.34,-30.13 21.02,-47.11 4.81,-22.19 6.52,-44.95 5.05,-67.6 -2.33,-36.01 -5.85,-71.93 -10.54,-107.71 -3.71,-28.41 -5.2,-57.06 -4.43,-85.7 1.41,-52.32 17,-103.26 45.09,-147.42 22.11,-34.74 58.84,-57.55 99.79,-61.97 v 387.11 c 0,48.53 -10.96,96.45 -32.05,140.15 -19.52,40.42 -53.42,72.12 -95.06,88.87 -43.11,17.36 -89.91,23.57 -136.05,18.04 -64.98,54.21 -142.64,91.08 -225.73,107.17 -86.08,16.82 -174.69,15.89 -260.41,-2.73 l -144.23,-23.16 17.62,15.98 c 31.76,33.56 43.82,81.23 31.83,125.86 l -94.51,448.58 c -19.39,62.48 -81.82,101.15 -146.39,90.68 -64.58,-10.48 -111.58,-66.9 -110.22,-132.31 l 38.19,-184.13 -235.52,-125.06 c -60.66,96.37 -141.65,178.31 -237.31,240.09 -100.33,56.59 -217.31,76.22 -330.61,55.5 -0.84,-0.16 -1.65,-0.42 -2.42,-0.8 z" /><path
         id="path4100"
         style="fill:#100f0d;fill-opacity:1;fill-rule:nonzero;stroke:none"
         d="m 3272.14,2866.08 c 0,76.35 -61.91,138.24 -138.25,138.24 -76.34,0 -138.24,-61.89 -138.24,-138.24 0,-76.35 61.9,-138.24 138.24,-138.24 76.34,0 138.25,61.89 138.25,138.24" /><path
         id="path4102"
         style="fill:none;stroke:#100f0d;stroke-width:7.10031986;stroke-linecap:round;stroke-linejoin:round;stroke-miterlimit:500;stroke-dasharray:none;stroke-opacity:1"
         d="m 3272.14,2866.08 c 0,76.35 -61.91,138.24 -138.25,138.24 -76.34,0 -138.24,-61.89 -138.24,-138.24 0,-76.35 61.9,-138.24 138.24,-138.24 76.34,0 138.25,61.89 138.25,138.24 z" /><path
         id="path4104"
         style="fill:#ffffff;fill-opacity:1;fill-rule:nonzero;stroke:none"
         d="m 3049.83,2071.52 101.24,60.99 -27.92,129.76 -189.75,-100.56 c 34.05,-35.74 73.3,-66.15 116.43,-90.19" /><path
         id="path4106"
         style="fill:none;stroke:#ffffff;stroke-width:3.02326012;stroke-linecap:round;stroke-linejoin:round;stroke-miterlimit:500;stroke-dasharray:none;stroke-opacity:1"
         d="m 3049.83,2071.52 101.24,60.99 -27.92,129.76 -189.75,-100.56 c 34.05,-35.74 73.3,-66.15 116.43,-90.19 z" /></g></g></svg>