<?xml version="1.0" encoding="UTF-8" standalone="no"?>
<svg
   xmlns:dc="http://purl.org/dc/elements/1.1/"
   xmlns:cc="http://creativecommons.org/ns#"
   xmlns:rdf="http://www.w3.org/1999/02/22-rdf-syntax-ns#"
   xmlns:svg="http://www.w3.org/2000/svg"
   xmlns="http://www.w3.org/2000/svg"
   viewBox="0 0 793.70667 694.93335"
   height="694.93335"
   width="793.70667"
   xml:space="preserve"
   id="svg3768"
   version="1.1"><metadata
     id="metadata3774"><rdf:RDF><cc:Work
         rdf:about=""><dc:format>image/svg+xml</dc:format><dc:type
           rdf:resource="http://purl.org/dc/dcmitype/StillImage" /><dc:title></dc:title></cc:Work></rdf:RDF></metadata><defs
     id="defs3772" /><g
     transform="matrix(1.3333333,0,0,-1.3333333,0,694.93333)"
     id="g3776"><g
       transform="scale(0.1)"
       id="g3778"><path
         id="path3780"
         style="fill:#f1491c;fill-opacity:1;fill-rule:nonzero;stroke:none"
         d="M 2795.94,5104.3 31.4648,316.09 C -5.75,251.621 -5.75,172.199 31.4648,107.723 68.6875,43.2695 137.465,3.55078 211.91,3.55078 h 5528.94 c 74.43,0 143.22,39.71872 180.44,104.17222 37.22,64.476 37.22,143.898 0,208.367 L 3156.83,5104.3 c -37.23,64.46 -106.01,104.17 -180.45,104.17 -74.44,0 -143.22,-39.71 -180.44,-104.17" /><path
         id="path3782"
         style="fill:none;stroke:#f1491c;stroke-width:7.10031986;stroke-linecap:round;stroke-linejoin:round;stroke-miterlimit:500;stroke-dasharray:none;stroke-opacity:1"
         d="M 2795.94,5104.3 31.4648,316.09 C -5.75,251.621 -5.75,172.199 31.4648,107.723 68.6875,43.2695 137.465,3.55078 211.91,3.55078 h 5528.94 c 74.43,0 143.22,39.71872 180.44,104.17222 37.22,64.476 37.22,143.898 0,208.367 L 3156.83,5104.3 c -37.23,64.46 -106.01,104.17 -180.45,104.17 -74.44,0 -143.22,-39.71 -180.44,-104.17 z" /><path
         id="path3784"
         style="fill:#ffffff;fill-opacity:1;fill-rule:nonzero;stroke:none"
         d="M 933.676,628.621 H 5019.08 L 2976.38,4166.68 Z" /><path
         id="path3786"
         style="fill:none;stroke:#ffffff;stroke-width:7.10031986;stroke-linecap:round;stroke-linejoin:round;stroke-miterlimit:500;stroke-dasharray:none;stroke-opacity:1"
         d="M 933.676,628.621 H 5019.08 L 2976.38,4166.68 Z" /><path
         id="path3788"
         style="fill:#100f0d;fill-opacity:1;fill-rule:nonzero;stroke:none"
         d="M 4767.16,757.102 4325.04,1557.32 H 3952.6 l 295.53,-800.211 519.03,-0.007" /><path
         id="path3790"
         style="fill:none;stroke:#100f0d;stroke-width:7.10031986;stroke-linecap:round;stroke-linejoin:round;stroke-miterlimit:500;stroke-dasharray:none;stroke-opacity:1"
         d="M 4767.16,757.102 4325.04,1557.32 H 3952.6 l 295.53,-800.211 z" /><path
         id="path3792"
         style="fill:#100f0d;fill-opacity:1;fill-rule:nonzero;stroke:none"
         d="m 3199.62,1066.48 21.14,-309.371 h 531.57 L 3571,1557.32 h -201.06 l 261.21,-441.91 -341.22,-201.699 -90.31,152.769" /><path
         id="path3794"
         style="fill:none;stroke:#100f0d;stroke-width:7.10031986;stroke-linecap:round;stroke-linejoin:round;stroke-miterlimit:500;stroke-dasharray:none;stroke-opacity:1"
         d="m 3199.62,1066.48 21.14,-309.371 h 531.57 L 3571,1557.32 h -201.06 l 261.21,-441.91 -341.22,-201.699 z" /><path
         id="path3796"
         style="fill:#100f0d;fill-opacity:1;fill-rule:nonzero;stroke:none"
         d="m 2381.76,1557.32 -181.34,-800.199 531.57,-0.012 11.53,168.704 -342.06,91.957 145.07,539.55 h -164.77" /><path
         id="path3798"
         style="fill:none;stroke:#100f0d;stroke-width:7.10031986;stroke-linecap:round;stroke-linejoin:round;stroke-miterlimit:500;stroke-dasharray:none;stroke-opacity:1"
         d="m 2381.76,1557.32 -181.34,-800.199 531.57,-0.012 11.53,168.704 -342.06,91.957 145.07,539.55 z" /><path
         id="path3800"
         style="fill:#100f0d;fill-opacity:1;fill-rule:nonzero;stroke:none"
         d="m 1704.63,757.109 h -519.02 l 442.11,800.211 h 372.44 L 1704.63,757.109" /><path
         id="path3802"
         style="fill:none;stroke:#100f0d;stroke-width:7.10031986;stroke-linecap:round;stroke-linejoin:round;stroke-miterlimit:500;stroke-dasharray:none;stroke-opacity:1"
         d="m 1704.63,757.109 h -519.02 l 442.11,800.211 h 372.44 z" /><path
         id="path3804"
         style="fill:#100f0d;fill-opacity:1;fill-rule:nonzero;stroke:none"
         d="m 2760.47,2310.1 v -211.49 l -278.06,-1034.2 255.19,-68.597 244.46,909.227 v -340.69 l 331.13,-560.15 227.48,134.46 -301.39,509.87 v 932.24 l 73.1,-118.72 v -452.18 h 165.15 v 498.95 l -265.24,430.77 c -25.69,41.73 -61.68,76.15 -104.53,99.96 -75.15,41.77 -169.15,26.5 -227.22,-36.9 -77.23,-84.32 -120.07,-194.51 -120.07,-308.85 v -131.93 l -338.56,-403.54 126.7,-104.68 211.86,256.45" /><path
         id="path3806"
         style="fill:none;stroke:#100f0d;stroke-width:7.10031986;stroke-linecap:round;stroke-linejoin:round;stroke-miterlimit:500;stroke-dasharray:none;stroke-opacity:1"
         d="m 2760.47,2310.1 v -211.49 l -278.06,-1034.2 255.19,-68.597 244.46,909.227 v -340.69 l 331.13,-560.15 227.48,134.46 -301.39,509.87 v 932.24 l 73.1,-118.72 v -452.18 h 165.15 v 498.95 l -265.24,430.77 c -25.69,41.73 -61.68,76.15 -104.53,99.96 -75.15,41.77 -169.15,26.5 -227.22,-36.9 -77.23,-84.32 -120.07,-194.51 -120.07,-308.85 v -131.93 l -338.56,-403.54 126.7,-104.68 z" /><path
         id="path3808"
         style="fill:#100f0d;fill-opacity:1;fill-rule:nonzero;stroke:none"
         d="m 3174.56,3318.29 c 0,109.45 -88.72,198.18 -198.18,198.18 -109.46,0 -198.19,-88.73 -198.19,-198.18 0,-109.46 88.73,-198.19 198.19,-198.19 109.46,0 198.18,88.73 198.18,198.19" /><path
         id="path3810"
         style="fill:none;stroke:#100f0d;stroke-width:7.10031986;stroke-linecap:round;stroke-linejoin:round;stroke-miterlimit:500;stroke-dasharray:none;stroke-opacity:1"
         d="m 3174.56,3318.29 c 0,109.45 -88.72,198.18 -198.18,198.18 -109.46,0 -198.19,-88.73 -198.19,-198.18 0,-109.46 88.73,-198.19 198.19,-198.19 109.46,0 198.18,88.73 198.18,198.19 z" /></g></g></svg>