<?xml version="1.0" encoding="UTF-8" standalone="no"?>
<svg
   xmlns:dc="http://purl.org/dc/elements/1.1/"
   xmlns:cc="http://creativecommons.org/ns#"
   xmlns:rdf="http://www.w3.org/1999/02/22-rdf-syntax-ns#"
   xmlns:svg="http://www.w3.org/2000/svg"
   xmlns="http://www.w3.org/2000/svg"
   viewBox="0 0 793.70667 694.93335"
   height="694.93335"
   width="793.70667"
   xml:space="preserve"
   id="svg3812"
   version="1.1"><metadata
     id="metadata3818"><rdf:RDF><cc:Work
         rdf:about=""><dc:format>image/svg+xml</dc:format><dc:type
           rdf:resource="http://purl.org/dc/dcmitype/StillImage" /><dc:title></dc:title></cc:Work></rdf:RDF></metadata><defs
     id="defs3816" /><g
     transform="matrix(1.3333333,0,0,-1.3333333,0,694.93333)"
     id="g3820"><g
       transform="scale(0.1)"
       id="g3822"><path
         id="path3824"
         style="fill:#f1491c;fill-opacity:1;fill-rule:nonzero;stroke:none"
         d="M 2795.94,5104.3 31.4648,316.09 C -5.75,251.621 -5.75,172.199 31.4648,107.723 68.6875,43.2695 137.465,3.55078 211.91,3.55078 h 5528.94 c 74.43,0 143.22,39.71872 180.44,104.17222 37.22,64.476 37.22,143.898 0,208.367 L 3156.83,5104.3 c -37.23,64.46 -106.01,104.17 -180.45,104.17 -74.44,0 -143.22,-39.71 -180.44,-104.17" /><path
         id="path3826"
         style="fill:none;stroke:#f1491c;stroke-width:7.10031986;stroke-linecap:round;stroke-linejoin:round;stroke-miterlimit:500;stroke-dasharray:none;stroke-opacity:1"
         d="M 2795.94,5104.3 31.4648,316.09 C -5.75,251.621 -5.75,172.199 31.4648,107.723 68.6875,43.2695 137.465,3.55078 211.91,3.55078 h 5528.94 c 74.43,0 143.22,39.71872 180.44,104.17222 37.22,64.476 37.22,143.898 0,208.367 L 3156.83,5104.3 c -37.23,64.46 -106.01,104.17 -180.45,104.17 -74.44,0 -143.22,-39.71 -180.44,-104.17 z" /><path
         id="path3828"
         style="fill:#ffffff;fill-opacity:1;fill-rule:nonzero;stroke:none"
         d="M 933.676,628.621 H 5019.08 L 2976.38,4166.68 Z" /><path
         id="path3830"
         style="fill:none;stroke:#ffffff;stroke-width:7.10031986;stroke-linecap:round;stroke-linejoin:round;stroke-miterlimit:500;stroke-dasharray:none;stroke-opacity:1"
         d="M 933.676,628.621 H 5019.08 L 2976.38,4166.68 Z" /><path
         id="path3832"
         style="fill:#100f0d;fill-opacity:1;fill-rule:nonzero;stroke:none"
         d="m 3875.15,810.68 c 13.08,-28.438 10.02,-61.7 -8.08,-87.25 -18.08,-25.559 -48.42,-39.528 -79.6,-36.629 -31.17,2.871 -58.44,22.172 -71.53,50.609 l -149.1,323.98 v 265.17 l -204.1,-571.439 c -17.05,-47.75 -69.58,-72.629 -117.32,-55.582 -47.74,17.063 -72.63,69.59 -55.58,117.332 l 218.27,611.139 v 180.58 l -92.94,-268.47 c -7.35,-22.63 -26.34,-39.51 -49.67,-44.15 -23.32,-4.65 -47.34,3.66 -62.79,21.73 -15.46,18.07 -19.96,43.09 -11.75,65.4 l 181.41,524.11 c 26.56,76.68 94.77,131.29 175.4,140.43 80.63,9.12 159.34,-28.88 202.34,-97.7 l 199.05,-318.48 v -177.63 c 0,-38.11 -30.89,-69.01 -68.99,-69.01 -38.12,0 -69.02,30.9 -69.02,69.01 v 131.39 l -52.36,83.79 v -605.5 l 116.36,-252.83" /><path
         id="path3834"
         style="fill:none;stroke:#100f0d;stroke-width:7.10031986;stroke-linecap:round;stroke-linejoin:round;stroke-miterlimit:500;stroke-dasharray:none;stroke-opacity:1"
         d="m 3875.15,810.68 c 13.08,-28.438 10.02,-61.7 -8.08,-87.25 -18.08,-25.559 -48.42,-39.528 -79.6,-36.629 -31.17,2.871 -58.44,22.172 -71.53,50.609 l -149.1,323.98 v 265.17 l -204.1,-571.439 c -17.05,-47.75 -69.58,-72.629 -117.32,-55.582 -47.74,17.063 -72.63,69.59 -55.58,117.332 l 218.27,611.139 v 180.58 l -92.94,-268.47 c -7.35,-22.63 -26.34,-39.51 -49.67,-44.15 -23.32,-4.65 -47.34,3.66 -62.79,21.73 -15.46,18.07 -19.96,43.09 -11.75,65.4 l 181.41,524.11 c 26.56,76.68 94.77,131.29 175.4,140.43 80.63,9.12 159.34,-28.88 202.34,-97.7 l 199.05,-318.48 v -177.63 c 0,-38.11 -30.89,-69.01 -68.99,-69.01 -38.12,0 -69.02,30.9 -69.02,69.01 v 131.39 l -52.36,83.79 v -605.5 z" /><path
         id="path3836"
         style="fill:#100f0d;fill-opacity:1;fill-rule:nonzero;stroke:none"
         d="m 3743.83,2283 c 0,106.96 -86.72,193.68 -193.69,193.68 -106.97,0 -193.68,-86.72 -193.68,-193.68 0,-106.98 86.71,-193.69 193.68,-193.69 106.97,0 193.69,86.71 193.69,193.69" /><path
         id="path3838"
         style="fill:none;stroke:#100f0d;stroke-width:7.10031986;stroke-linecap:round;stroke-linejoin:round;stroke-miterlimit:500;stroke-dasharray:none;stroke-opacity:1"
         d="m 3743.83,2283 c 0,106.96 -86.72,193.68 -193.69,193.68 -106.97,0 -193.68,-86.72 -193.68,-193.68 0,-106.98 86.71,-193.69 193.68,-193.69 106.97,0 193.69,86.71 193.69,193.69 z" /><path
         id="path3840"
         style="fill:#100f0d;fill-opacity:1;fill-rule:nonzero;stroke:none"
         d="m 2805.88,2655.96 c 0,111.93 -90.74,202.68 -202.68,202.68 -111.93,0 -202.67,-90.75 -202.67,-202.68 0,-111.94 90.74,-202.68 202.67,-202.68 111.94,0 202.68,90.74 202.68,202.68" /><path
         id="path3842"
         style="fill:none;stroke:#100f0d;stroke-width:7.10031986;stroke-linecap:round;stroke-linejoin:round;stroke-miterlimit:500;stroke-dasharray:none;stroke-opacity:1"
         d="m 2805.88,2655.96 c 0,111.93 -90.74,202.68 -202.68,202.68 -111.93,0 -202.67,-90.75 -202.67,-202.68 0,-111.94 90.74,-202.68 202.67,-202.68 111.94,0 202.68,90.74 202.68,202.68 z" /><path
         id="path3844"
         style="fill:#100f0d;fill-opacity:1;fill-rule:nonzero;stroke:none"
         d="m 2831.04,750.922 -207.57,450.998 v 260.15 L 2375.65,768.172 c -13.39,-37.5 -45.78,-65.012 -84.96,-72.16 -39.17,-7.153 -79.19,7.129 -104.98,37.488 -25.78,30.359 -33.41,72.152 -20.02,109.66 l 285.51,799.41 v 312.22 l -131.27,-379.21 c -8.5,-26.16 -30.47,-45.68 -57.44,-51.06 -26.98,-5.37 -54.75,4.25 -72.63,25.15 -17.87,20.9 -23.07,49.82 -13.58,75.63 l 215.35,622.1 c 30.64,88.54 109.4,151.58 202.48,162.12 93.09,10.53 183.95,-33.32 233.59,-112.76 l 266.1,-425.77 v -344.3 c 0,-41.97 -34.01,-76.01 -76.01,-76.01 -41.96,0 -75.99,34.04 -75.99,76.01 v 263.23 l -85.25,136.4 v -746.06 l 158.62,-344.619 c 23.38,-50.84 1.14,-111.02 -49.7,-134.418 -50.84,-23.403 -111.03,-1.16 -134.43,49.699" /><path
         id="path3846"
         style="fill:none;stroke:#100f0d;stroke-width:7.10031986;stroke-linecap:round;stroke-linejoin:round;stroke-miterlimit:500;stroke-dasharray:none;stroke-opacity:1"
         d="m 2831.04,750.922 -207.57,450.998 v 260.15 L 2375.65,768.172 c -13.39,-37.5 -45.78,-65.012 -84.96,-72.16 -39.17,-7.153 -79.19,7.129 -104.98,37.488 -25.78,30.359 -33.41,72.152 -20.02,109.66 l 285.51,799.41 v 312.22 l -131.27,-379.21 c -8.5,-26.16 -30.47,-45.68 -57.44,-51.06 -26.98,-5.37 -54.75,4.25 -72.63,25.15 -17.87,20.9 -23.07,49.82 -13.58,75.63 l 215.35,622.1 c 30.64,88.54 109.4,151.58 202.48,162.12 93.09,10.53 183.95,-33.32 233.59,-112.76 l 266.1,-425.77 v -344.3 c 0,-41.97 -34.01,-76.01 -76.01,-76.01 -41.96,0 -75.99,34.04 -75.99,76.01 v 263.23 l -85.25,136.4 v -746.06 l 158.62,-344.619 c 23.38,-50.84 1.14,-111.02 -49.7,-134.418 -50.84,-23.403 -111.03,-1.16 -134.43,49.699 z" /></g></g></svg>