<?xml version="1.0" encoding="UTF-8" standalone="no"?>
<svg
   xmlns:dc="http://purl.org/dc/elements/1.1/"
   xmlns:cc="http://creativecommons.org/ns#"
   xmlns:rdf="http://www.w3.org/1999/02/22-rdf-syntax-ns#"
   xmlns:svg="http://www.w3.org/2000/svg"
   xmlns="http://www.w3.org/2000/svg"
   viewBox="0 0 340.41333 298.07999"
   height="298.07999"
   width="340.41333"
   xml:space="preserve"
   id="svg3952"
   version="1.1"><metadata
     id="metadata3958"><rdf:RDF><cc:Work
         rdf:about=""><dc:format>image/svg+xml</dc:format><dc:type
           rdf:resource="http://purl.org/dc/dcmitype/StillImage" /><dc:title></dc:title></cc:Work></rdf:RDF></metadata><defs
     id="defs3956" /><g
     transform="matrix(1.3333333,0,0,-1.3333333,0,298.08)"
     id="g3960"><g
       transform="scale(0.1)"
       id="g3962"><path
         id="path3964"
         style="fill:#f14824;fill-opacity:1;fill-rule:nonzero;stroke:none"
         d="m 2462.75,1.08203 c 49.68,0 89.28,39.59767 89.28,89.27737 0,15.8396 -3.59,31.6796 -11.52,45.3596 L 1353.23,2189.88 c -15.11,28.08 -45.35,44.64 -77.04,44.64 -30.96,0 -61.19,-16.56 -76.32,-44.64 L 12.5938,135.719 C 5.39453,122.039 1.07422,106.199 1.07422,90.3594 1.07422,40.6797 40.6719,1.08203 90.3516,1.08203 c 0,0 0,0 0.7226,0 H 2462.75" /><path
         id="path3966"
         style="fill:none;stroke:#f14824;stroke-width:2.1500001;stroke-linecap:butt;stroke-linejoin:miter;stroke-miterlimit:4;stroke-dasharray:none;stroke-opacity:1"
         d="m 2462.75,1.08203 c 49.68,0 89.28,39.59767 89.28,89.27737 0,15.8396 -3.59,31.6796 -11.52,45.3596 L 1353.23,2189.88 c -15.11,28.08 -45.35,44.64 -77.04,44.64 -30.96,0 -61.19,-16.56 -76.32,-44.64 L 12.5938,135.719 C 5.39453,122.039 1.07422,106.199 1.07422,90.3594 1.07422,40.6797 40.6719,1.08203 90.3516,1.08203 c 0,0 0,0 0.7226,0 z" /><path
         id="path3968"
         style="fill:#ffffff;fill-opacity:1;fill-rule:nonzero;stroke:none"
         d="M 2153.15,268.922 H 399.965 L 1276.19,1787.4 Z" /><path
         id="path3970"
         style="fill:none;stroke:#ffffff;stroke-width:2.1500001;stroke-linecap:butt;stroke-linejoin:miter;stroke-miterlimit:4;stroke-dasharray:none;stroke-opacity:1"
         d="M 2153.15,268.922 H 399.965 L 1276.19,1787.4 Z" /><path
         id="path3972"
         style="fill:#231f20;fill-opacity:1;fill-rule:nonzero;stroke:none"
         d="m 1121.39,588.602 c -8.64,-3.602 -18,-7.922 -26.63,-13.68 l -18.72,-10.801 c -15.13,-9.359 -28.8,-18 -43.21,-28.082 -2.16,-2.16 -4.31,-3.598 -6.48,-4.32 l -4.31,-1.438 -10.09,-6.48 c -0.71,-0.719 -0.71,-1.442 -0.71,-1.442 0,-0.718 0,-2.16 0.71,-2.16 l 49.69,-32.398 c 15.84,-10.082 31.68,-18 48.23,-24.481 2.88,-0.718 6.48,-2.16 7.92,-2.16 2.88,0 5.04,0 7.21,1.442 l 9.36,2.16 c 5.03,1.437 10.07,0.718 15.11,-2.16 l 5.04,-3.602 c 1.44,-2.16 4.32,-3.602 7.2,-3.602 1.44,0 4.33,0.723 5.77,1.442 l 10.79,4.32 c 7.92,2.16 16.56,1.442 23.77,-2.16 4.31,-2.879 8.63,-5.762 11.51,-9.359 l 18,-18.719 c 2.17,-0.723 2.88,-2.16 2.88,-3.602 l 2.88,-5.761 -1.44,-2.879 c -4.32,-4.321 -10.8,-7.918 -17.99,-10.078 l -12.97,-3.602 -21.59,-2.879 c -7.21,0.719 -13.69,1.438 -20.89,2.16 l -13.68,9.36 c -1.44,0.718 -3.59,0.718 -4.32,0.718 l -19.43,1.442 c -2.89,1.437 -7.21,1.437 -9.37,3.597 -9.36,3.602 -17.28,6.481 -26.64,9.364 l -45.36,11.519 -21.59,7.918 c -9.36,3.602 -18.01,7.199 -26.645,10.801 l -20.161,10.082 -15.839,7.199 c -8.641,4.321 -16.563,9.36 -23.043,15.84 -7.918,10.078 -8.637,23.758 -2.879,34.559 l 11.523,19.441 c 8.637,11.52 17.996,24.481 26.641,36 l 10.078,12.238 7.203,9.36 c 9.352,11.519 15.842,19.441 23.762,29.519 7.19,10.801 14.4,24.481 20.87,39.602 2.16,3.601 2.89,7.199 2.89,10.801 0,2.879 0,5.757 -2.17,9.359 l -13.67,35.281 -9.36,21.598 -3.61,12.242 -3.6,18.719 -1.44,41.039 c 0,3.601 0,8.641 0,13.68 0,5.761 1.44,12.961 2.17,20.16 l 10.79,47.519 c 6.49,20.16 14.41,39.602 23.76,58.321 l 10.8,24.48 10.09,18.721 c 0,0.72 0,1.44 0,2.88 0,2.16 -2.17,3.6 -5.04,3.6 -0.73,0 -0.73,-1.44 -1.44,-1.44 -9.36,-0.72 -18.01,-0.72 -27.37,0 -11.52,1.44 -23.76,5.04 -35.276,10.08 -2.156,0.72 -3.597,0.72 -6.48,0.72 -0.723,0 -1.442,0 -2.879,0 -10.801,-0.72 -21.602,-0.72 -32.402,0.72 -1.438,0 -3.598,0.72 -5.758,1.44 l -4.321,4.32 c -2.16,4.32 -2.882,10.08 -0.718,13.68 0,0.72 0.718,0.72 0.718,2.16 0,0.72 -2.16,1.44 -2.882,1.44 -3.598,2.16 -5.754,4.32 -7.196,7.2 l -2.883,6.48 1.442,6.48 c 0.719,1.44 1.441,2.88 3.598,3.6 3.597,3.6 7.921,7.92 12.242,9.36 l 22.32,10.8 c 33.117,11.52 65.515,25.92 96.475,42.48 5.04,2.88 9.36,6.48 14.4,8.64 l 2.88,2.16 c 6.48,5.04 10.08,10.08 13.69,17.28 v 3.6 c -10.81,2.89 -21.61,7.2 -30.97,14.4 l -13.68,7.2 c -10.79,7.92 -20.15,18 -27.36,30.24 l -4.32,17.28 c -1.44,12.96 5.05,25.21 16.56,30.96 2.16,0.71 2.89,0.71 4.33,0 -5.05,-5.75 -7.21,-12.96 -7.21,-20.88 0,-10.8 5.77,-20.88 15.13,-28.08 12.95,-10.8 29.51,-16.55 46.79,-16.55 v 0 h 0.73 l -0.73,0.72 c -10.08,10.07 -13.67,24.47 -10.08,38.15 0,1.44 0,1.44 1.45,0 5.75,-12.23 15.83,-22.32 25.91,-30.96 2.88,-1.44 6.48,-2.16 10.09,-2.16 4.31,0 7.92,1.44 12.23,3.6 l 7.2,5.76 12.96,13.69 c 3.6,5.03 5.04,11.51 5.04,17.27 0,1.44 0,2.16 0,2.88 l 0.73,16.56 -7.21,42.48 0.73,33.12 c 2.15,7.93 4.31,15.11 7.92,22.32 1.44,2.16 2.15,2.16 2.15,0 l 0.72,-17.27 10.08,-59.04 5.76,-25.21 c 0,-2.15 1.44,-2.15 2.16,-2.15 1.45,0 1.45,0 1.45,0 h 3.59 c 4.32,0 8.65,2.87 10.8,6.46 l 10.08,14.41 6.48,12.96 c 0,2.16 0,3.6 0,5.76 0,2.16 0,5.04 -0.72,7.92 v 21.6 l 2.16,20.89 c 0.73,9.35 3.61,18.71 7.2,27.36 0.72,0 0.72,0 0.72,-0.72 2.17,-5.05 3.61,-10.09 3.61,-16.57 l 2.87,-38.16 c 0,-5.03 0,-10.08 1.44,-15.12 0.72,-2.16 2.17,-3.6 4.32,-5.04 h 0.73 c 2.15,0 3.59,1.44 5.04,2.16 5.75,6.48 8.63,14.41 10.07,23.76 v 15.12 l -7.92,57.6 c -0.71,6.49 0,12.24 3.6,18 1.44,2.88 2.17,4.32 2.17,6.48 0,0.72 1.44,0.72 2.15,0 v -2.88 l 1.44,-10.8 4.33,-23.04 c 0.71,-10.07 4.31,-20.88 8.63,-29.52 2.17,-5.76 3.6,-12.23 4.32,-19.44 v 0 h 0.72 c 5.76,5.04 11.53,10.09 16.56,13.68 15.12,10.08 26.65,25.21 32.4,41.76 0.72,5.76 2.88,10.8 6.49,14.41 2.87,2.87 5.04,5.75 7.92,7.91 l 3.59,5.04 c 1.45,0 1.45,0 1.45,0 v -0.72 l -5.77,-24.48 v -2.88 c -2.88,-12.96 -7.92,-24.48 -17.28,-34.56 l -18.72,-19.44 c -8.64,-8.64 -17.28,-18 -28.08,-25.92 l -12.96,-12.24 c -7.19,-7.2 -13.67,-15.11 -16.56,-25.2 -3.59,-8.64 -4.32,-17.99 -4.32,-27.36 0,-0.72 0,-2.88 0,-3.6 h 5.04 2.88 l 31.68,14.41 c 12.96,8.63 25.93,17.27 36.72,29.52 7.92,8.63 16.56,18.71 23.76,30.96 5.05,7.19 8.64,15.83 10.8,25.19 1.44,12.96 3.61,25.2 3.61,38.16 0,1.44 0,4.32 0,5.76 0.71,5.76 2.15,12.24 3.59,18.73 v 41.75 c 0,10.08 0.72,19.45 3.6,28.8 2.16,5.76 4.32,10.8 7.92,16.56 l 1.44,2.89 c 0,0.72 1.44,0.72 1.44,0 l 1.44,-4.33 v -46.8 c 4.33,-18 5.77,-35.28 6.48,-54 0,-2.16 0,-3.6 0,-5.04 0,-4.32 0,-10.07 -0.71,-15.12 l 0.71,-9.36 v 0 c 0,0 0,0 1.44,0 17.28,12.24 29.53,29.52 34.56,48.96 l 4.33,16.56 0.71,5.04 c 2.88,2.89 5.05,5.77 9.36,8.64 v -0.72 c 0,-1.44 0,-1.44 0,-1.44 v -0.71 c 0,-1.44 0,-3.6 1.44,-5.05 v -3.6 l -3.59,-24.47 -0.73,-12.25 c -0.7,-7.92 -3.6,-16.55 -9.36,-23.04 l -15.84,-22.31 -19.44,-17.29 c -7.92,-7.92 -14.39,-16.56 -21.6,-25.92 l -26.64,-30.96 c -13.67,-15.11 -28.8,-26.64 -45.35,-37.44 -19.45,-12.96 -38.89,-25.2 -59.76,-37.43 -12.25,-6.49 -24.49,-13.69 -38.17,-21.61 -6.48,-3.6 -10.79,-7.91 -13.68,-12.96 -1.44,-0.72 -1.44,-2.88 -1.44,-4.32 0,-2.16 0,-2.88 0.72,-3.6 0.72,0 0.72,0 0.72,0 3.6,0 7.2,0.72 10.81,1.44 5.75,2.88 10.07,6.48 15.84,10.81 4.31,2.87 10.07,5.75 15.84,6.47 l 13.67,5.04 c 3.61,1.44 6.49,0 8.64,-2.88 l -2.15,-12.96 -0.73,-6.48 -3.6,-9.36 c -6.47,-15.84 -14.39,-30.24 -24.48,-43.2 0,-9.36 0,-17.28 0,-25.92 0,-27.36 -3.6,-55.44 -11.52,-82.8 l -2.88,-20.879 c 0,-5.039 -1.44,-9.36 -1.44,-12.961 0,-7.918 2.17,-18 4.32,-25.918 4.33,-9.363 11.52,-18.723 19.44,-24.481 34.56,-18.722 72.72,-29.519 111.6,-30.242 l 30.24,-0.719 h 0.73 c 3.59,0 7.19,0.719 11.51,0.719 l 45.37,4.321 62.63,2.16 c 50.41,0 100.8,-12.961 144.72,-37.442 3.6,-2.879 6.48,-5.758 9.37,-10.078 l 18.72,-25.922 c 5.03,-5.758 7.19,-12.238 7.19,-20.156 0,-3.602 -0.72,-7.922 -1.44,-12.242 -2.16,-1.442 -4.31,-4.32 -7.2,-4.32 -2.14,-1.438 -2.87,-3.598 -2.87,-6.481 0,-0.719 0,-1.437 0,-2.16 l 9.35,-51.117 4.33,-38.883 2.89,-14.399 c 7.18,-33.839 25.18,-64.082 51.82,-86.398 l 9.36,-5.762 15.12,-7.199 c 2.89,-1.441 5.04,-5.762 5.76,-9.359 l 5.76,-38.16 c 7.92,-26.641 21.6,-51.84 41.77,-72 l 10.07,-13.68 c 6.48,-5.043 11.52,-10.082 17.28,-15.121 5.76,-4.321 12.96,-7.922 20.88,-10.801 5.04,-1.441 9.36,-6.48 10.09,-11.52 0.71,-5.761 2.15,-11.519 5.04,-17.281 2.15,-2.879 3.59,-4.32 7.19,-4.32 1.44,0 2.17,0.723 2.17,0.723 h 5.75 c 9.36,-2.883 18.72,-6.481 27.37,-10.801 6.48,-3.602 11.51,-9.36 12.23,-17.281 l 15.13,-23.758 2.87,-6.481 -0.72,-6.48 -2.87,-0.719 -20.89,-3.602 c -20.16,0 -38.87,4.321 -56.88,13.68 l -9.36,7.922 -9.36,13.68 c -11.52,15.84 -25.2,30.957 -38.16,46.078 l -38.86,51.121 -25.94,36.719 -12.96,15.84 c -12.95,16.562 -28.08,31.679 -45.36,43.199 -5.74,2.16 -10.8,5.043 -16.55,5.761 -21.61,6.481 -43.21,16.559 -63.35,27.36 -9.37,5.039 -18.73,10.801 -26.65,18 -4.32,2.879 -8.65,5.762 -12.25,8.64 l -13.68,9.36 -16.56,15.84 -10.08,10.8 -18.71,21.602 c -0.73,1.438 -2.17,2.156 -5.05,2.156 -1.42,0 -1.42,0 -2.15,-0.718 l -23.77,-9.36 -20.15,-6.48 -24.48,-7.2 -31.68,-10.082 c -12.97,-1.437 -25.2,-4.316 -38.17,-5.039 -12.96,-0.718 -25.19,-1.437 -38.88,-2.16 -12.95,-0.719 -25.92,-0.719 -38.15,0 -17.28,0.723 -34.57,3.602 -51.13,8.641 l -12.23,4.32 -11.53,4.32 -5.75,2.879 c -0.73,0 -1.44,0 -1.44,0 -1.44,0 -2.89,0 -3.61,-0.718 l -1.44,-2.879 c -5.76,-9.364 -12.96,-15.84 -22.32,-20.883 -10.79,-5.039 -22.32,-11.52 -33.84,-17.277 h -0.72" /><path
         id="path3974"
         style="fill:none;stroke:#231f20;stroke-width:2.1500001;stroke-linecap:butt;stroke-linejoin:miter;stroke-miterlimit:4;stroke-dasharray:none;stroke-opacity:1"
         d="m 1121.39,588.602 c -8.64,-3.602 -18,-7.922 -26.63,-13.68 l -18.72,-10.801 c -15.13,-9.359 -28.8,-18 -43.21,-28.082 -2.16,-2.16 -4.31,-3.598 -6.48,-4.32 l -4.31,-1.438 -10.09,-6.48 c -0.71,-0.719 -0.71,-1.442 -0.71,-1.442 0,-0.718 0,-2.16 0.71,-2.16 l 49.69,-32.398 c 15.84,-10.082 31.68,-18 48.23,-24.481 2.88,-0.718 6.48,-2.16 7.92,-2.16 2.88,0 5.04,0 7.21,1.442 l 9.36,2.16 c 5.03,1.437 10.07,0.718 15.11,-2.16 l 5.04,-3.602 c 1.44,-2.16 4.32,-3.602 7.2,-3.602 1.44,0 4.33,0.723 5.77,1.442 l 10.79,4.32 c 7.92,2.16 16.56,1.442 23.77,-2.16 4.31,-2.879 8.63,-5.762 11.51,-9.359 l 18,-18.719 c 2.17,-0.723 2.88,-2.16 2.88,-3.602 l 2.88,-5.761 -1.44,-2.879 c -4.32,-4.321 -10.8,-7.918 -17.99,-10.078 l -12.97,-3.602 -21.59,-2.879 c -7.21,0.719 -13.69,1.438 -20.89,2.16 l -13.68,9.36 c -1.44,0.718 -3.59,0.718 -4.32,0.718 l -19.43,1.442 c -2.89,1.437 -7.21,1.437 -9.37,3.597 -9.36,3.602 -17.28,6.481 -26.64,9.364 l -45.36,11.519 -21.59,7.918 c -9.36,3.602 -18.01,7.199 -26.645,10.801 l -20.161,10.082 -15.839,7.199 c -8.641,4.321 -16.563,9.36 -23.043,15.84 -7.918,10.078 -8.637,23.758 -2.879,34.559 l 11.523,19.441 c 8.637,11.52 17.996,24.481 26.641,36 l 10.078,12.238 7.203,9.36 c 9.352,11.519 15.842,19.441 23.762,29.519 7.19,10.801 14.4,24.481 20.87,39.602 2.16,3.601 2.89,7.199 2.89,10.801 0,2.879 0,5.757 -2.17,9.359 l -13.67,35.281 -9.36,21.598 -3.61,12.242 -3.6,18.719 -1.44,41.039 c 0,3.601 0,8.641 0,13.68 0,5.761 1.44,12.961 2.17,20.16 l 10.79,47.519 c 6.49,20.16 14.41,39.602 23.76,58.321 l 10.8,24.48 10.09,18.721 c 0,0.72 0,1.44 0,2.88 0,2.16 -2.17,3.6 -5.04,3.6 -0.73,0 -0.73,-1.44 -1.44,-1.44 -9.36,-0.72 -18.01,-0.72 -27.37,0 -11.52,1.44 -23.76,5.04 -35.276,10.08 -2.156,0.72 -3.597,0.72 -6.48,0.72 -0.723,0 -1.442,0 -2.879,0 -10.801,-0.72 -21.602,-0.72 -32.402,0.72 -1.438,0 -3.598,0.72 -5.758,1.44 l -4.321,4.32 c -2.16,4.32 -2.882,10.08 -0.718,13.68 0,0.72 0.718,0.72 0.718,2.16 0,0.72 -2.16,1.44 -2.882,1.44 -3.598,2.16 -5.754,4.32 -7.196,7.2 l -2.883,6.48 1.442,6.48 c 0.719,1.44 1.441,2.88 3.598,3.6 3.597,3.6 7.921,7.92 12.242,9.36 l 22.32,10.8 c 33.117,11.52 65.515,25.92 96.475,42.48 5.04,2.88 9.36,6.48 14.4,8.64 l 2.88,2.16 c 6.48,5.04 10.08,10.08 13.69,17.28 v 3.6 c -10.81,2.89 -21.61,7.2 -30.97,14.4 l -13.68,7.2 c -10.79,7.92 -20.15,18 -27.36,30.24 l -4.32,17.28 c -1.44,12.96 5.05,25.21 16.56,30.96 2.16,0.71 2.89,0.71 4.33,0 -5.05,-5.75 -7.21,-12.96 -7.21,-20.88 0,-10.8 5.77,-20.88 15.13,-28.08 12.95,-10.8 29.51,-16.55 46.79,-16.55 v 0 h 0.73 l -0.73,0.72 c -10.08,10.07 -13.67,24.47 -10.08,38.15 0,1.44 0,1.44 1.45,0 5.75,-12.23 15.83,-22.32 25.91,-30.96 2.88,-1.44 6.48,-2.16 10.09,-2.16 4.31,0 7.92,1.44 12.23,3.6 l 7.2,5.76 12.96,13.69 c 3.6,5.03 5.04,11.51 5.04,17.27 0,1.44 0,2.16 0,2.88 l 0.73,16.56 -7.21,42.48 0.73,33.12 c 2.15,7.93 4.31,15.11 7.92,22.32 1.44,2.16 2.15,2.16 2.15,0 l 0.72,-17.27 10.08,-59.04 5.76,-25.21 c 0,-2.15 1.44,-2.15 2.16,-2.15 1.45,0 1.45,0 1.45,0 h 3.59 c 4.32,0 8.65,2.87 10.8,6.46 l 10.08,14.41 6.48,12.96 c 0,2.16 0,3.6 0,5.76 0,2.16 0,5.04 -0.72,7.92 v 21.6 l 2.16,20.89 c 0.73,9.35 3.61,18.71 7.2,27.36 0.72,0 0.72,0 0.72,-0.72 2.17,-5.05 3.61,-10.09 3.61,-16.57 l 2.87,-38.16 c 0,-5.03 0,-10.08 1.44,-15.12 0.72,-2.16 2.17,-3.6 4.32,-5.04 h 0.73 c 2.15,0 3.59,1.44 5.04,2.16 5.75,6.48 8.63,14.41 10.07,23.76 v 15.12 l -7.92,57.6 c -0.71,6.49 0,12.24 3.6,18 1.44,2.88 2.17,4.32 2.17,6.48 0,0.72 1.44,0.72 2.15,0 v -2.88 l 1.44,-10.8 4.33,-23.04 c 0.71,-10.07 4.31,-20.88 8.63,-29.52 2.17,-5.76 3.6,-12.23 4.32,-19.44 v 0 h 0.72 c 5.76,5.04 11.53,10.09 16.56,13.68 15.12,10.08 26.65,25.21 32.4,41.76 0.72,5.76 2.88,10.8 6.49,14.41 2.87,2.87 5.04,5.75 7.92,7.91 l 3.59,5.04 c 1.45,0 1.45,0 1.45,0 v -0.72 l -5.77,-24.48 v -2.88 c -2.88,-12.96 -7.92,-24.48 -17.28,-34.56 l -18.72,-19.44 c -8.64,-8.64 -17.28,-18 -28.08,-25.92 l -12.96,-12.24 c -7.19,-7.2 -13.67,-15.11 -16.56,-25.2 -3.59,-8.64 -4.32,-17.99 -4.32,-27.36 0,-0.72 0,-2.88 0,-3.6 h 5.04 2.88 l 31.68,14.41 c 12.96,8.63 25.93,17.27 36.72,29.52 7.92,8.63 16.56,18.71 23.76,30.96 5.05,7.19 8.64,15.83 10.8,25.19 1.44,12.96 3.61,25.2 3.61,38.16 0,1.44 0,4.32 0,5.76 0.71,5.76 2.15,12.24 3.59,18.73 v 41.75 c 0,10.08 0.72,19.45 3.6,28.8 2.16,5.76 4.32,10.8 7.92,16.56 l 1.44,2.89 c 0,0.72 1.44,0.72 1.44,0 l 1.44,-4.33 v -46.8 c 4.33,-18 5.77,-35.28 6.48,-54 0,-2.16 0,-3.6 0,-5.04 0,-4.32 0,-10.07 -0.71,-15.12 l 0.71,-9.36 v 0 c 0,0 0,0 1.44,0 17.28,12.24 29.53,29.52 34.56,48.96 l 4.33,16.56 0.71,5.04 c 2.88,2.89 5.05,5.77 9.36,8.64 v -0.72 c 0,-1.44 0,-1.44 0,-1.44 v -0.71 c 0,-1.44 0,-3.6 1.44,-5.05 v -3.6 l -3.59,-24.47 -0.73,-12.25 c -0.7,-7.92 -3.6,-16.55 -9.36,-23.04 l -15.84,-22.31 -19.44,-17.29 c -7.92,-7.92 -14.39,-16.56 -21.6,-25.92 l -26.64,-30.96 c -13.67,-15.11 -28.8,-26.64 -45.35,-37.44 -19.45,-12.96 -38.89,-25.2 -59.76,-37.43 -12.25,-6.49 -24.49,-13.69 -38.17,-21.61 -6.48,-3.6 -10.79,-7.91 -13.68,-12.96 -1.44,-0.72 -1.44,-2.88 -1.44,-4.32 0,-2.16 0,-2.88 0.72,-3.6 0.72,0 0.72,0 0.72,0 3.6,0 7.2,0.72 10.81,1.44 5.75,2.88 10.07,6.48 15.84,10.81 4.31,2.87 10.07,5.75 15.84,6.47 l 13.67,5.04 c 3.61,1.44 6.49,0 8.64,-2.88 l -2.15,-12.96 -0.73,-6.48 -3.6,-9.36 c -6.47,-15.84 -14.39,-30.24 -24.48,-43.2 0,-9.36 0,-17.28 0,-25.92 0,-27.36 -3.6,-55.44 -11.52,-82.8 l -2.88,-20.879 c 0,-5.039 -1.44,-9.36 -1.44,-12.961 0,-7.918 2.17,-18 4.32,-25.918 4.33,-9.363 11.52,-18.723 19.44,-24.481 34.56,-18.722 72.72,-29.519 111.6,-30.242 l 30.24,-0.719 h 0.73 c 3.59,0 7.19,0.719 11.51,0.719 l 45.37,4.321 62.63,2.16 c 50.41,0 100.8,-12.961 144.72,-37.442 3.6,-2.879 6.48,-5.758 9.37,-10.078 l 18.72,-25.922 c 5.03,-5.758 7.19,-12.238 7.19,-20.156 0,-3.602 -0.72,-7.922 -1.44,-12.242 -2.16,-1.442 -4.31,-4.32 -7.2,-4.32 -2.14,-1.438 -2.87,-3.598 -2.87,-6.481 0,-0.719 0,-1.437 0,-2.16 l 9.35,-51.117 4.33,-38.883 2.89,-14.399 c 7.18,-33.839 25.18,-64.082 51.82,-86.398 l 9.36,-5.762 15.12,-7.199 c 2.89,-1.441 5.04,-5.762 5.76,-9.359 l 5.76,-38.16 c 7.92,-26.641 21.6,-51.84 41.77,-72 l 10.07,-13.68 c 6.48,-5.043 11.52,-10.082 17.28,-15.121 5.76,-4.321 12.96,-7.922 20.88,-10.801 5.04,-1.441 9.36,-6.48 10.09,-11.52 0.71,-5.761 2.15,-11.519 5.04,-17.281 2.15,-2.879 3.59,-4.32 7.19,-4.32 1.44,0 2.17,0.723 2.17,0.723 h 5.75 c 9.36,-2.883 18.72,-6.481 27.37,-10.801 6.48,-3.602 11.51,-9.36 12.23,-17.281 l 15.13,-23.758 2.87,-6.481 -0.72,-6.48 -2.87,-0.719 -20.89,-3.602 c -20.16,0 -38.87,4.321 -56.88,13.68 l -9.36,7.922 -9.36,13.68 c -11.52,15.84 -25.2,30.957 -38.16,46.078 l -38.86,51.121 -25.94,36.719 -12.96,15.84 c -12.95,16.562 -28.08,31.679 -45.36,43.199 -5.74,2.16 -10.8,5.043 -16.55,5.761 -21.61,6.481 -43.21,16.559 -63.35,27.36 -9.37,5.039 -18.73,10.801 -26.65,18 -4.32,2.879 -8.65,5.762 -12.25,8.64 l -13.68,9.36 -16.56,15.84 -10.08,10.8 -18.71,21.602 c -0.73,1.438 -2.17,2.156 -5.05,2.156 -1.42,0 -1.42,0 -2.15,-0.718 l -23.77,-9.36 -20.15,-6.48 -24.48,-7.2 -31.68,-10.082 c -12.97,-1.437 -25.2,-4.316 -38.17,-5.039 -12.96,-0.718 -25.19,-1.437 -38.88,-2.16 -12.95,-0.719 -25.92,-0.719 -38.15,0 -17.28,0.723 -34.57,3.602 -51.13,8.641 l -12.23,4.32 -11.53,4.32 -5.75,2.879 c -0.73,0 -1.44,0 -1.44,0 -1.44,0 -2.89,0 -3.61,-0.718 l -1.44,-2.879 c -5.76,-9.364 -12.96,-15.84 -22.32,-20.883 -10.79,-5.039 -22.32,-11.52 -33.84,-17.277 z" /><path
         id="path3976"
         style="fill:none;stroke:#231f20;stroke-width:2.1500001;stroke-linecap:butt;stroke-linejoin:miter;stroke-miterlimit:4;stroke-dasharray:none;stroke-opacity:1"
         d="m 1155.95,1196.29 12.24,20.15 8.65,9.37 7.92,8.63 11.51,10.08 11.52,7.2 1.44,0.72 c 0.73,0.73 2.16,0 2.88,-0.72 l -0.72,-18 c -1.43,-5.04 -4.31,-10.07 -7.2,-12.96 -0.72,-2.16 -3.59,-2.88 -4.32,-3.6 l -14.4,-7.92 -12.24,-6.48 -13.67,-7.91 c -1.44,-0.72 -3.61,0 -3.61,1.44 z" /></g></g></svg>