<?xml version="1.0" encoding="UTF-8" standalone="no"?>
<svg
   xmlns:dc="http://purl.org/dc/elements/1.1/"
   xmlns:cc="http://creativecommons.org/ns#"
   xmlns:rdf="http://www.w3.org/1999/02/22-rdf-syntax-ns#"
   xmlns:svg="http://www.w3.org/2000/svg"
   xmlns="http://www.w3.org/2000/svg"
   viewBox="0 0 340.41333 298.01334"
   height="298.01334"
   width="340.41333"
   xml:space="preserve"
   id="svg3928"
   version="1.1"><metadata
     id="metadata3934"><rdf:RDF><cc:Work
         rdf:about=""><dc:format>image/svg+xml</dc:format><dc:type
           rdf:resource="http://purl.org/dc/dcmitype/StillImage" /><dc:title></dc:title></cc:Work></rdf:RDF></metadata><defs
     id="defs3932" /><g
     transform="matrix(1.3333333,0,0,-1.3333333,0,298.01333)"
     id="g3936"><g
       transform="scale(0.1)"
       id="g3938"><path
         id="path3940"
         style="fill:#f14824;fill-opacity:1;fill-rule:nonzero;stroke:none"
         d="M 1353.96,2189.87 2539.79,134.992 c 7.92,-13.683 12.24,-28.801 12.24,-44.6404 0,-49.6797 -39.6,-89.28129 -89.28,-89.28129 H 90.3516 c -48.961,0 -89.27738,39.60159 -89.27738,89.28129 0,15.8394 4.32031,30.9574 12.24218,44.6404 L 1199.16,2189.87 c 34.56,59.04 120.95,59.04 155.51,-0.72 l -0.71,0.72" /><path
         id="path3942"
         style="fill:none;stroke:#f14824;stroke-width:2.1500001;stroke-linecap:butt;stroke-linejoin:miter;stroke-miterlimit:4;stroke-dasharray:none;stroke-opacity:1"
         d="M 1353.96,2189.87 2539.79,134.992 c 7.92,-13.683 12.24,-28.801 12.24,-44.6404 0,-49.6797 -39.6,-89.28129 -89.28,-89.28129 H 90.3516 c -48.961,0 -89.27738,39.60159 -89.27738,89.28129 0,15.8394 4.32031,30.9574 12.24218,44.6404 L 1199.16,2189.87 c 34.56,59.04 120.95,59.04 155.51,-0.72 z" /><path
         id="path3944"
         style="fill:#ffffff;fill-opacity:1;fill-rule:nonzero;stroke:none"
         d="M 399.965,269.629 1276.19,1787.39 2153.15,269.629 Z" /><path
         id="path3946"
         style="fill:none;stroke:#ffffff;stroke-width:2.1500001;stroke-linecap:butt;stroke-linejoin:miter;stroke-miterlimit:4;stroke-dasharray:none;stroke-opacity:1"
         d="M 399.965,269.629 1276.19,1787.39 2153.15,269.629 Z" /><path
         id="path3948"
         style="fill:#231f20;fill-opacity:1;fill-rule:nonzero;stroke:none"
         d="m 876.594,1009.07 -0.719,-1.43 c 0,-0.73 0,-1.45 0,-2.89 0,-4.32 1.438,-9.359 3.598,-13.68 2.164,-3.601 3.601,-7.199 5.039,-10.082 0,-1.437 0,-2.879 0,-4.316 0,0 0,-0.723 0,-1.442 0,-1.441 -0.719,-2.878 -1.438,-3.601 h -2.16 c -3.601,0.723 -6.48,3.601 -8.641,6.48 l -1.437,2.879 c -0.723,3.602 -1.441,7.203 -2.883,11.524 0,0 -0.719,0 -1.437,0 v 0 c -0.719,0 -1.442,0 -2.161,-0.711 -2.878,-2.891 -5.042,-6.492 -5.761,-10.09 0,-2.16 -0.719,-5.039 -0.719,-6.481 0,-1.441 0,-3.601 0.719,-4.32 1.441,-6.48 5.039,-12.238 8.64,-17.281 1.438,-2.16 2.879,-3.598 2.879,-5.758 0,-0.723 0,-1.441 0,-1.441 0,-1.442 0,-2.879 -0.718,-3.598 -3.598,-2.883 -7.918,-4.32 -12.243,-4.32 -2.156,0 -5.039,0 -7.918,0 -1.441,-0.723 -1.441,-2.16 -1.441,-2.883 v 0 c 0,-3.598 2.164,-6.481 4.32,-8.641 4.325,-3.597 9.364,-5.758 14.403,-7.199 4.32,-1.437 8.64,-2.148 12.238,-2.148 0.719,0 0.719,0 1.441,0 h 10.078 c 9.36,1.429 16.563,2.148 23.758,3.589 7.203,0.719 15.125,2.161 23.043,2.161 9.364,0 18.723,-0.719 28.082,-2.879 l 11.52,-3.602 4.32,-2.879 1.438,-2.16 c 2.16,-1.441 3.601,-4.32 3.601,-7.199 v 0 c 0,-2.16 -1.441,-3.602 -3.601,-4.32 -0.719,0 -1.438,0 -2.879,0 -1.442,0 -2.879,0 -3.602,0 l -13.68,-4.321 c -1.437,-0.722 -2.878,-0.722 -4.32,0 -5.762,1.438 -10.801,2.16 -16.562,2.16 -2.157,0 -5.039,0 -7.196,-0.722 -7.922,-0.719 -14.398,-3.598 -20.879,-8.637 -6.48,0.719 -12.964,0.719 -19.445,0.719 -19.437,0 -39.598,-1.442 -59.035,-5.039 h -5.039 c -2.883,0.718 -5.766,0.718 -8.645,0.718 -2.882,0 -5.757,0 -8.636,-0.718 -5.039,-1.442 -9.364,-4.321 -13.684,-7.922 -5.039,-4.32 -7.918,-10.078 -8.637,-16.559 0,-1.441 0,-3.601 0,-5.043 0,-2.879 0,-5.758 0.719,-9.359 0.723,-3.598 2.16,-7.199 3.598,-10.797 l 7.922,-14.402 c 0.718,-1.442 2.16,-2.16 3.601,-3.598 l 7.195,-2.16 c -0.714,-1.442 -1.437,-3.602 -1.437,-5.043 0,-0.719 0.723,-2.16 1.437,-3.598 2.165,-5.039 6.481,-7.922 11.528,-9.359 4.312,-1.442 9.351,-2.16 13.676,-2.16 2.879,0 6.476,0 9.359,0.718 l 10.082,2.161 c 2.879,0.718 5.758,-0.719 7.922,-2.879 9.359,-6.481 20.156,-11.52 31.68,-15.121 12.234,-2.879 24.476,-5.762 37.433,-7.2 5.766,-0.722 11.528,-2.16 16.567,-5.043 4.32,-2.16 7.918,-5.757 10.078,-10.078 3.601,-5.039 7.199,-9.359 10.8,-13.679 l 7.2,-5.039 3.597,-3.602 4.325,-2.879 6.476,-7.199 v 0 c 0,-0.723 0,-1.442 0.719,-2.16 2.164,-6.481 5.039,-12.961 8.648,-19.442 0,-1.441 0.71,-2.879 2.15,-4.32 l 5.04,-7.199 h 1.44 c 0.73,-2.16 2.88,-3.602 5.76,-4.321 l 7.92,-10.082 2.16,-2.878 h 0.73 l 8.63,-5.758 c 3.6,-5.762 9.36,-10.082 15.84,-12.953 l 2.88,-0.727 c 0.72,-0.723 1.44,-0.723 2.16,-0.723 v 0 l 3.61,-3.597 10.07,-6.481 c 2.88,0 5.77,-1.441 7.92,-2.883 3.6,-2.16 7.21,-2.878 11.52,-2.878 1.44,0 2.17,-0.719 2.88,-2.161 5.04,-0.718 9.36,-2.16 14.4,-2.879 2.17,0 4.32,0.719 5.76,2.161 0.72,0 1.44,0 1.44,-0.719 1.45,0.719 2.16,0 3.6,-0.723 1.44,0.723 2.88,1.442 4.32,2.16 0.72,0 0.72,0 0.72,0 0.73,0 2.17,0 2.88,0.723 0.73,0.719 2.16,1.438 3.6,0.719 2.17,1.437 4.32,0.719 5.76,-1.442 9.36,-7.918 19.44,-15.117 30.24,-20.16 -2.88,-13.679 -5.04,-28.078 -6.48,-41.758 -2.15,-16.55 -6.48,-32.402 -12.24,-47.519 -6.48,-14.402 -12.23,-29.524 -15.84,-44.641 -0.72,-5.043 -0.72,-10.082 -0.72,-15.121 0,-2.16 0,-3.601 0,-5.762 -4.32,-20.878 -13.68,-40.316 -27.35,-56.878 -6.49,-7.918 -12.24,-16.559 -17.28,-25.2 -1.44,-0.718 -2.17,-1.429 -2.88,-2.16 l -11.53,-5.039 -4.31,-2.152 -5.77,-3.61 c -3.6,0 -7.19,-0.718 -10.07,-1.437 -4.33,-0.723 -7.21,-2.883 -9.36,-5.762 -1.45,-2.16 -2.89,-3.601 -3.61,-6.48 0,-0.719 0,-2.16 0,-2.879 0,-0.719 0,-1.442 0,-2.16 l -16.56,-20.879 c -0.71,-0.723 -1.44,-1.442 -1.44,-2.16 0,-1.442 1.44,-2.883 2.88,-2.883 l 74.16,-0.719 c 4.33,2.879 7.2,6.48 9.36,11.52 0,2.878 1.45,5.761 2.16,8.64 h 2.17 c 0.71,-2.16 1.43,-4.32 2.15,-6.48 l 2.16,-2.879 h 2.88 l 10.8,12.961 c 6.48,8.636 10.08,18.718 12.25,28.797 2.15,14.402 5.75,27.363 9.36,39.601 2.87,9.36 6.48,18.719 10.07,27.36 l 3.6,7.921 c 1.44,2.879 3.61,5.758 5.76,8.641 4.33,3.598 6.48,7.918 9.36,12.957 4.33,12.242 7.2,19.441 10.08,27.359 l 20.16,40.321 c 7.21,11.519 13.69,23.043 19.44,33.84 5.05,12.242 10.09,24.48 15.84,35.281 l 13.68,0.719 c 4.33,-15.118 9.36,-30.239 15.13,-44.637 5.03,-12.953 8.63,-27.363 10.07,-41.043 1.44,-12.957 2.88,-25.918 6.48,-38.16 3.6,-7.199 9.36,-12.957 15.84,-16.559 l 6.48,-3.601 c 5.04,-5.039 10.09,-10.079 14.4,-15.118 10.09,-12.961 18.01,-26.64 24.48,-41.043 2.16,-5.757 5.76,-11.519 9.37,-16.558 8.63,-8.641 17.99,-17.281 26.64,-25.199 4.31,-5.762 9.36,-10.082 15.11,-12.961 1.44,-0.719 2.88,-1.438 5.04,-1.438 0.72,0 2.16,0 2.88,0.719 l 20.88,-12.961 c 1.44,-1.441 2.16,-2.16 3.61,-2.16 2.15,0 4.31,2.16 4.31,5.039 v 0 c 0,21.601 -2.16,43.203 -5.76,65.519 -2.88,5.762 -8.64,8.641 -15.12,8.641 h -0.72 l -8.64,-2.16 h -2.16 v 0.723 c 2.16,1.437 3.6,3.597 5.04,5.039 v 0.718 c 0,1.442 -0.71,2.883 -1.44,3.602 -2.88,2.879 -7.19,4.32 -10.8,4.32 -2.87,4.321 -7.2,7.199 -12.23,8.641 -5.05,2.16 -10.09,5.758 -13.69,9.359 l -10.8,10.801 c -3.6,4.316 -7.19,8.637 -10.8,13.68 0,1.437 -0.72,2.16 -2.16,2.879 -1.44,2.168 -2.88,5.039 -5.03,7.199 -0.73,9.359 -2.89,18.719 -5.04,27.359 -2.88,10.082 -4.33,20.16 -4.33,30.242 l -0.72,18.719 c 0.72,7.922 0.72,14.399 0.72,20.879 0,13.68 -0.72,27.359 -1.44,40.32 10.81,3.602 22.32,5.039 33.84,4.321 10.8,0 20.89,-0.719 30.96,-0.719 16.56,0 33.84,0.719 50.41,1.437 5.75,0 12.24,1.442 18.72,2.883 h 2.88 c 2.15,-1.441 3.59,-2.16 6.48,-2.16 1.45,0 3.59,0.719 5.75,2.16 l 38.88,18.719 c 0.72,0.719 1.44,0 2.17,-0.719 2.16,-12.961 5.03,-26.64 5.75,-39.601 2.16,-13.68 5.77,-27.36 12.25,-39.598 5.03,-12.242 9.36,-24.48 12.96,-36.723 0.71,-2.879 1.43,-6.48 2.15,-10.078 0,-2.16 0,-3.601 0,-5.761 0,-11.52 0.73,-23.04 2.17,-34.559 0,-1.441 0.71,-2.879 0.71,-3.602 0,-2.16 -0.71,-5.039 -2.15,-6.468 -9.37,-27.371 -23.76,-52.571 -42.49,-74.891 -7.92,-10.078 -18,-18.719 -28.79,-25.199 -5.05,-0.719 -10.09,-2.16 -14.41,-4.321 -5.04,-2.16 -8.63,-7.199 -8.63,-12.96 l -19.44,-23.04 c -0.73,-0.718 -1.44,-1.441 -1.44,-2.878 0,-1.442 0.71,-2.883 1.44,-2.883 h 71.27 c 7.92,0.722 13.68,7.203 13.68,14.402 0,0.719 0,0.719 0,1.438 0.72,1.441 2.16,3.601 3.61,4.32 h 1.44 c 0.71,-0.719 0.71,-2.16 0.71,-2.879 0.73,-2.16 2.16,-2.879 4.33,-2.879 v 0 c 2.88,0 5.03,1.438 6.47,4.32 0.72,1.438 2.16,4.321 2.88,6.481 4.32,5.758 7.92,12.238 10.08,19.437 l 10.81,26.641 c 5.76,15.121 12.95,28.082 20.87,41.039 2.88,6.481 6.48,12.242 10.8,18.723 5.04,7.918 9.36,15.84 12.97,25.199 2.87,6.48 6.47,11.519 11.52,16.559 1.43,2.16 2.15,5.039 2.15,7.921 0,1.438 0,2.161 -0.72,3.598 l -9.35,32.402 c -0.73,3.598 -1.44,9.36 -2.88,15.84 -1.45,9.36 -2.89,18.719 -5.04,28.078 -2.88,14.403 -2.17,28.801 0.71,43.2 0.72,5.043 3.61,10.082 6.48,14.41 7.21,-5.77 13.69,-11.528 19.44,-18.008 5.05,-5.762 9.36,-10.801 13.68,-15.84 5.77,-5.039 10.8,-10.082 15.84,-15.121 18.01,-15.84 37.44,-30.238 57.61,-43.199 10.08,-12.242 23.03,-23.762 35.99,-34.559 2.88,-2.16 5.06,-5.762 7.2,-9.363 3.6,-5.758 6.48,-12.238 7.92,-18.719 l 10.8,-30.961 6.48,-21.597 2.89,-17.282 c 2.88,-12.238 8.63,-23.761 16.55,-33.84 l 7.2,-9.359 8.64,-15.84 c 2.17,-3.601 5.04,-6.48 8.65,-7.922 0.71,0 1.44,0 1.44,0 1.45,0 2.88,0 3.59,0.723 3.6,-2.16 7.21,-4.32 10.08,-7.203 3.62,-1.438 5.76,-3.598 8.64,-5.758 1.45,-1.441 2.89,-2.879 5.04,-3.601 0.72,0 0.72,0 0.72,0 1.44,0 2.88,0.722 3.62,1.441 l 1.43,11.519 0.71,13.68 c 0,5.039 0.73,10.809 0.73,16.559 0,4.32 -0.73,8.64 -0.73,12.242 0,5.039 -0.71,9.359 -2.88,13.68 -2.88,4.32 -7.19,6.48 -12.23,7.199 -2.88,0 -5.77,0.719 -7.92,1.441 -0.73,0.719 -0.73,1.438 0,2.16 h 2.15 c 0.72,-0.722 2.16,-0.722 2.89,-0.722 h 2.15 c 0.73,0 1.44,0 1.44,0.722 0.72,0.719 0.72,0.719 0.72,1.438 0,0.723 0,1.441 -0.72,2.16 -0.71,2.16 -1.44,3.602 -2.87,5.043 -0.72,4.316 -2.89,7.918 -5.05,10.797 -2.88,4.32 -6.48,7.922 -10.06,11.519 l -5.78,5.043 c -2.15,2.879 -3.59,5.758 -5.03,9.36 l -17.28,46.801 -2.17,7.918 -4.31,15.121 c 0,0.718 0,0.718 0,1.441 0,0.719 0,0.719 0,1.438 -4.33,8.64 -7.21,17.281 -10.81,25.921 0,4.321 -0.72,7.2 -1.44,10.797 0,3.602 -1.44,7.203 -3.59,10.082 -2.89,2.879 -5.77,5.039 -9.35,6.481 l -5.78,3.597 -6.48,4.321 -0.71,0.722 -10.09,7.2 c -5.04,4.32 -10.8,8.64 -16.55,12.961 -8.65,8.64 -16.57,18.718 -22.33,30.238 -3.6,7.199 -5.76,15.84 -5.76,24.48 l 4.33,24.481 c 9.35,37.437 16.55,73.437 22.32,109.441 0,0.719 0,2.879 0,5.039 0,5.77 -0.73,11.52 -2.88,16.559 -1.44,4.32 -3.6,7.922 -5.77,11.519 1.44,2.161 3.6,4.321 5.06,6.481 2.14,2.879 4.3,5.762 5.74,9.359 4.32,7.922 6.48,16.563 6.48,25.922 0.73,3.598 2.18,6.481 4.32,9.359 0,0.719 0,0.719 0,0.719 0,3.602 -1.43,7.199 -4.32,9.36 -1.44,0.722 -3.6,2.16 -5.75,2.882 -2.17,0.719 -5.05,1.438 -7.2,1.438 -2.16,0 -4.33,0 -5.77,-0.719 -12.96,-5.039 -24.48,-12.961 -33.84,-23.039 -12.24,7.199 -25.91,11.52 -38.88,13.68 -25.91,3.597 -52.56,5.758 -78.47,5.758 -11.53,0 -22.31,-0.719 -33.85,-1.438 L 1521,890.992 c -10.08,0 -21.61,0 -33.85,0 -59.03,0 -118.8,-3.601 -177.84,-12.242 h -7.92 c -2.87,1.441 -5.76,3.602 -8.64,5.762 -4.32,2.879 -8.63,5.039 -13.68,5.758 l -2.88,1.441 -10.08,2.16 c -7.92,0.719 -15.11,1.438 -23.03,1.438 -16.57,0 -32.41,-1.438 -47.53,-4.317 -11.52,-2.883 -21.59,-6.48 -31.68,-10.801 -8.64,-2.882 -18,-5.043 -26.63,-5.043 -12.97,-2.156 -27.37,-3.597 -41.05,-2.878 -23.04,-1.438 -46.08,1.441 -68.4,7.921 l -2.88,3.598 c 3.61,7.922 10.8,15.121 19.45,18.012 l 20.87,5.031 c 8.64,-0.723 16.56,-0.723 24.48,-0.723 4.32,0 7.92,0 11.53,0 1.44,0 2.88,0 3.59,0 10.8,0 21.61,0.723 31.68,2.879 15.13,2.883 30.24,7.203 44.64,12.961 4.32,0.723 9.36,0.723 14.4,-0.719 4.32,-1.441 8.64,-2.878 12.97,-3.589 l 7.92,-1.45 h 11.51 c 4.33,0.719 8.64,1.45 13.69,3.598 3.59,1.441 7.19,3.602 10.07,6.481 0,0.718 0,0.718 0,1.441 0,0.719 0,1.437 -1.44,2.16 -2.88,1.438 -5.76,1.438 -8.63,1.438 -5.05,0.722 -10.09,1.441 -15.13,2.882 -6.48,2.161 -12.96,5.758 -17.99,10.797 -0.73,1.442 0,2.883 0.71,3.602 10.08,13.68 17.28,28.801 21.6,45.359 3.6,15.121 5.04,30.241 5.04,46.081 0,7.2 0,15.12 -0.71,22.32 -2.88,12.96 -5.77,25.92 -8.65,38.88 -1.44,5.76 0,10.08 2.88,12.96 5.04,5.04 10.08,10.08 15.84,15.12 2.16,4.32 5.77,8.64 8.64,12.96 2.17,3.6 4.32,7.92 5.05,12.24 0,0 0.71,0.72 0.71,1.45 0,0.71 -0.71,2.15 -1.44,2.87 -0.71,0 -1.44,0 -1.44,0 -0.71,0 -2.16,0 -2.88,-0.72 -2.16,-1.44 -5.04,-3.6 -7.2,-5.76 -2.88,-2.16 -7.2,-5.76 -12.24,-10.08 l -12.24,-7.2 c -1.44,0 -3.6,0 -5.04,0.72 -1.44,2.88 -2.88,5.76 -3.6,8.64 -1.44,4.32 -2.16,7.92 -2.88,12.24 -1.44,5.76 -1.44,10.81 -2.15,15.13 0.71,2.87 1.44,5.03 2.15,7.92 l 4.33,5.75 10.07,10.81 7.21,8.63 c 3.59,2.88 6.47,6.48 9.36,10.8 2.87,5.04 4.31,10.81 4.31,16.56 0,2.16 0,3.6 -0.72,5.04 v 0.72 c 0,3.6 -0.72,7.2 -2.15,10.8 0,1.44 -1.44,2.88 -2.17,3.6 -0.71,0 -0.71,0 -1.44,0 -1.44,0 -2.16,-0.72 -2.88,-1.43 -1.43,-2.89 -2.16,-5.77 -2.87,-8.65 0,-2.15 -0.73,-5.04 -2.17,-7.19 -1.44,-5.05 -5.75,-8.64 -10.08,-10.8 -1.44,-0.72 -2.88,-1.45 -5.03,-2.17 H 1215 c -1.45,0 -2.17,0.72 -2.89,2.17 l -2.88,6.47 -3.6,10.8 c 0,1.44 -1.44,3.6 -2.88,4.33 l -5.04,2.15 c -2.88,1.44 -5.03,2.89 -6.47,5.05 -1.45,2.16 -2.89,3.6 -5.05,5.03 l -0.72,0.72 c -0.71,0 -0.71,0 -0.71,0 -1.44,-1.43 -2.88,-2.87 -2.88,-5.02 v 0 c 0,-1.46 0,-2.89 0,-3.62 0,-3.6 0.71,-6.48 1.44,-9.36 2.15,-5.75 4.31,-11.52 6.47,-17.27 0,-2.89 0.72,-5.77 0.72,-8.65 0,-4.32 -0.72,-8.64 -2.16,-12.96 -0.72,-3.6 -2.16,-7.19 -4.32,-11.52 -0.71,-1.44 -2.88,-2.87 -4.32,-4.32 -1.44,-0.72 -2.87,-0.72 -4.31,0.72 -2.17,3.6 -5.05,6.49 -6.48,10.09 -3.61,4.31 -7.21,9.35 -9.36,13.67 -1.44,3.6 -2.17,6.48 -2.89,10.08 0.72,2.16 0.72,5.05 0.72,7.2 0,6.48 -0.72,12.96 -1.44,18.72 l -7.92,11.52 c -0.72,0 -1.44,0.72 -2.16,0.72 0,0 -0.71,0 -1.44,-0.72 v -0.71 l -0.71,-2.16 c 0,8.63 0,0.72 0,-7.21 -1.44,-12.95 -4.33,-21.59 -7.92,-29.52 -1.44,-5.04 -5.05,-8.64 -9.36,-10.8 -1.44,0 -2.17,0 -3.61,0.72 -2.87,2.88 -5.04,5.76 -7.92,8.64 -0.72,2.16 -0.72,3.6 -1.44,5.04 -0.72,2.89 -1.43,5.05 -2.16,7.92 -0.71,3.6 -2.15,7.2 -3.6,10.8 -0.72,0 -1.44,0.72 -2.16,0.72 -0.72,0 -1.43,-0.72 -2.16,-0.72 -0.71,-1.44 -1.44,-2.16 -1.44,-2.88 -0.71,-3.6 -2.16,-7.2 -2.88,-11.51 -0.72,-0.72 -1.44,-1.44 -2.88,-1.44 -2.87,0 -6.48,1.44 -7.92,4.31 -2.87,1.44 -4.31,4.32 -5.04,7.2 -0.72,1.44 -1.44,3.61 -2.16,5.04 l -2.88,5.04 c 0,0 -0.71,0.72 -1.44,0.72 0,0 0,0 -0.71,0 v 0 c -0.73,0 -1.45,-0.72 -2.17,-0.72 0,-0.71 -0.72,-1.44 -0.72,-2.88 -0.72,-2.16 -0.72,-3.59 -0.72,-5.76 0,-3.6 0.72,-7.2 1.44,-10.08 2.88,-18.72 13.68,-36 28.81,-47.52 4.31,-2.88 8.63,-5.04 12.95,-7.92 7.92,-3.6 15.12,-7.91 21.61,-12.96 2.87,-2.88 5.75,-5.76 7.92,-10.08 4.31,-5.76 8.63,-11.52 12.96,-17.28 7.19,-7.92 12.23,-14.4 17.99,-21.6 5.04,-9.36 10.08,-21.6 12.24,-34.56 0,-0.72 0,-1.44 0,-1.44 0,-1.44 0,-2.16 1.44,-2.88 2.16,-10.08 3.6,-20.16 3.6,-30.96 0.73,-2.16 0.73,-4.32 0.73,-7.2 0,-13.68 -2.88,-27.36 -7.21,-40.32 -4.32,-12.96 -12.95,-24.48 -24.48,-31.679 -11.52,-7.922 -25.19,-12.961 -38.88,-14.403 -5.03,-0.718 -9.36,-0.718 -13.68,0.723 -2.16,1.438 -2.88,3.598 -2.16,5.039 0,2.16 0,3.602 0.72,4.32 l 2.88,10.801 5.04,12.957 c 0.73,0.723 0.73,1.442 0.73,2.16 0,0.723 0,1.442 -0.73,2.161 -0.72,0.722 -2.16,1.441 -2.88,1.441 h -0.72 c -2.15,-1.441 -3.59,-2.16 -5.04,-4.32 -3.59,-3.598 -7.2,-7.918 -10.08,-12.239 -1.44,-2.882 -3.6,-5.761 -5.75,-8.64 -2.17,-3.602 -4.33,-7.199 -7.92,-10.082 l -6.48,-3.598 c -7.21,0 -14.4,-1.441 -22.32,-2.16 h -7.21 c -2.15,0.719 -3.59,2.879 -4.32,5.039 -2.16,8.641 -3.6,17.281 -3.6,26.641 0,2.16 0,4.32 0.72,6.48 l 2.17,5.758 2.15,7.922 c 1.44,3.599 2.17,7.199 2.17,10.799 0,0.72 0,1.44 0,2.16 0,1.44 0,2.88 0,4.32 -0.73,4.32 -1.44,8.64 -0.73,12.96 0,2.88 0.73,5.76 1.44,8.64 l 1.44,4.32 v 1.44 c 0,0.72 -0.72,1.44 -1.44,1.44 v 0 c -0.71,0 -1.44,0 -1.44,0 -2.15,-1.44 -3.59,-2.88 -4.32,-4.32 -4.31,-3.6 -6.48,-8.64 -8.64,-13.68 l -2.16,-7.92 c -0.72,-0.72 -1.43,-2.15 -2.16,-4.32 l -4.32,-10.08 c -0.72,-2.16 -2.16,-4.322 -4.31,-6.478 -1.44,-0.723 -2.89,-0.723 -3.61,0.719 -4.31,2.879 -6.48,7.919 -8.64,12.959 l -1.44,5.05 c -0.72,2.15 -2.15,5.03 -3.59,7.19 -2.17,2.16 -3.609,5.76 -4.328,9.36 -1.437,2.16 -1.437,5.04 -2.156,7.92 -1.441,2.88 -2.164,5.76 -3.606,8.64 -0.714,0.72 -0.714,0.72 -2.156,0.72 0,0 -0.722,0 -1.441,-0.72 -0.715,-0.72 -1.442,-0.72 -1.442,-2.16 -0.714,-1.44 -1.437,-3.6 -1.437,-5.04 -0.719,-2.16 -1.441,-3.6 -1.441,-6.48 0,-4.32 -0.719,-9.36 -0.719,-14.4 0,-0.72 0,-0.72 0,-0.72 0,-2.16 -1.442,-3.6 -3.598,-3.6 -3.601,0 -7.203,0.72 -10.082,2.88 -2.883,2.16 -5.039,4.32 -7.199,7.92 -0.723,0.72 -1.442,0.72 -2.16,1.44 0,0.72 -0.719,0.72 -0.719,0.72 -0.723,0 -1.441,-0.72 -1.441,-0.72 -0.723,-0.72 -0.723,-1.44 -1.442,-2.16 v -4.32 l 1.442,-5.76 0.718,-2.88 2.16,-4.32 3.602,-4.32 c 4.32,-5.031 10.078,-8.641 15.84,-11.52 5.039,-3.601 10.078,-7.921 15.121,-11.519 4.314,-4.32 8.634,-8.641 11.514,-14.402 2.89,-3.598 4.33,-7.918 5.77,-12.239 0.71,-2.879 0.71,-5.039 0.71,-7.922 0,-0.718 0,-2.16 0,-2.878 0,-2.879 -1.44,-6.481 -4.32,-7.918 -1.44,-1.442 -3.6,-0.723 -5.04,0 -2.88,3.597 -7.2,5.757 -11.517,8.636 -6.476,2.883 -13.68,5.762 -21.598,7.203 -5.761,1.438 -12.96,2.879 -19.441,3.598 -7.199,0.723 -13.68,5.762 -18.004,11.52 -4.312,7.203 -7.195,15.121 -8.637,23.761 l -1.437,7.918 c 0,2.882 -0.719,4.322 -1.441,7.202 0,0.72 -0.719,1.45 -2.161,1.45 v 0 c -0.722,0 -1.437,-0.73 -2.164,-1.45 l -0.715,-2.88 c -1.441,-2.88 -1.441,-5.759 -2.164,-9.361 0,-2.148 0,-5.039 0,-7.918 0,-2.16 0,-4.32 0,-7.199 0,0.719 0,0 0,0 0,-2.16 -0.718,-4.32 -1.433,-6.48 -1.442,-1.442 -3.606,-1.442 -3.606,0 -2.16,3.597 -4.316,7.918 -5.039,11.519 -1.441,5.039 -3.597,10.078 -5.039,15.117 -0.722,2.162 -1.441,5.042 -2.156,7.202 -0.727,5.04 -1.441,10.08 -0.727,15.12 0,0 0,0 0,0.72 0,0.72 -0.714,1.44 -1.437,2.16 -0.719,0 -0.719,0 -1.441,0 0,0 -0.719,-0.72 -1.442,-0.72 -2.156,-1.44 -3.598,-3.6 -4.316,-5.76 -0.723,-1.44 -1.442,-3.6 -2.16,-5.04 0,-1.44 0,-2.88 0,-4.32 -0.719,-0.71 -0.719,-0.71 -1.442,-1.44 -0.719,0 -0.719,-0.72 -1.441,0 -0.719,0 -1.438,0.73 -2.157,1.44 l -1.441,2.16 c 0,0.72 -0.719,1.44 -1.441,1.44 v 0 c -0.719,0 -1.442,0 -1.442,-0.72 -0.718,-0.72 -1.437,-1.44 -1.437,-2.16" /><path
         id="path3950"
         style="fill:none;stroke:#231f20;stroke-width:2.1500001;stroke-linecap:butt;stroke-linejoin:miter;stroke-miterlimit:4;stroke-dasharray:none;stroke-opacity:1"
         d="m 876.594,1009.07 -0.719,-1.43 c 0,-0.73 0,-1.45 0,-2.89 0,-4.32 1.438,-9.359 3.598,-13.68 2.164,-3.601 3.601,-7.199 5.039,-10.082 0,-1.437 0,-2.879 0,-4.316 0,0 0,-0.723 0,-1.442 0,-1.441 -0.719,-2.878 -1.438,-3.601 h -2.16 c -3.601,0.723 -6.48,3.601 -8.641,6.48 l -1.437,2.879 c -0.723,3.602 -1.441,7.203 -2.883,11.524 0,0 -0.719,0 -1.437,0 v 0 c -0.719,0 -1.442,0 -2.161,-0.711 -2.878,-2.891 -5.042,-6.492 -5.761,-10.09 0,-2.16 -0.719,-5.039 -0.719,-6.481 0,-1.441 0,-3.601 0.719,-4.32 1.441,-6.48 5.039,-12.238 8.64,-17.281 1.438,-2.16 2.879,-3.598 2.879,-5.758 0,-0.723 0,-1.441 0,-1.441 0,-1.442 0,-2.879 -0.718,-3.598 -3.598,-2.883 -7.918,-4.32 -12.243,-4.32 -2.156,0 -5.039,0 -7.918,0 -1.441,-0.723 -1.441,-2.16 -1.441,-2.883 v 0 c 0,-3.598 2.164,-6.481 4.32,-8.641 4.325,-3.597 9.364,-5.758 14.403,-7.199 4.32,-1.437 8.64,-2.148 12.238,-2.148 0.719,0 0.719,0 1.441,0 h 10.078 c 9.36,1.429 16.563,2.148 23.758,3.589 7.203,0.719 15.125,2.161 23.043,2.161 9.364,0 18.723,-0.719 28.082,-2.879 l 11.52,-3.602 4.32,-2.879 1.438,-2.16 c 2.16,-1.441 3.601,-4.32 3.601,-7.199 v 0 c 0,-2.16 -1.441,-3.602 -3.601,-4.32 -0.719,0 -1.438,0 -2.879,0 -1.442,0 -2.879,0 -3.602,0 l -13.68,-4.321 c -1.437,-0.722 -2.878,-0.722 -4.32,0 -5.762,1.438 -10.801,2.16 -16.562,2.16 -2.157,0 -5.039,0 -7.196,-0.722 -7.922,-0.719 -14.398,-3.598 -20.879,-8.637 -6.48,0.719 -12.964,0.719 -19.445,0.719 -19.437,0 -39.598,-1.442 -59.035,-5.039 h -5.039 c -2.883,0.718 -5.766,0.718 -8.645,0.718 -2.882,0 -5.757,0 -8.636,-0.718 -5.039,-1.442 -9.364,-4.321 -13.684,-7.922 -5.039,-4.32 -7.918,-10.078 -8.637,-16.559 0,-1.441 0,-3.601 0,-5.043 0,-2.879 0,-5.758 0.719,-9.359 0.723,-3.598 2.16,-7.199 3.598,-10.797 l 7.922,-14.402 c 0.718,-1.442 2.16,-2.16 3.601,-3.598 l 7.195,-2.16 c -0.714,-1.442 -1.437,-3.602 -1.437,-5.043 0,-0.719 0.723,-2.16 1.437,-3.598 2.165,-5.039 6.481,-7.922 11.528,-9.359 4.312,-1.442 9.351,-2.16 13.676,-2.16 2.879,0 6.476,0 9.359,0.718 l 10.082,2.161 c 2.879,0.718 5.758,-0.719 7.922,-2.879 9.359,-6.481 20.156,-11.52 31.68,-15.121 12.234,-2.879 24.476,-5.762 37.433,-7.2 5.766,-0.722 11.528,-2.16 16.567,-5.043 4.32,-2.16 7.918,-5.757 10.078,-10.078 3.601,-5.039 7.199,-9.359 10.8,-13.679 l 7.2,-5.039 3.597,-3.602 4.325,-2.879 6.476,-7.199 v 0 c 0,-0.723 0,-1.442 0.719,-2.16 2.164,-6.481 5.039,-12.961 8.648,-19.442 0,-1.441 0.71,-2.879 2.15,-4.32 l 5.04,-7.199 h 1.44 c 0.73,-2.16 2.88,-3.602 5.76,-4.321 l 7.92,-10.082 2.16,-2.878 h 0.73 l 8.63,-5.758 c 3.6,-5.762 9.36,-10.082 15.84,-12.953 l 2.88,-0.727 c 0.72,-0.723 1.44,-0.723 2.16,-0.723 v 0 l 3.61,-3.597 10.07,-6.481 c 2.88,0 5.77,-1.441 7.92,-2.883 3.6,-2.16 7.21,-2.878 11.52,-2.878 1.44,0 2.17,-0.719 2.88,-2.161 5.04,-0.718 9.36,-2.16 14.4,-2.879 2.17,0 4.32,0.719 5.76,2.161 0.72,0 1.44,0 1.44,-0.719 1.45,0.719 2.16,0 3.6,-0.723 1.44,0.723 2.88,1.442 4.32,2.16 0.72,0 0.72,0 0.72,0 0.73,0 2.17,0 2.88,0.723 0.73,0.719 2.16,1.438 3.6,0.719 2.17,1.437 4.32,0.719 5.76,-1.442 9.36,-7.918 19.44,-15.117 30.24,-20.16 -2.88,-13.679 -5.04,-28.078 -6.48,-41.758 -2.15,-16.55 -6.48,-32.402 -12.24,-47.519 -6.48,-14.402 -12.23,-29.524 -15.84,-44.641 -0.72,-5.043 -0.72,-10.082 -0.72,-15.121 0,-2.16 0,-3.601 0,-5.762 -4.32,-20.878 -13.68,-40.316 -27.35,-56.878 -6.49,-7.918 -12.24,-16.559 -17.28,-25.2 -1.44,-0.718 -2.17,-1.429 -2.88,-2.16 l -11.53,-5.039 -4.31,-2.152 -5.77,-3.61 c -3.6,0 -7.19,-0.718 -10.07,-1.437 -4.33,-0.723 -7.21,-2.883 -9.36,-5.762 -1.45,-2.16 -2.89,-3.601 -3.61,-6.48 0,-0.719 0,-2.16 0,-2.879 0,-0.719 0,-1.442 0,-2.16 l -16.56,-20.879 c -0.71,-0.723 -1.44,-1.442 -1.44,-2.16 0,-1.442 1.44,-2.883 2.88,-2.883 l 74.16,-0.719 c 4.33,2.879 7.2,6.48 9.36,11.52 0,2.878 1.45,5.761 2.16,8.64 h 2.17 c 0.71,-2.16 1.43,-4.32 2.15,-6.48 l 2.16,-2.879 h 2.88 l 10.8,12.961 c 6.48,8.636 10.08,18.718 12.25,28.797 2.15,14.402 5.75,27.363 9.36,39.601 2.87,9.36 6.48,18.719 10.07,27.36 l 3.6,7.921 c 1.44,2.879 3.61,5.758 5.76,8.641 4.33,3.598 6.48,7.918 9.36,12.957 4.33,12.242 7.2,19.441 10.08,27.359 l 20.16,40.321 c 7.21,11.519 13.69,23.043 19.44,33.84 5.05,12.242 10.09,24.48 15.84,35.281 l 13.68,0.719 c 4.33,-15.118 9.36,-30.239 15.13,-44.637 5.03,-12.953 8.63,-27.363 10.07,-41.043 1.44,-12.957 2.88,-25.918 6.48,-38.16 3.6,-7.199 9.36,-12.957 15.84,-16.559 l 6.48,-3.601 c 5.04,-5.039 10.09,-10.079 14.4,-15.118 10.09,-12.961 18.01,-26.64 24.48,-41.043 2.16,-5.757 5.76,-11.519 9.37,-16.558 8.63,-8.641 17.99,-17.281 26.64,-25.199 4.31,-5.762 9.36,-10.082 15.11,-12.961 1.44,-0.719 2.88,-1.438 5.04,-1.438 0.72,0 2.16,0 2.88,0.719 l 20.88,-12.961 c 1.44,-1.441 2.16,-2.16 3.61,-2.16 2.15,0 4.31,2.16 4.31,5.039 v 0 c 0,21.601 -2.16,43.203 -5.76,65.519 -2.88,5.762 -8.64,8.641 -15.12,8.641 h -0.72 l -8.64,-2.16 h -2.16 v 0.723 c 2.16,1.437 3.6,3.597 5.04,5.039 v 0.718 c 0,1.442 -0.71,2.883 -1.44,3.602 -2.88,2.879 -7.19,4.32 -10.8,4.32 -2.87,4.321 -7.2,7.199 -12.23,8.641 -5.05,2.16 -10.09,5.758 -13.69,9.359 l -10.8,10.801 c -3.6,4.316 -7.19,8.637 -10.8,13.68 0,1.437 -0.72,2.16 -2.16,2.879 -1.44,2.168 -2.88,5.039 -5.03,7.199 -0.73,9.359 -2.89,18.719 -5.04,27.359 -2.88,10.082 -4.33,20.16 -4.33,30.242 l -0.72,18.719 c 0.72,7.922 0.72,14.399 0.72,20.879 0,13.68 -0.72,27.359 -1.44,40.32 10.81,3.602 22.32,5.039 33.84,4.321 10.8,0 20.89,-0.719 30.96,-0.719 16.56,0 33.84,0.719 50.41,1.437 5.75,0 12.24,1.442 18.72,2.883 h 2.88 c 2.15,-1.441 3.59,-2.16 6.48,-2.16 1.45,0 3.59,0.719 5.75,2.16 l 38.88,18.719 c 0.72,0.719 1.44,0 2.17,-0.719 2.16,-12.961 5.03,-26.64 5.75,-39.601 2.16,-13.68 5.77,-27.36 12.25,-39.598 5.03,-12.242 9.36,-24.48 12.96,-36.723 0.71,-2.879 1.43,-6.48 2.15,-10.078 0,-2.16 0,-3.601 0,-5.761 0,-11.52 0.73,-23.04 2.17,-34.559 0,-1.441 0.71,-2.879 0.71,-3.602 0,-2.16 -0.71,-5.039 -2.15,-6.468 -9.37,-27.371 -23.76,-52.571 -42.49,-74.891 -7.92,-10.078 -18,-18.719 -28.79,-25.199 -5.05,-0.719 -10.09,-2.16 -14.41,-4.321 -5.04,-2.16 -8.63,-7.199 -8.63,-12.96 l -19.44,-23.04 c -0.73,-0.718 -1.44,-1.441 -1.44,-2.878 0,-1.442 0.71,-2.883 1.44,-2.883 h 71.27 c 7.92,0.722 13.68,7.203 13.68,14.402 0,0.719 0,0.719 0,1.438 0.72,1.441 2.16,3.601 3.61,4.32 h 1.44 c 0.71,-0.719 0.71,-2.16 0.71,-2.879 0.73,-2.16 2.16,-2.879 4.33,-2.879 v 0 c 2.88,0 5.03,1.438 6.47,4.32 0.72,1.438 2.16,4.321 2.88,6.481 4.32,5.758 7.92,12.238 10.08,19.437 l 10.81,26.641 c 5.76,15.121 12.95,28.082 20.87,41.039 2.88,6.481 6.48,12.242 10.8,18.723 5.04,7.918 9.36,15.84 12.97,25.199 2.87,6.48 6.47,11.519 11.52,16.559 1.43,2.16 2.15,5.039 2.15,7.921 0,1.438 0,2.161 -0.72,3.598 l -9.35,32.402 c -0.73,3.598 -1.44,9.36 -2.88,15.84 -1.45,9.36 -2.89,18.719 -5.04,28.078 -2.88,14.403 -2.17,28.801 0.71,43.2 0.72,5.043 3.61,10.082 6.48,14.41 7.21,-5.77 13.69,-11.528 19.44,-18.008 5.05,-5.762 9.36,-10.801 13.68,-15.84 5.77,-5.039 10.8,-10.082 15.84,-15.121 18.01,-15.84 37.44,-30.238 57.61,-43.199 10.08,-12.242 23.03,-23.762 35.99,-34.559 2.88,-2.16 5.06,-5.762 7.2,-9.363 3.6,-5.758 6.48,-12.238 7.92,-18.719 l 10.8,-30.961 6.48,-21.597 2.89,-17.282 c 2.88,-12.238 8.63,-23.761 16.55,-33.84 l 7.2,-9.359 8.64,-15.84 c 2.17,-3.601 5.04,-6.48 8.65,-7.922 0.71,0 1.44,0 1.44,0 1.45,0 2.88,0 3.59,0.723 3.6,-2.16 7.21,-4.32 10.08,-7.203 3.62,-1.438 5.76,-3.598 8.64,-5.758 1.45,-1.441 2.89,-2.879 5.04,-3.601 0.72,0 0.72,0 0.72,0 1.44,0 2.88,0.722 3.62,1.441 l 1.43,11.519 0.71,13.68 c 0,5.039 0.73,10.809 0.73,16.559 0,4.32 -0.73,8.64 -0.73,12.242 0,5.039 -0.71,9.359 -2.88,13.68 -2.88,4.32 -7.19,6.48 -12.23,7.199 -2.88,0 -5.77,0.719 -7.92,1.441 -0.73,0.719 -0.73,1.438 0,2.16 h 2.15 c 0.72,-0.722 2.16,-0.722 2.89,-0.722 h 2.15 c 0.73,0 1.44,0 1.44,0.722 0.72,0.719 0.72,0.719 0.72,1.438 0,0.723 0,1.441 -0.72,2.16 -0.71,2.16 -1.44,3.602 -2.87,5.043 -0.72,4.316 -2.89,7.918 -5.05,10.797 -2.88,4.32 -6.48,7.922 -10.06,11.519 l -5.78,5.043 c -2.15,2.879 -3.59,5.758 -5.03,9.36 l -17.28,46.801 -2.17,7.918 -4.31,15.121 c 0,0.718 0,0.718 0,1.441 0,0.719 0,0.719 0,1.438 -4.33,8.64 -7.21,17.281 -10.81,25.921 0,4.321 -0.72,7.2 -1.44,10.797 0,3.602 -1.44,7.203 -3.59,10.082 -2.89,2.879 -5.77,5.039 -9.35,6.481 l -5.78,3.597 -6.48,4.321 -0.71,0.722 -10.09,7.2 c -5.04,4.32 -10.8,8.64 -16.55,12.961 -8.65,8.64 -16.57,18.718 -22.33,30.238 -3.6,7.199 -5.76,15.84 -5.76,24.48 l 4.33,24.481 c 9.35,37.437 16.55,73.437 22.32,109.441 0,0.719 0,2.879 0,5.039 0,5.77 -0.73,11.52 -2.88,16.559 -1.44,4.32 -3.6,7.922 -5.77,11.519 1.44,2.161 3.6,4.321 5.06,6.481 2.14,2.879 4.3,5.762 5.74,9.359 4.32,7.922 6.48,16.563 6.48,25.922 0.73,3.598 2.18,6.481 4.32,9.359 0,0.719 0,0.719 0,0.719 0,3.602 -1.43,7.199 -4.32,9.36 -1.44,0.722 -3.6,2.16 -5.75,2.882 -2.17,0.719 -5.05,1.438 -7.2,1.438 -2.16,0 -4.33,0 -5.77,-0.719 -12.96,-5.039 -24.48,-12.961 -33.84,-23.039 -12.24,7.199 -25.91,11.52 -38.88,13.68 -25.91,3.597 -52.56,5.758 -78.47,5.758 -11.53,0 -22.31,-0.719 -33.85,-1.438 L 1521,890.992 c -10.08,0 -21.61,0 -33.85,0 -59.03,0 -118.8,-3.601 -177.84,-12.242 h -7.92 c -2.87,1.441 -5.76,3.602 -8.64,5.762 -4.32,2.879 -8.63,5.039 -13.68,5.758 l -2.88,1.441 -10.08,2.16 c -7.92,0.719 -15.11,1.438 -23.03,1.438 -16.57,0 -32.41,-1.438 -47.53,-4.317 -11.52,-2.883 -21.59,-6.48 -31.68,-10.801 -8.64,-2.882 -18,-5.043 -26.63,-5.043 -12.97,-2.156 -27.37,-3.597 -41.05,-2.878 -23.04,-1.438 -46.08,1.441 -68.4,7.921 l -2.88,3.598 c 3.61,7.922 10.8,15.121 19.45,18.012 l 20.87,5.031 c 8.64,-0.723 16.56,-0.723 24.48,-0.723 4.32,0 7.92,0 11.53,0 1.44,0 2.88,0 3.59,0 10.8,0 21.61,0.723 31.68,2.879 15.13,2.883 30.24,7.203 44.64,12.961 4.32,0.723 9.36,0.723 14.4,-0.719 4.32,-1.441 8.64,-2.878 12.97,-3.589 l 7.92,-1.45 h 11.51 c 4.33,0.719 8.64,1.45 13.69,3.598 3.59,1.441 7.19,3.602 10.07,6.481 0,0.718 0,0.718 0,1.441 0,0.719 0,1.437 -1.44,2.16 -2.88,1.438 -5.76,1.438 -8.63,1.438 -5.05,0.722 -10.09,1.441 -15.13,2.882 -6.48,2.161 -12.96,5.758 -17.99,10.797 -0.73,1.442 0,2.883 0.71,3.602 10.08,13.68 17.28,28.801 21.6,45.359 3.6,15.121 5.04,30.241 5.04,46.081 0,7.2 0,15.12 -0.71,22.32 -2.88,12.96 -5.77,25.92 -8.65,38.88 -1.44,5.76 0,10.08 2.88,12.96 5.04,5.04 10.08,10.08 15.84,15.12 2.16,4.32 5.77,8.64 8.64,12.96 2.17,3.6 4.32,7.92 5.05,12.24 0,0 0.71,0.72 0.71,1.45 0,0.71 -0.71,2.15 -1.44,2.87 -0.71,0 -1.44,0 -1.44,0 -0.71,0 -2.16,0 -2.88,-0.72 -2.16,-1.44 -5.04,-3.6 -7.2,-5.76 -2.88,-2.16 -7.2,-5.76 -12.24,-10.08 l -12.24,-7.2 c -1.44,0 -3.6,0 -5.04,0.72 -1.44,2.88 -2.88,5.76 -3.6,8.64 -1.44,4.32 -2.16,7.92 -2.88,12.24 -1.44,5.76 -1.44,10.81 -2.15,15.13 0.71,2.87 1.44,5.03 2.15,7.92 l 4.33,5.75 10.07,10.81 7.21,8.63 c 3.59,2.88 6.47,6.48 9.36,10.8 2.87,5.04 4.31,10.81 4.31,16.56 0,2.16 0,3.6 -0.72,5.04 v 0.72 c 0,3.6 -0.72,7.2 -2.15,10.8 0,1.44 -1.44,2.88 -2.17,3.6 -0.71,0 -0.71,0 -1.44,0 -1.44,0 -2.16,-0.72 -2.88,-1.43 -1.43,-2.89 -2.16,-5.77 -2.87,-8.65 0,-2.15 -0.73,-5.04 -2.17,-7.19 -1.44,-5.05 -5.75,-8.64 -10.08,-10.8 -1.44,-0.72 -2.88,-1.45 -5.03,-2.17 H 1215 c -1.45,0 -2.17,0.72 -2.89,2.17 l -2.88,6.47 -3.6,10.8 c 0,1.44 -1.44,3.6 -2.88,4.33 l -5.04,2.15 c -2.88,1.44 -5.03,2.89 -6.47,5.05 -1.45,2.16 -2.89,3.6 -5.05,5.03 l -0.72,0.72 c -0.71,0 -0.71,0 -0.71,0 -1.44,-1.43 -2.88,-2.87 -2.88,-5.02 v 0 c 0,-1.46 0,-2.89 0,-3.62 0,-3.6 0.71,-6.48 1.44,-9.36 2.15,-5.75 4.31,-11.52 6.47,-17.27 0,-2.89 0.72,-5.77 0.72,-8.65 0,-4.32 -0.72,-8.64 -2.16,-12.96 -0.72,-3.6 -2.16,-7.19 -4.32,-11.52 -0.71,-1.44 -2.88,-2.87 -4.32,-4.32 -1.44,-0.72 -2.87,-0.72 -4.31,0.72 -2.17,3.6 -5.05,6.49 -6.48,10.09 -3.61,4.31 -7.21,9.35 -9.36,13.67 -1.44,3.6 -2.17,6.48 -2.89,10.08 0.72,2.16 0.72,5.05 0.72,7.2 0,6.48 -0.72,12.96 -1.44,18.72 l -7.92,11.52 c -0.72,0 -1.44,0.72 -2.16,0.72 0,0 -0.71,0 -1.44,-0.72 v -0.71 l -0.71,-2.16 c 0,8.63 0,0.72 0,-7.21 -1.44,-12.95 -4.33,-21.59 -7.92,-29.52 -1.44,-5.04 -5.05,-8.64 -9.36,-10.8 -1.44,0 -2.17,0 -3.61,0.72 -2.87,2.88 -5.04,5.76 -7.92,8.64 -0.72,2.16 -0.72,3.6 -1.44,5.04 -0.72,2.89 -1.43,5.05 -2.16,7.92 -0.71,3.6 -2.15,7.2 -3.6,10.8 -0.72,0 -1.44,0.72 -2.16,0.72 -0.72,0 -1.43,-0.72 -2.16,-0.72 -0.71,-1.44 -1.44,-2.16 -1.44,-2.88 -0.71,-3.6 -2.16,-7.2 -2.88,-11.51 -0.72,-0.72 -1.44,-1.44 -2.88,-1.44 -2.87,0 -6.48,1.44 -7.92,4.31 -2.87,1.44 -4.31,4.32 -5.04,7.2 -0.72,1.44 -1.44,3.61 -2.16,5.04 l -2.88,5.04 c 0,0 -0.71,0.72 -1.44,0.72 0,0 0,0 -0.71,0 v 0 c -0.73,0 -1.45,-0.72 -2.17,-0.72 0,-0.71 -0.72,-1.44 -0.72,-2.88 -0.72,-2.16 -0.72,-3.59 -0.72,-5.76 0,-3.6 0.72,-7.2 1.44,-10.08 2.88,-18.72 13.68,-36 28.81,-47.52 4.31,-2.88 8.63,-5.04 12.95,-7.92 7.92,-3.6 15.12,-7.91 21.61,-12.96 2.87,-2.88 5.75,-5.76 7.92,-10.08 4.31,-5.76 8.63,-11.52 12.96,-17.28 7.19,-7.92 12.23,-14.4 17.99,-21.6 5.04,-9.36 10.08,-21.6 12.24,-34.56 0,-0.72 0,-1.44 0,-1.44 0,-1.44 0,-2.16 1.44,-2.88 2.16,-10.08 3.6,-20.16 3.6,-30.96 0.73,-2.16 0.73,-4.32 0.73,-7.2 0,-13.68 -2.88,-27.36 -7.21,-40.32 -4.32,-12.96 -12.95,-24.48 -24.48,-31.679 -11.52,-7.922 -25.19,-12.961 -38.88,-14.403 -5.03,-0.718 -9.36,-0.718 -13.68,0.723 -2.16,1.438 -2.88,3.598 -2.16,5.039 0,2.16 0,3.602 0.72,4.32 l 2.88,10.801 5.04,12.957 c 0.73,0.723 0.73,1.442 0.73,2.16 0,0.723 0,1.442 -0.73,2.161 -0.72,0.722 -2.16,1.441 -2.88,1.441 h -0.72 c -2.15,-1.441 -3.59,-2.16 -5.04,-4.32 -3.59,-3.598 -7.2,-7.918 -10.08,-12.239 -1.44,-2.882 -3.6,-5.761 -5.75,-8.64 -2.17,-3.602 -4.33,-7.199 -7.92,-10.082 l -6.48,-3.598 c -7.21,0 -14.4,-1.441 -22.32,-2.16 h -7.21 c -2.15,0.719 -3.59,2.879 -4.32,5.039 -2.16,8.641 -3.6,17.281 -3.6,26.641 0,2.16 0,4.32 0.72,6.48 l 2.17,5.758 2.15,7.922 c 1.44,3.599 2.17,7.199 2.17,10.799 0,0.72 0,1.44 0,2.16 0,1.44 0,2.88 0,4.32 -0.73,4.32 -1.44,8.64 -0.73,12.96 0,2.88 0.73,5.76 1.44,8.64 l 1.44,4.32 v 1.44 c 0,0.72 -0.72,1.44 -1.44,1.44 v 0 c -0.71,0 -1.44,0 -1.44,0 -2.15,-1.44 -3.59,-2.88 -4.32,-4.32 -4.31,-3.6 -6.48,-8.64 -8.64,-13.68 l -2.16,-7.92 c -0.72,-0.72 -1.43,-2.15 -2.16,-4.32 l -4.32,-10.08 c -0.72,-2.16 -2.16,-4.322 -4.31,-6.478 -1.44,-0.723 -2.89,-0.723 -3.61,0.719 -4.31,2.879 -6.48,7.919 -8.64,12.959 l -1.44,5.05 c -0.72,2.15 -2.15,5.03 -3.59,7.19 -2.17,2.16 -3.609,5.76 -4.328,9.36 -1.437,2.16 -1.437,5.04 -2.156,7.92 -1.441,2.88 -2.164,5.76 -3.606,8.64 -0.714,0.72 -0.714,0.72 -2.156,0.72 0,0 -0.722,0 -1.441,-0.72 -0.715,-0.72 -1.442,-0.72 -1.442,-2.16 -0.714,-1.44 -1.437,-3.6 -1.437,-5.04 -0.719,-2.16 -1.441,-3.6 -1.441,-6.48 0,-4.32 -0.719,-9.36 -0.719,-14.4 0,-0.72 0,-0.72 0,-0.72 0,-2.16 -1.442,-3.6 -3.598,-3.6 -3.601,0 -7.203,0.72 -10.082,2.88 -2.883,2.16 -5.039,4.32 -7.199,7.92 -0.723,0.72 -1.442,0.72 -2.16,1.44 0,0.72 -0.719,0.72 -0.719,0.72 -0.723,0 -1.441,-0.72 -1.441,-0.72 -0.723,-0.72 -0.723,-1.44 -1.442,-2.16 v -4.32 l 1.442,-5.76 0.718,-2.88 2.16,-4.32 3.602,-4.32 c 4.32,-5.031 10.078,-8.641 15.84,-11.52 5.039,-3.601 10.078,-7.921 15.121,-11.519 4.314,-4.32 8.634,-8.641 11.514,-14.402 2.89,-3.598 4.33,-7.918 5.77,-12.239 0.71,-2.879 0.71,-5.039 0.71,-7.922 0,-0.718 0,-2.16 0,-2.878 0,-2.879 -1.44,-6.481 -4.32,-7.918 -1.44,-1.442 -3.6,-0.723 -5.04,0 -2.88,3.597 -7.2,5.757 -11.517,8.636 -6.476,2.883 -13.68,5.762 -21.598,7.203 -5.761,1.438 -12.96,2.879 -19.441,3.598 -7.199,0.723 -13.68,5.762 -18.004,11.52 -4.312,7.203 -7.195,15.121 -8.637,23.761 l -1.437,7.918 c 0,2.882 -0.719,4.322 -1.441,7.202 0,0.72 -0.719,1.45 -2.161,1.45 v 0 c -0.722,0 -1.437,-0.73 -2.164,-1.45 l -0.715,-2.88 c -1.441,-2.88 -1.441,-5.759 -2.164,-9.361 0,-2.148 0,-5.039 0,-7.918 0,-2.16 0,-4.32 0,-7.199 0,0.719 0,0 0,0 0,-2.16 -0.718,-4.32 -1.433,-6.48 -1.442,-1.442 -3.606,-1.442 -3.606,0 -2.16,3.597 -4.316,7.918 -5.039,11.519 -1.441,5.039 -3.597,10.078 -5.039,15.117 -0.722,2.162 -1.441,5.042 -2.156,7.202 -0.727,5.04 -1.441,10.08 -0.727,15.12 0,0 0,0 0,0.72 0,0.72 -0.714,1.44 -1.437,2.16 -0.719,0 -0.719,0 -1.441,0 0,0 -0.719,-0.72 -1.442,-0.72 -2.156,-1.44 -3.598,-3.6 -4.316,-5.76 -0.723,-1.44 -1.442,-3.6 -2.16,-5.04 0,-1.44 0,-2.88 0,-4.32 -0.719,-0.71 -0.719,-0.71 -1.442,-1.44 -0.719,0 -0.719,-0.72 -1.441,0 -0.719,0 -1.438,0.73 -2.157,1.44 l -1.441,2.16 c 0,0.72 -0.719,1.44 -1.441,1.44 v 0 c -0.719,0 -1.442,0 -1.442,-0.72 -0.718,-0.72 -1.437,-1.44 -1.437,-2.16 z" /></g></g></svg>