<?xml version="1.0" encoding="UTF-8" standalone="no"?>
<svg
   xmlns:dc="http://purl.org/dc/elements/1.1/"
   xmlns:cc="http://creativecommons.org/ns#"
   xmlns:rdf="http://www.w3.org/1999/02/22-rdf-syntax-ns#"
   xmlns:svg="http://www.w3.org/2000/svg"
   xmlns="http://www.w3.org/2000/svg"
   viewBox="0 0 793.70667 694.93335"
   height="694.93335"
   width="793.70667"
   xml:space="preserve"
   id="svg3732"
   version="1.1"><metadata
     id="metadata3738"><rdf:RDF><cc:Work
         rdf:about=""><dc:format>image/svg+xml</dc:format><dc:type
           rdf:resource="http://purl.org/dc/dcmitype/StillImage" /><dc:title></dc:title></cc:Work></rdf:RDF></metadata><defs
     id="defs3736" /><g
     transform="matrix(1.3333333,0,0,-1.3333333,0,694.93333)"
     id="g3740"><g
       transform="scale(0.1)"
       id="g3742"><path
         id="path3744"
         style="fill:#f14824;fill-opacity:1;fill-rule:nonzero;stroke:none"
         d="M 3156.82,5104.3 5921.28,316.09 c 37.22,-64.469 37.22,-143.891 0,-208.367 C 5884.07,43.2695 5815.28,3.55078 5740.84,3.55078 H 211.91 c -74.445,0 -143.2303,39.71872 -180.4452,104.17222 -37.22261,64.476 -37.22261,143.898 0,208.367 L 2795.93,5104.3 c 37.23,64.46 106.01,104.17 180.44,104.17 74.45,0 143.22,-39.71 180.45,-104.17" /><path
         id="path3746"
         style="fill:none;stroke:#f14824;stroke-width:7.10031986;stroke-linecap:round;stroke-linejoin:round;stroke-miterlimit:500;stroke-dasharray:none;stroke-opacity:1"
         d="M 3156.82,5104.3 5921.28,316.09 c 37.22,-64.469 37.22,-143.891 0,-208.367 C 5884.07,43.2695 5815.28,3.55078 5740.84,3.55078 H 211.91 c -74.445,0 -143.2303,39.71872 -180.4452,104.17222 -37.22261,64.476 -37.22261,143.898 0,208.367 L 2795.93,5104.3 c 37.23,64.46 106.01,104.17 180.44,104.17 74.45,0 143.22,-39.71 180.45,-104.17 z" /><path
         id="path3748"
         style="fill:#ebee2c;fill-opacity:1;fill-rule:nonzero;stroke:none"
         d="M 933.676,628.621 2976.37,4166.68 5019.08,628.621 Z" /><path
         id="path3750"
         style="fill:none;stroke:#ebee2c;stroke-width:7.10031986;stroke-linecap:round;stroke-linejoin:round;stroke-miterlimit:500;stroke-dasharray:none;stroke-opacity:1"
         d="M 933.676,628.621 2976.37,4166.68 5019.08,628.621 Z" /><path
         id="path3752"
         style="fill:#231f20;fill-opacity:1;fill-rule:nonzero;stroke:none"
         d="M 4801.67,753.039 H 3214.62 l 126.57,176.274 h 134.55 l 72.03,100.597 -188.72,137.53 c -15.2,11.06 -18.65,32.3 -7.75,47.62 l 55.96,78.59 -386.96,281.59 c -31.74,-19.5 -72.11,-17.94 -102.25,3.98 -30.13,21.91 -44.05,59.83 -35.28,96.04 l -205.99,149.44 232.19,-357.81 c 13.65,-21.04 20.52,-45.77 19.65,-70.85 l 0.59,-517.341 c 1.22,-44.09 -21.6,-85.347 -59.59,-107.758 -37.98,-22.402 -85.14,-22.402 -123.13,0 -37.99,22.411 -60.8,63.668 -59.58,107.758 v 458.991 l -223.25,344.12 -2.98,-350.06 -292.32,-510.211 c -20.37,-39.476 -60.74,-64.637 -105.16,-65.519 -44.43,-0.879 -85.76,22.652 -107.67,61.312 -21.92,38.648 -20.89,86.207 2.68,123.879 l 240.52,410.779 v 591.77 c 0,40.76 13.15,80.43 37.51,113.12 l 44.05,56.56 -100.3,72.94 c -15.75,-29.02 -46.46,-46.71 -79.46,-45.8 -33,0.93 -62.66,20.33 -76.76,50.18 -14.09,29.85 -10.2,65.09 10.05,91.15 l 261.35,333.4 c 24.7,31.49 63.01,49.21 103,47.62 h 436.89 c 126.9,-11.54 225.13,-116.12 228.69,-243.5 v -750.72 l 403.05,-292.9 56.55,76.8 c 6.44,8.74 16.45,14.13 27.29,14.7 10.83,0.58 21.36,-3.73 28.68,-11.73 l 252.42,-183.35 44.07,59.52 v 106.56 l 170.25,99.42 h 179.8 l 211.22,-153.19 364.59,-631.501" /><path
         id="path3754"
         style="fill:none;stroke:#231f20;stroke-width:7.10031986;stroke-linecap:round;stroke-linejoin:round;stroke-miterlimit:500;stroke-dasharray:none;stroke-opacity:1"
         d="M 4801.67,753.039 H 3214.62 l 126.57,176.274 h 134.55 l 72.03,100.597 -188.72,137.53 c -15.2,11.06 -18.65,32.3 -7.75,47.62 l 55.96,78.59 -386.96,281.59 c -31.74,-19.5 -72.11,-17.94 -102.25,3.98 -30.13,21.91 -44.05,59.83 -35.28,96.04 l -205.99,149.44 232.19,-357.81 c 13.65,-21.04 20.52,-45.77 19.65,-70.85 l 0.59,-517.341 c 1.22,-44.09 -21.6,-85.347 -59.59,-107.758 -37.98,-22.402 -85.14,-22.402 -123.13,0 -37.99,22.411 -60.8,63.668 -59.58,107.758 v 458.991 l -223.25,344.12 -2.98,-350.06 -292.32,-510.211 c -20.37,-39.476 -60.74,-64.637 -105.16,-65.519 -44.43,-0.879 -85.76,22.652 -107.67,61.312 -21.92,38.648 -20.89,86.207 2.68,123.879 l 240.52,410.779 v 591.77 c 0,40.76 13.15,80.43 37.51,113.12 l 44.05,56.56 -100.3,72.94 c -15.75,-29.02 -46.46,-46.71 -79.46,-45.8 -33,0.93 -62.66,20.33 -76.76,50.18 -14.09,29.85 -10.2,65.09 10.05,91.15 l 261.35,333.4 c 24.7,31.49 63.01,49.21 103,47.62 h 436.89 c 126.9,-11.54 225.13,-116.12 228.69,-243.5 v -750.72 l 403.05,-292.9 56.55,76.8 c 6.44,8.74 16.45,14.13 27.29,14.7 10.83,0.58 21.36,-3.73 28.68,-11.73 l 252.42,-183.35 44.07,59.52 v 106.56 l 170.25,99.42 h 179.8 l 211.22,-153.19 z" /><path
         id="path3756"
         style="fill:#231f20;fill-opacity:1;fill-rule:nonzero;stroke:none"
         d="m 3296.12,2883.61 c 0,127.79 -103.6,231.39 -231.39,231.39 -127.79,0 -231.4,-103.6 -231.4,-231.39 0,-127.81 103.61,-231.4 231.4,-231.4 127.79,0 231.39,103.59 231.39,231.4" /><path
         id="path3758"
         style="fill:none;stroke:#231f20;stroke-width:7.10031986;stroke-linecap:round;stroke-linejoin:round;stroke-miterlimit:500;stroke-dasharray:none;stroke-opacity:1"
         d="m 3296.12,2883.61 c 0,127.79 -103.6,231.39 -231.39,231.39 -127.79,0 -231.4,-103.6 -231.4,-231.39 0,-127.81 103.61,-231.4 231.4,-231.4 127.79,0 231.39,103.59 231.39,231.4 z" /><path
         id="path3760"
         style="fill:#ebee2c;fill-opacity:1;fill-rule:nonzero;stroke:none"
         d="m 2704.17,1930.08 178.6,-129.8 v 357.2 z" /><path
         id="path3762"
         style="fill:none;stroke:#ebee2c;stroke-width:7.10031986;stroke-linecap:round;stroke-linejoin:round;stroke-miterlimit:500;stroke-dasharray:none;stroke-opacity:1"
         d="m 2704.17,1930.08 178.6,-129.8 v 357.2 z" /><path
         id="path3764"
         style="fill:#ebee2c;fill-opacity:1;fill-rule:nonzero;stroke:none"
         d="m 2389.23,2453.96 157.17,-0.58 -203.6,-260.17 -100.02,72.63 146.45,188.12" /><path
         id="path3766"
         style="fill:none;stroke:#ebee2c;stroke-width:7.10031986;stroke-linecap:round;stroke-linejoin:round;stroke-miterlimit:500;stroke-dasharray:none;stroke-opacity:1"
         d="m 2389.23,2453.96 157.17,-0.58 -203.6,-260.17 -100.02,72.63 z" /></g></g></svg>