<?xml version="1.0" encoding="UTF-8" standalone="no"?>
<svg
   xmlns:dc="http://purl.org/dc/elements/1.1/"
   xmlns:cc="http://creativecommons.org/ns#"
   xmlns:rdf="http://www.w3.org/1999/02/22-rdf-syntax-ns#"
   xmlns:svg="http://www.w3.org/2000/svg"
   xmlns="http://www.w3.org/2000/svg"
   viewBox="0 0 340.41333 297.89334"
   height="297.89334"
   width="340.41333"
   xml:space="preserve"
   id="svg4006"
   version="1.1"><metadata
     id="metadata4012"><rdf:RDF><cc:Work
         rdf:about=""><dc:format>image/svg+xml</dc:format><dc:type
           rdf:resource="http://purl.org/dc/dcmitype/StillImage" /><dc:title></dc:title></cc:Work></rdf:RDF></metadata><defs
     id="defs4010" /><g
     transform="matrix(1.3333333,0,0,-1.3333333,0,297.89333)"
     id="g4014"><g
       transform="scale(0.1)"
       id="g4016"><path
         id="path4018"
         style="fill:none;stroke:#231f20;stroke-width:2.1500001;stroke-linecap:butt;stroke-linejoin:miter;stroke-miterlimit:4;stroke-dasharray:none;stroke-opacity:1"
         d="m 1693.08,358.922 c 0,-2.172 0,-2.172 -2.87,-2.172 -2.9,0 -5.05,-2.879 -5.05,-6.48 v 0 l -6.49,-2.161 h -5.75 l -2.17,-2.879 h -2.87 -3.61 -5.04 -3.6 -2.16 v 2.879 c 0,0 -2.87,0 0,0 2.16,5.762 5.76,10.813 8.64,16.563 2.16,0 2.16,2.879 2.16,2.879 3.61,12.238 8.65,23.051 8.65,34.558 v 2.879 c 0,2.891 0,5.043 0,5.043 0,3.598 0,3.598 0,3.598 0,2.883 0,11.531 0,17.281 0,8.649 0,13.68 0,22.32 0,2.879 0,5.758 0,11.532 3.6,0 3.6,2.879 3.6,5.027 0,3.602 0,3.602 0,6.481 v 0 c 0,2.16 0,8.64 0,10.8 0,3.598 0,3.598 -3.6,5.758 0,2.883 -2.17,6.492 -2.17,8.641 -2.87,5.769 -2.87,11.519 -6.48,17.281 -5.04,5.039 -5.04,11.52 -8.64,17.281 -2.16,8.641 -7.92,16.559 -13.68,22.321 -5.76,2.878 -8.63,8.636 -11.51,14.398 0,2.16 -2.89,8.648 -5.04,10.801 -3.61,6.48 -6.48,8.64 -6.48,12.25 -2.16,2.148 -2.16,5.027 -5.77,8.629 l -2.88,2.16 c 0,2.879 0,5.762 -2.15,8.64 v 0 0 0 0 c 0,0 0,-2.878 0,-5.761 0,-2.879 0,-2.879 0,-2.879 0,-8.641 0,-14.399 2.15,-23.039 2.88,-2.153 2.88,-8.641 2.88,-13.68 3.61,-2.883 3.61,-5.75 3.61,-8.641 5.03,-8.64 8.64,-14.39 10.79,-23.039 2.89,-5.75 5.77,-10.8 8.64,-16.55 0,-2.891 0,-6.481 2.88,-8.653 0,-2.879 0,-5.75 0,-8.629 0,-2.89 0,-5.039 0,-8.648 l -2.88,-2.883 c 0,-2.16 -2.87,-5.758 -5.75,-7.918 0,0 -5.04,-8.64 -8.65,-17.269 -5.03,-8.653 -5.03,-11.532 -8.64,-14.411 -2.88,-5.75 -5.03,-11.519 -8.64,-20.152 -2.16,-5.769 -5.04,-10.808 -5.04,-16.566 -5.75,-8.633 -8.64,-17.282 -11.52,-25.91 -2.87,-2.891 -2.87,-5.774 -5.76,-8.653 -2.87,-5.75 -8.64,-10.801 -8.64,-19.437 -2.87,-3.59 -5.76,-5.762 -7.92,-5.762 0,-2.879 -3.59,-2.879 -3.59,-6.48 l -2.88,-2.161 -2.17,-2.879 c -3.6,0 -3.6,0 -3.6,0 -2.88,0 -8.63,0 -10.8,0 -2.88,0 -6.48,0 -8.63,0 0,0 0,0 -2.89,0 0,2.879 0,5.04 2.89,5.04 0,3.601 2.15,3.601 2.15,3.601 0,2.879 3.6,5.051 3.6,5.051 0,3.59 2.88,5.75 2.88,8.629 2.17,5.769 2.17,12.238 5.76,17.277 0,0 0,2.883 0,5.774 0,2.878 0,8.628 2.16,11.507 0,2.879 0,2.879 0,5.77 2.88,14.391 8.65,28.07 15.12,42.48 2.16,8.629 5.05,19.43 7.92,31.68 0,2.871 0,5.031 0,8.629 0,0 0,0 0,2.16 0,6.492 0,11.531 -2.87,17.281 0,0 0,2.879 0,5.051 -2.89,3.59 -5.05,8.629 -8.64,15.11 -5.05,7.921 -13.69,19.449 -19.45,28.082 -2.88,2.878 -6.48,5.769 -8.63,8.636 -2.89,2.883 -5.77,7.922 -8.64,11.532 -2.89,0 -5.05,2.878 -5.05,5.031 0,0 -3.6,3.597 -3.6,6.48 -2.88,0 -5.02,2.16 -5.02,5.77 0,2.148 0,2.148 -3.62,5.027 v 0 0 c -5.04,-2.879 -10.79,-5.027 -19.44,-5.027 -8.62,-3.61 -17.28,-5.77 -25.91,-8.653 0,0 -2.17,0 -5.77,-3.597 0,0 -2.88,0 -5.03,0 -3.61,0 -23.05,-5.031 -43.21,-10.801 28.81,8.648 20.16,5.77 11.54,2.16 -5.78,0 -11.54,0 -17.29,0 -10.81,0 -25.21,-2.16 -36.73,-2.16 -3.6,0 -3.6,0 -3.6,-2.879 -7.92,-14.402 -13.67,-31.68 -19.44,-48.23 -2.88,-11.532 -5.76,-22.321 -8.64,-34.571 0,-2.16 0,-5.031 0,-8.64 v 0 c 0,-8.641 -2.16,-13.668 -2.16,-22.321 v 0 0 c 0,-2.879 0,-5.75 0,-8.629 0,-2.89 -3.6,-5.769 -3.6,-7.921 -2.88,-6.481 -2.88,-12.25 -2.88,-20.887 v 0 -2.16 c 0,-6.481 0,-8.633 0,-14.403 0,-5.757 0,-8.629 0,-14.398 0,-2.883 0,-2.883 0,-2.883 0,-2.879 0,-5.039 0,-8.629 0,-2.879 0,-2.879 0,-5.051 0,-3.597 0,-3.597 0,-6.476 0,-5.75 0,-10.801 0,-16.563 0,-2.879 -2.15,-5.757 -5.76,-5.757 0,-2.883 -2.16,-2.883 -2.16,-5.762 v -2.871 c -2.88,-2.891 -2.88,-2.891 -2.88,-2.891 -2.88,0 -5.76,0 -8.63,0 0,0 -2.89,0 -5.77,2.891 0,0 0,0 -2.88,0 0,0 -2.16,0 -2.16,-2.891 -3.59,0 -6.47,0 -8.64,0 0,2.891 0,5.762 0,8.641 5.05,5.761 8.64,14.402 8.64,23.043 0,0 0,2.16 -3.59,5.039 0,5.769 0,12.238 0,20.16 -2.88,2.891 -2.88,5.769 0,8.641 0,2.878 0,2.878 0,2.878 0,2.879 0,2.879 0,5.758 -2.88,0 -2.88,2.891 -2.88,2.891 0,5.75 0,8.633 0,10.793 0,3.598 0,6.488 -2.17,8.637 0,3.601 -3.6,5.769 -3.6,8.64 -2.88,3.61 -2.88,5.762 -2.88,5.762 0,0 0,0 0,2.879 -2.16,8.64 0,17.281 0,25.199 2.88,0 2.88,3.602 2.88,6.481 v 0 0 c 0,2.16 0,5.769 0,8.64 0,7.918 0,19.449 -2.88,28.078 0,5.762 0,8.653 0,14.403 0,8.64 0,17.281 0,25.199 v 0 c 0,2.879 0,5.762 0,8.64 -2.16,2.891 -2.16,5.758 -2.16,11.52 -3.59,2.16 -3.59,2.16 -5.76,5.77 0,0 0,0 -2.88,0 0,0 0,0 -3.6,0 0,-3.61 0,-5.77 0,-8.649 0,-2.883 0,-2.883 0,-2.883 v 0 l -2.15,-2.867 c 0,-5.769 -2.89,-11.531 -2.89,-17.281 0,0 0,-2.168 0,-5.77 0,-2.879 0,-5.039 -3.59,-8.629 0,-5.05 0,-10.8 -2.17,-17.281 0,-2.172 0,-5.051 -2.88,-10.801 0,-2.89 0,-8.648 -2.87,-11.531 0,-2.16 0,-5.758 -2.89,-7.918 0,-2.871 0,-6.48 0,-6.48 0,-2.16 0,-2.16 -2.88,-2.16 0,-6.481 0,-8.629 -2.88,-11.508 0,-5.774 0,-8.653 0,-11.532 v -2.871 c 0,-5.769 0,-10.8 0,-17.281 0,-5.769 0,-10.808 2.88,-16.566 v 0 c 0,-2.883 0,-2.883 0,-2.883 v -3.598 c 0,0 0,0 0,-2.152 0,-2.891 0,-5.77 0,-11.527 v -2.872 -13.691 -15.117 l -2.88,-10.801 v -3.601 c 0,-2.161 0,-2.161 0,-5.04 l -2.88,-2.878 c 0,0 -2.87,0 -2.87,-2.883 0,0 -2.88,0 -2.88,-2.879 v -2.871 0 c 0,-2.891 -2.89,-2.891 -2.89,-5.77 0,0 0,0 -2.15,0 h -3.61 c 0,0 -2.88,0 -2.88,2.879 h -2.16 -3.59 -2.17 c -2.87,-2.879 -6.48,-2.879 -8.64,-2.879 0,0 -2.88,0 -2.88,2.879 0,0 0,0 0,2.891 v 2.871 c 8.65,8.64 11.52,20.16 11.52,34.558 0,2.172 0,2.172 0,5.051 -2.87,11.512 -2.87,23.031 -6.48,33.832 -2.16,8.641 -5.04,20.879 -8.64,29.528 0,5.031 0,10.8 -2.16,16.55 0,2.879 0,5.762 0,8.653 0,5.027 0,11.508 -2.87,13.668 0,6.48 0,12.238 0,17.281 v 3.609 c 0,0 0,0 0,2.149 0,11.519 0,22.32 0,34.562 -2.89,13.688 -2.89,28.09 -8.65,38.879 -2.88,6.488 -5.76,8.641 -5.76,15.121 -8.64,10.797 -17.27,25.199 -23.04,39.598 -2.15,8.652 -5.03,20.16 -8.64,30.973 0,5.75 -2.16,12.226 -2.16,17.277 -2.88,8.633 -2.88,17.281 -6.48,25.199 0,8.633 -2.15,17.281 -2.15,25.91 0,2.883 -2.88,8.653 -2.88,10.801 -2.89,3.602 -5.77,8.641 -8.65,15.121 0,2.16 -2.88,7.918 -5.75,14.41 -2.89,5.039 -5.05,10.789 -8.65,16.551 -2.16,2.879 -5.04,5.77 -8.63,11.52 0,0 0,0 -2.17,2.879 0,2.878 -2.88,5.761 -6.48,7.921 0,3.61 -2.16,3.61 -2.16,6.481 -8.64,10.797 -17.28,19.449 -25.92,25.199 -2.16,2.879 -5.76,2.879 -10.79,2.879 0,0 -3.61,0 -5.77,0 l -31.68,-13.68 c -5.76,0 -11.51,-3.601 -20.157,-3.601 -2.16,0 -5.761,0 -10.8,3.601 -3.598,0 -5.758,2.16 -5.758,5.051 -2.879,3.59 -2.879,5.75 -2.879,8.629 l -3.602,2.879 c -7.918,0 -13.679,8.641 -16.558,14.402 0,7.918 0,14.399 2.879,20.16 0,2.161 2.878,5.039 2.878,8.637 v 0 c 0,5.043 2.883,10.801 2.883,13.684 2.875,2.886 2.875,5.769 5.758,8.636 5.762,2.883 10.801,10.801 14.399,16.563 5.039,8.641 8.64,17.277 13.679,28.801 v 2.879 0 c 0,2.879 0,2.879 0,2.879 -11.515,2.89 -25.918,5.761 -36.719,5.761 -8.64,2.879 -14.398,2.879 -23.039,5.047 -2.882,3.594 -8.636,6.481 -11.519,12.231 0,2.171 -2.164,5.05 0,8.64 0,5.039 2.883,8.641 6.48,10.811 0,2.88 0,2.88 2.157,2.88 2.882,2.87 8.644,2.87 11.523,5.75 2.879,2.88 5.758,2.88 8.641,2.88 5.757,0 11.515,0 16.558,0 h 3.602 c 2.879,0 8.637,0 10.801,0 h 8.636 c 2.879,0 2.879,0 6.477,0 7.92,0 13.68,-2.88 19.45,-5.76 2.87,0 5.75,0 5.75,0 2.88,0 5.04,0 8.65,0 5.03,2.88 11.51,5.76 17.28,5.76 2.15,2.88 5.03,2.88 8.63,2.88 h 2.16 l 17.28,5.76 c 2.88,2.88 5.76,2.88 8.64,2.88 10.81,0 23.04,-2.88 33.84,-5.75 5.76,5.75 8.65,10.79 11.53,17.28 5.75,5.75 10.79,10.79 17.28,16.55 0,0 2.15,0 2.15,2.88 3.6,0 8.64,0 14.4,3.6 0,0 2.88,0 5.77,0 2.87,0 2.87,-3.6 2.87,-3.6 2.88,0 5.76,-2.88 5.76,-5.03 0,-5.77 2.88,-8.65 2.88,-12.25 0,-5.03 0,-10.8 0,-13.68 0,-2.88 0,-5.75 0,-8.64 0,-2.88 0,-5.76 0,-8.64 0,-2.87 0,-5.75 0,-7.92 v 0 -3.602 0 c 0,-5.039 2.88,-8.629 2.88,-13.679 l 14.4,-14.399 8.64,-5.75 16.56,-17.281 c 5.77,-5.051 8.64,-11.527 14.4,-13.688 5.77,-3.589 8.64,-3.589 13.69,-3.589 l 12.23,-2.891 8.64,-2.152 h 8.64 l 19.45,-3.61 13.67,-2.16 12.24,-2.879 c 16.57,0 30.24,-2.879 45.36,-2.879 5.76,0 10.81,0 16.56,0 2.88,0 5.76,0 8.65,0 5.75,0 11.51,0 20.16,0 h 2.87 c 11.53,0 19.45,0 30.96,2.879 14.4,0 28.8,2.879 42.48,8.649 25.93,5.043 51.12,8.632 74.16,5.043 17.28,-5.043 34.57,-8.653 51.85,-13.692 19.44,-5.762 38.87,-17.281 56.15,-28.082 11.53,-8.637 23.04,-20.879 31.68,-31.68 8.65,-11.519 13.68,-25.918 19.45,-40.308 0,-5.039 0,-8.649 0,-13.692 2.89,-11.507 2.89,-20.16 5.75,-31.679 2.88,-5.758 2.88,-10.801 5.76,-16.559 0,-6.48 2.89,-11.519 2.89,-17.269 2.89,-8.653 5.75,-17.282 5.75,-23.051 2.88,-5.031 2.88,-11.512 2.88,-16.559 0,-5.761 2.88,-11.519 2.88,-17.281 0,-5.762 2.16,-11.52 2.16,-16.559 3.61,-8.632 6.49,-17.281 6.49,-25.91 2.15,-8.652 2.15,-17.281 2.15,-25.929 0,-5.762 -2.15,-11.524 -2.15,-16.551 -2.88,-5.77 -6.49,-8.653 -11.53,-14.403 -2.88,-2.878 -8.63,-6.488 -14.4,-2.878 -5.74,0 -8.63,0 -10.8,2.878 0,2.153 -3.6,2.153 -3.6,5.75 l -2.88,28.082 -2.15,23.051 v 2.867 l -2.89,2.172 v 0 0 c 0,-5.039 -3.59,-10.808 -3.59,-16.57 0,-5.75 0,-8.641 0,-14.398 v 0 c 0,-5.762 0,-16.551 0,-25.204 0,-8.628 0,-20.16 0,-31.679 0,-2.879 0,-8.629 0,-10.797 v 0 c 0,-14.402 0,-25.922 6.48,-37.434 2.15,-7.918 5.03,-20.168 5.03,-30.968 v -2.879 c 0,-3.602 0,-3.602 0,-3.602 0,-2.148 0,-5.027 0,-5.027 -5.03,-8.653 -11.51,-20.172 -11.51,-31.684 -2.17,0 -2.17,-2.168 -2.17,-5.769 -2.88,-10.797 -5.75,-19.43 -8.64,-28.079 -2.88,-8.628 -2.88,-14.402 -5.76,-23.031 0,-5.051 -2.88,-11.527 -5.75,-17.277 z" /><path
         id="path4020"
         style="fill:none;stroke:#231f20;stroke-width:2.1500001;stroke-linecap:butt;stroke-linejoin:miter;stroke-miterlimit:4;stroke-dasharray:none;stroke-opacity:1"
         d="M 399.234,268.191 H 2153.87 L 1278.35,1786.68 Z" /><path
         id="path4022"
         style="fill:none;stroke:#231f20;stroke-width:2.1500001;stroke-linecap:butt;stroke-linejoin:miter;stroke-miterlimit:4;stroke-dasharray:none;stroke-opacity:1"
         d="M 1197.71,2190.59 12.5938,134.27 C 3.95703,120.602 1.07422,106.199 1.07422,88.9219 1.07422,41.3984 41.3906,1.07031 88.9141,1.07031 H 2464.2 c 47.52,0 87.83,40.32809 87.83,87.85159 0,17.2771 -3.59,31.6801 -11.52,45.3481 L 1354.67,2190.59 c -17.28,25.92 -45.36,42.48 -76.32,42.48 -34.56,0 -63.35,-16.56 -80.64,-42.48 z" /><path
         id="path4024"
         style="fill:#f14824;fill-opacity:1;fill-rule:nonzero;stroke:none"
         d="M 1197.71,2190.59 12.5938,134.27 C 3.95703,120.602 1.07422,106.199 1.07422,88.9219 1.07422,41.3984 41.3906,1.07031 88.9141,1.07031 H 2464.2 c 47.52,0 87.83,40.32809 87.83,87.85159 0,17.2771 -3.59,31.6801 -11.52,45.3481 L 1354.67,2190.59 c -17.28,25.92 -45.36,42.48 -76.32,42.48 -34.56,0 -63.35,-16.56 -80.64,-42.48" /><path
         id="path4026"
         style="fill:none;stroke:#f14824;stroke-width:2.1500001;stroke-linecap:butt;stroke-linejoin:miter;stroke-miterlimit:4;stroke-dasharray:none;stroke-opacity:1"
         d="M 1197.71,2190.59 12.5938,134.27 C 3.95703,120.602 1.07422,106.199 1.07422,88.9219 1.07422,41.3984 41.3906,1.07031 88.9141,1.07031 H 2464.2 c 47.52,0 87.83,40.32809 87.83,87.85159 0,17.2771 -3.59,31.6801 -11.52,45.3481 L 1354.67,2190.59 c -17.28,25.92 -45.36,42.48 -76.32,42.48 -34.56,0 -63.35,-16.56 -80.64,-42.48 z" /><path
         id="path4028"
         style="fill:#ffffff;fill-opacity:1;fill-rule:nonzero;stroke:none"
         d="M 399.234,268.191 H 2153.87 L 1278.35,1786.68 Z" /><path
         id="path4030"
         style="fill:none;stroke:#ffffff;stroke-width:2.1500001;stroke-linecap:butt;stroke-linejoin:miter;stroke-miterlimit:4;stroke-dasharray:none;stroke-opacity:1"
         d="M 399.234,268.191 H 2153.87 L 1278.35,1786.68 Z" /><path
         id="path4032"
         style="fill:#231f20;fill-opacity:1;fill-rule:nonzero;stroke:none"
         d="m 1693.08,358.922 c 0,-2.172 0,-2.172 -2.87,-2.172 -2.9,0 -5.05,-2.879 -5.05,-6.48 v 0 l -6.49,-2.161 h -5.75 l -2.17,-2.879 h -2.87 -3.61 -5.04 -3.6 -2.16 v 2.879 c 0,0 -2.87,0 0,0 2.16,5.762 5.76,10.813 8.64,16.563 2.16,0 2.16,2.879 2.16,2.879 3.61,12.238 8.65,23.051 8.65,34.558 v 2.879 c 0,2.891 0,5.043 0,5.043 0,3.598 0,3.598 0,3.598 0,2.883 0,11.531 0,17.281 0,8.649 0,13.68 0,22.32 0,2.879 0,5.758 0,11.532 3.6,0 3.6,2.879 3.6,5.027 0,3.602 0,3.602 0,6.481 v 0 c 0,2.16 0,8.64 0,10.8 0,3.598 0,3.598 -3.6,5.758 0,2.883 -2.17,6.492 -2.17,8.641 -2.87,5.769 -2.87,11.519 -6.48,17.281 -5.04,5.039 -5.04,11.52 -8.64,17.281 -2.16,8.641 -7.92,16.559 -13.68,22.321 -5.76,2.878 -8.63,8.636 -11.51,14.398 0,2.16 -2.89,8.648 -5.04,10.801 -3.61,6.48 -6.48,8.64 -6.48,12.25 -2.16,2.148 -2.16,5.027 -5.77,8.629 l -2.88,2.16 c 0,2.879 0,5.762 -2.15,8.64 v 0 0 0 0 c 0,0 0,-2.878 0,-5.761 0,-2.879 0,-2.879 0,-2.879 0,-8.641 0,-14.399 2.15,-23.039 2.88,-2.153 2.88,-8.641 2.88,-13.68 3.61,-2.883 3.61,-5.75 3.61,-8.641 5.03,-8.64 8.64,-14.39 10.79,-23.039 2.89,-5.75 5.77,-10.8 8.64,-16.55 0,-2.891 0,-6.481 2.88,-8.653 0,-2.879 0,-5.75 0,-8.629 0,-2.89 0,-5.039 0,-8.648 l -2.88,-2.883 c 0,-2.16 -2.87,-5.758 -5.75,-7.918 0,0 -5.04,-8.64 -8.65,-17.269 -5.03,-8.653 -5.03,-11.532 -8.64,-14.411 -2.88,-5.75 -5.03,-11.519 -8.64,-20.152 -2.16,-5.769 -5.04,-10.808 -5.04,-16.566 -5.75,-8.633 -8.64,-17.282 -11.52,-25.91 -2.87,-2.891 -2.87,-5.774 -5.76,-8.653 -2.87,-5.75 -8.64,-10.801 -8.64,-19.437 -2.87,-3.59 -5.76,-5.762 -7.92,-5.762 0,-2.879 -3.59,-2.879 -3.59,-6.48 l -2.88,-2.161 -2.17,-2.879 c -3.6,0 -3.6,0 -3.6,0 -2.88,0 -8.63,0 -10.8,0 -2.88,0 -6.48,0 -8.63,0 0,0 0,0 -2.89,0 0,2.879 0,5.04 2.89,5.04 0,3.601 2.15,3.601 2.15,3.601 0,2.879 3.6,5.051 3.6,5.051 0,3.59 2.88,5.75 2.88,8.629 2.17,5.769 2.17,12.238 5.76,17.277 0,0 0,2.883 0,5.774 0,2.878 0,8.628 2.16,11.507 0,2.879 0,2.879 0,5.77 2.88,14.391 8.65,28.07 15.12,42.48 2.16,8.629 5.05,19.43 7.92,31.68 0,2.871 0,5.031 0,8.629 0,0 0,0 0,2.16 0,6.492 0,11.531 -2.87,17.281 0,0 0,2.879 0,5.051 -2.89,3.59 -5.05,8.629 -8.64,15.11 -5.05,7.921 -13.69,19.449 -19.45,28.082 -2.88,2.878 -6.48,5.769 -8.63,8.636 -2.89,2.883 -5.77,7.922 -8.64,11.532 -2.89,0 -5.05,2.878 -5.05,5.031 0,0 -3.6,3.597 -3.6,6.48 -2.88,0 -5.02,2.16 -5.02,5.77 0,2.148 0,2.148 -3.62,5.027 v 0 0 c -5.04,-2.879 -10.79,-5.027 -19.44,-5.027 -8.62,-3.61 -17.28,-5.77 -25.91,-8.653 0,0 -2.17,0 -5.77,-3.597 0,0 -2.88,0 -5.03,0 -3.61,0 -23.05,-5.031 -43.21,-10.801 28.81,8.648 20.16,5.77 11.54,2.16 -5.78,0 -11.54,0 -17.29,0 -10.81,0 -25.21,-2.16 -36.73,-2.16 -3.6,0 -3.6,0 -3.6,-2.879 -7.92,-14.402 -13.67,-31.68 -19.44,-48.23 -2.88,-11.532 -5.76,-22.321 -8.64,-34.571 0,-2.16 0,-5.031 0,-8.64 v 0 c 0,-8.641 -2.16,-13.668 -2.16,-22.321 v 0 0 c 0,-2.879 0,-5.75 0,-8.629 0,-2.89 -3.6,-5.769 -3.6,-7.921 -2.88,-6.481 -2.88,-12.25 -2.88,-20.887 v 0 -2.16 c 0,-6.481 0,-8.633 0,-14.403 0,-5.757 0,-8.629 0,-14.398 0,-2.883 0,-2.883 0,-2.883 0,-2.879 0,-5.039 0,-8.629 0,-2.879 0,-2.879 0,-5.051 0,-3.597 0,-3.597 0,-6.476 0,-5.75 0,-10.801 0,-16.563 0,-2.879 -2.15,-5.757 -5.76,-5.757 0,-2.883 -2.16,-2.883 -2.16,-5.762 v -2.871 c -2.88,-2.891 -2.88,-2.891 -2.88,-2.891 -2.88,0 -5.76,0 -8.63,0 0,0 -2.89,0 -5.77,2.891 0,0 0,0 -2.88,0 0,0 -2.16,0 -2.16,-2.891 -3.59,0 -6.47,0 -8.64,0 0,2.891 0,5.762 0,8.641 5.05,5.761 8.64,14.402 8.64,23.043 0,0 0,2.16 -3.59,5.039 0,5.769 0,12.238 0,20.16 -2.88,2.891 -2.88,5.769 0,8.641 0,2.878 0,2.878 0,2.878 0,2.879 0,2.879 0,5.758 -2.88,0 -2.88,2.891 -2.88,2.891 0,5.75 0,8.633 0,10.793 0,3.598 0,6.488 -2.17,8.637 0,3.601 -3.6,5.769 -3.6,8.64 -2.88,3.61 -2.88,5.762 -2.88,5.762 0,0 0,0 0,2.879 -2.16,8.64 0,17.281 0,25.199 2.88,0 2.88,3.602 2.88,6.481 v 0 0 c 0,2.16 0,5.769 0,8.64 0,7.918 0,19.449 -2.88,28.078 0,5.762 0,8.653 0,14.403 0,8.64 0,17.281 0,25.199 v 0 c 0,2.879 0,5.762 0,8.64 -2.16,2.891 -2.16,5.758 -2.16,11.52 -3.59,2.16 -3.59,2.16 -5.76,5.77 0,0 0,0 -2.88,0 0,0 0,0 -3.6,0 0,-3.61 0,-5.77 0,-8.649 0,-2.883 0,-2.883 0,-2.883 v 0 l -2.15,-2.867 c 0,-5.769 -2.89,-11.531 -2.89,-17.281 0,0 0,-2.168 0,-5.77 0,-2.879 0,-5.039 -3.59,-8.629 0,-5.05 0,-10.8 -2.17,-17.281 0,-2.172 0,-5.051 -2.88,-10.801 0,-2.89 0,-8.648 -2.87,-11.531 0,-2.16 0,-5.758 -2.89,-7.918 0,-2.871 0,-6.48 0,-6.48 0,-2.16 0,-2.16 -2.88,-2.16 0,-6.481 0,-8.629 -2.88,-11.508 0,-5.774 0,-8.653 0,-11.532 v -2.871 c 0,-5.769 0,-10.8 0,-17.281 0,-5.769 0,-10.808 2.88,-16.566 v 0 c 0,-2.883 0,-2.883 0,-2.883 v -3.598 c 0,0 0,0 0,-2.152 0,-2.891 0,-5.77 0,-11.527 v -2.872 -13.691 -15.117 l -2.88,-10.801 v -3.601 c 0,-2.161 0,-2.161 0,-5.04 l -2.88,-2.878 c 0,0 -2.87,0 -2.87,-2.883 0,0 -2.88,0 -2.88,-2.879 v -2.871 0 c 0,-2.891 -2.89,-2.891 -2.89,-5.77 0,0 0,0 -2.15,0 h -3.61 c 0,0 -2.88,0 -2.88,2.879 h -2.16 -3.59 -2.17 c -2.87,-2.879 -6.48,-2.879 -8.64,-2.879 0,0 -2.88,0 -2.88,2.879 0,0 0,0 0,2.891 v 2.871 c 8.65,8.64 11.52,20.16 11.52,34.558 0,2.172 0,2.172 0,5.051 -2.87,11.512 -2.87,23.031 -6.48,33.832 -2.16,8.641 -5.04,20.879 -8.64,29.528 0,5.031 0,10.8 -2.16,16.55 0,2.879 0,5.762 0,8.653 0,5.027 0,11.508 -2.87,13.668 0,6.48 0,12.238 0,17.281 v 3.609 c 0,0 0,0 0,2.149 0,11.519 0,22.32 0,34.562 -2.89,13.688 -2.89,28.09 -8.65,38.879 -2.88,6.488 -5.76,8.641 -5.76,15.121 -8.64,10.797 -17.27,25.199 -23.04,39.598 -2.15,8.652 -5.03,20.16 -8.64,30.973 0,5.75 -2.16,12.226 -2.16,17.277 -2.88,8.633 -2.88,17.281 -6.48,25.199 0,8.633 -2.15,17.281 -2.15,25.91 0,2.883 -2.88,8.653 -2.88,10.801 -2.89,3.602 -5.77,8.641 -8.65,15.121 0,2.16 -2.88,7.918 -5.75,14.41 -2.89,5.039 -5.05,10.789 -8.65,16.551 -2.16,2.879 -5.04,5.77 -8.63,11.52 0,0 0,0 -2.17,2.879 0,2.878 -2.88,5.761 -6.48,7.921 0,3.61 -2.16,3.61 -2.16,6.481 -8.64,10.797 -17.28,19.449 -25.92,25.199 -2.16,2.879 -5.76,2.879 -10.79,2.879 0,0 -3.61,0 -5.77,0 l -31.68,-13.68 c -5.76,0 -11.51,-3.601 -20.157,-3.601 -2.16,0 -5.761,0 -10.8,3.601 -3.598,0 -5.758,2.16 -5.758,5.051 -2.879,3.59 -2.879,5.75 -2.879,8.629 l -3.602,2.879 c -7.918,0 -13.679,8.641 -16.558,14.402 0,7.918 0,14.399 2.879,20.16 0,2.161 2.878,5.039 2.878,8.637 v 0 c 0,5.043 2.883,10.801 2.883,13.684 2.875,2.886 2.875,5.769 5.758,8.636 5.762,2.883 10.801,10.801 14.399,16.563 5.039,8.641 8.64,17.277 13.679,28.801 v 2.879 0 c 0,2.879 0,2.879 0,2.879 -11.515,2.89 -25.918,5.761 -36.719,5.761 -8.64,2.879 -14.398,2.879 -23.039,5.047 -2.882,3.594 -8.636,6.481 -11.519,12.231 0,2.171 -2.164,5.05 0,8.64 0,5.039 2.883,8.641 6.48,10.811 0,2.88 0,2.88 2.157,2.88 2.882,2.87 8.644,2.87 11.523,5.75 2.879,2.88 5.758,2.88 8.641,2.88 5.757,0 11.515,0 16.558,0 h 3.602 c 2.879,0 8.637,0 10.801,0 h 8.636 c 2.879,0 2.879,0 6.477,0 7.92,0 13.68,-2.88 19.45,-5.76 2.87,0 5.75,0 5.75,0 2.88,0 5.04,0 8.65,0 5.03,2.88 11.51,5.76 17.28,5.76 2.15,2.88 5.03,2.88 8.63,2.88 h 2.16 l 17.28,5.76 c 2.88,2.88 5.76,2.88 8.64,2.88 10.81,0 23.04,-2.88 33.84,-5.75 5.76,5.75 8.65,10.79 11.53,17.28 5.75,5.75 10.79,10.79 17.28,16.55 0,0 2.15,0 2.15,2.88 3.6,0 8.64,0 14.4,3.6 0,0 2.88,0 5.77,0 2.87,0 2.87,-3.6 2.87,-3.6 2.88,0 5.76,-2.88 5.76,-5.03 0,-5.77 2.88,-8.65 2.88,-12.25 0,-5.03 0,-10.8 0,-13.68 0,-2.88 0,-5.75 0,-8.64 0,-2.88 0,-5.76 0,-8.64 0,-2.87 0,-5.75 0,-7.92 v 0 -3.602 0 c 0,-5.039 2.88,-8.629 2.88,-13.679 l 14.4,-14.399 8.64,-5.75 16.56,-17.281 c 5.77,-5.051 8.64,-11.527 14.4,-13.688 5.77,-3.589 8.64,-3.589 13.69,-3.589 l 12.23,-2.891 8.64,-2.152 h 8.64 l 19.45,-3.61 13.67,-2.16 12.24,-2.879 c 16.57,0 30.24,-2.879 45.36,-2.879 5.76,0 10.81,0 16.56,0 2.88,0 5.76,0 8.65,0 5.75,0 11.51,0 20.16,0 h 2.87 c 11.53,0 19.45,0 30.96,2.879 14.4,0 28.8,2.879 42.48,8.649 25.93,5.043 51.12,8.632 74.16,5.043 17.28,-5.043 34.57,-8.653 51.85,-13.692 19.44,-5.762 38.87,-17.281 56.15,-28.082 11.53,-8.637 23.04,-20.879 31.68,-31.68 8.65,-11.519 13.68,-25.918 19.45,-40.308 0,-5.039 0,-8.649 0,-13.692 2.89,-11.507 2.89,-20.16 5.75,-31.679 2.88,-5.758 2.88,-10.801 5.76,-16.559 0,-6.48 2.89,-11.519 2.89,-17.269 2.89,-8.653 5.75,-17.282 5.75,-23.051 2.88,-5.031 2.88,-11.512 2.88,-16.559 0,-5.761 2.88,-11.519 2.88,-17.281 0,-5.762 2.16,-11.52 2.16,-16.559 3.61,-8.632 6.49,-17.281 6.49,-25.91 2.15,-8.652 2.15,-17.281 2.15,-25.929 0,-5.762 -2.15,-11.524 -2.15,-16.551 -2.88,-5.77 -6.49,-8.653 -11.53,-14.403 -2.88,-2.878 -8.63,-6.488 -14.4,-2.878 -5.74,0 -8.63,0 -10.8,2.878 0,2.153 -3.6,2.153 -3.6,5.75 l -2.88,28.082 -2.15,23.051 v 2.867 l -2.89,2.172 v 0 0 c 0,-5.039 -3.59,-10.808 -3.59,-16.57 0,-5.75 0,-8.641 0,-14.398 v 0 c 0,-5.762 0,-16.551 0,-25.204 0,-8.628 0,-20.16 0,-31.679 0,-2.879 0,-8.629 0,-10.797 v 0 c 0,-14.402 0,-25.922 6.48,-37.434 2.15,-7.918 5.03,-20.168 5.03,-30.968 v -2.879 c 0,-3.602 0,-3.602 0,-3.602 0,-2.148 0,-5.027 0,-5.027 -5.03,-8.653 -11.51,-20.172 -11.51,-31.684 -2.17,0 -2.17,-2.168 -2.17,-5.769 -2.88,-10.797 -5.75,-19.43 -8.64,-28.079 -2.88,-8.628 -2.88,-14.402 -5.76,-23.031 0,-5.051 -2.88,-11.527 -5.75,-17.277" /><path
         id="path4034"
         style="fill:none;stroke:#231f20;stroke-width:2.1500001;stroke-linecap:butt;stroke-linejoin:miter;stroke-miterlimit:4;stroke-dasharray:none;stroke-opacity:1"
         d="m 1693.08,358.922 c 0,-2.172 0,-2.172 -2.87,-2.172 -2.9,0 -5.05,-2.879 -5.05,-6.48 v 0 l -6.49,-2.161 h -5.75 l -2.17,-2.879 h -2.87 -3.61 -5.04 -3.6 -2.16 v 2.879 c 0,0 -2.87,0 0,0 2.16,5.762 5.76,10.813 8.64,16.563 2.16,0 2.16,2.879 2.16,2.879 3.61,12.238 8.65,23.051 8.65,34.558 v 2.879 c 0,2.891 0,5.043 0,5.043 0,3.598 0,3.598 0,3.598 0,2.883 0,11.531 0,17.281 0,8.649 0,13.68 0,22.32 0,2.879 0,5.758 0,11.532 3.6,0 3.6,2.879 3.6,5.027 0,3.602 0,3.602 0,6.481 v 0 c 0,2.16 0,8.64 0,10.8 0,3.598 0,3.598 -3.6,5.758 0,2.883 -2.17,6.492 -2.17,8.641 -2.87,5.769 -2.87,11.519 -6.48,17.281 -5.04,5.039 -5.04,11.52 -8.64,17.281 -2.16,8.641 -7.92,16.559 -13.68,22.321 -5.76,2.878 -8.63,8.636 -11.51,14.398 0,2.16 -2.89,8.648 -5.04,10.801 -3.61,6.48 -6.48,8.64 -6.48,12.25 -2.16,2.148 -2.16,5.027 -5.77,8.629 l -2.88,2.16 c 0,2.879 0,5.762 -2.15,8.64 v 0 0 0 0 c 0,0 0,-2.878 0,-5.761 0,-2.879 0,-2.879 0,-2.879 0,-8.641 0,-14.399 2.15,-23.039 2.88,-2.153 2.88,-8.641 2.88,-13.68 3.61,-2.883 3.61,-5.75 3.61,-8.641 5.03,-8.64 8.64,-14.39 10.79,-23.039 2.89,-5.75 5.77,-10.8 8.64,-16.55 0,-2.891 0,-6.481 2.88,-8.653 0,-2.879 0,-5.75 0,-8.629 0,-2.89 0,-5.039 0,-8.648 l -2.88,-2.883 c 0,-2.16 -2.87,-5.758 -5.75,-7.918 0,0 -5.04,-8.64 -8.65,-17.269 -5.03,-8.653 -5.03,-11.532 -8.64,-14.411 -2.88,-5.75 -5.03,-11.519 -8.64,-20.152 -2.16,-5.769 -5.04,-10.808 -5.04,-16.566 -5.75,-8.633 -8.64,-17.282 -11.52,-25.91 -2.87,-2.891 -2.87,-5.774 -5.76,-8.653 -2.87,-5.75 -8.64,-10.801 -8.64,-19.437 -2.87,-3.59 -5.76,-5.762 -7.92,-5.762 0,-2.879 -3.59,-2.879 -3.59,-6.48 l -2.88,-2.161 -2.17,-2.879 c -3.6,0 -3.6,0 -3.6,0 -2.88,0 -8.63,0 -10.8,0 -2.88,0 -6.48,0 -8.63,0 0,0 0,0 -2.89,0 0,2.879 0,5.04 2.89,5.04 0,3.601 2.15,3.601 2.15,3.601 0,2.879 3.6,5.051 3.6,5.051 0,3.59 2.88,5.75 2.88,8.629 2.17,5.769 2.17,12.238 5.76,17.277 0,0 0,2.883 0,5.774 0,2.878 0,8.628 2.16,11.507 0,2.879 0,2.879 0,5.77 2.88,14.391 8.65,28.07 15.12,42.48 2.16,8.629 5.05,19.43 7.92,31.68 0,2.871 0,5.031 0,8.629 0,0 0,0 0,2.16 0,6.492 0,11.531 -2.87,17.281 0,0 0,2.879 0,5.051 -2.89,3.59 -5.05,8.629 -8.64,15.11 -5.05,7.921 -13.69,19.449 -19.45,28.082 -2.88,2.878 -6.48,5.769 -8.63,8.636 -2.89,2.883 -5.77,7.922 -8.64,11.532 -2.89,0 -5.05,2.878 -5.05,5.031 0,0 -3.6,3.597 -3.6,6.48 -2.88,0 -5.02,2.16 -5.02,5.77 0,2.148 0,2.148 -3.62,5.027 v 0 0 c -5.04,-2.879 -10.79,-5.027 -19.44,-5.027 -8.62,-3.61 -17.28,-5.77 -25.91,-8.653 0,0 -2.17,0 -5.77,-3.597 0,0 -2.88,0 -5.03,0 -3.61,0 -23.05,-5.031 -43.21,-10.801 28.81,8.648 20.16,5.77 11.54,2.16 -5.78,0 -11.54,0 -17.29,0 -10.81,0 -25.21,-2.16 -36.73,-2.16 -3.6,0 -3.6,0 -3.6,-2.879 -7.92,-14.402 -13.67,-31.68 -19.44,-48.23 -2.88,-11.532 -5.76,-22.321 -8.64,-34.571 0,-2.16 0,-5.031 0,-8.64 v 0 c 0,-8.641 -2.16,-13.668 -2.16,-22.321 v 0 0 c 0,-2.879 0,-5.75 0,-8.629 0,-2.89 -3.6,-5.769 -3.6,-7.921 -2.88,-6.481 -2.88,-12.25 -2.88,-20.887 v 0 -2.16 c 0,-6.481 0,-8.633 0,-14.403 0,-5.757 0,-8.629 0,-14.398 0,-2.883 0,-2.883 0,-2.883 0,-2.879 0,-5.039 0,-8.629 0,-2.879 0,-2.879 0,-5.051 0,-3.597 0,-3.597 0,-6.476 0,-5.75 0,-10.801 0,-16.563 0,-2.879 -2.15,-5.757 -5.76,-5.757 0,-2.883 -2.16,-2.883 -2.16,-5.762 v -2.871 c -2.88,-2.891 -2.88,-2.891 -2.88,-2.891 -2.88,0 -5.76,0 -8.63,0 0,0 -2.89,0 -5.77,2.891 0,0 0,0 -2.88,0 0,0 -2.16,0 -2.16,-2.891 -3.59,0 -6.47,0 -8.64,0 0,2.891 0,5.762 0,8.641 5.05,5.761 8.64,14.402 8.64,23.043 0,0 0,2.16 -3.59,5.039 0,5.769 0,12.238 0,20.16 -2.88,2.891 -2.88,5.769 0,8.641 0,2.878 0,2.878 0,2.878 0,2.879 0,2.879 0,5.758 -2.88,0 -2.88,2.891 -2.88,2.891 0,5.75 0,8.633 0,10.793 0,3.598 0,6.488 -2.17,8.637 0,3.601 -3.6,5.769 -3.6,8.64 -2.88,3.61 -2.88,5.762 -2.88,5.762 0,0 0,0 0,2.879 -2.16,8.64 0,17.281 0,25.199 2.88,0 2.88,3.602 2.88,6.481 v 0 0 c 0,2.16 0,5.769 0,8.64 0,7.918 0,19.449 -2.88,28.078 0,5.762 0,8.653 0,14.403 0,8.64 0,17.281 0,25.199 v 0 c 0,2.879 0,5.762 0,8.64 -2.16,2.891 -2.16,5.758 -2.16,11.52 -3.59,2.16 -3.59,2.16 -5.76,5.77 0,0 0,0 -2.88,0 0,0 0,0 -3.6,0 0,-3.61 0,-5.77 0,-8.649 0,-2.883 0,-2.883 0,-2.883 v 0 l -2.15,-2.867 c 0,-5.769 -2.89,-11.531 -2.89,-17.281 0,0 0,-2.168 0,-5.77 0,-2.879 0,-5.039 -3.59,-8.629 0,-5.05 0,-10.8 -2.17,-17.281 0,-2.172 0,-5.051 -2.88,-10.801 0,-2.89 0,-8.648 -2.87,-11.531 0,-2.16 0,-5.758 -2.89,-7.918 0,-2.871 0,-6.48 0,-6.48 0,-2.16 0,-2.16 -2.88,-2.16 0,-6.481 0,-8.629 -2.88,-11.508 0,-5.774 0,-8.653 0,-11.532 v -2.871 c 0,-5.769 0,-10.8 0,-17.281 0,-5.769 0,-10.808 2.88,-16.566 v 0 c 0,-2.883 0,-2.883 0,-2.883 v -3.598 c 0,0 0,0 0,-2.152 0,-2.891 0,-5.77 0,-11.527 v -2.872 -13.691 -15.117 l -2.88,-10.801 v -3.601 c 0,-2.161 0,-2.161 0,-5.04 l -2.88,-2.878 c 0,0 -2.87,0 -2.87,-2.883 0,0 -2.88,0 -2.88,-2.879 v -2.871 0 c 0,-2.891 -2.89,-2.891 -2.89,-5.77 0,0 0,0 -2.15,0 h -3.61 c 0,0 -2.88,0 -2.88,2.879 h -2.16 -3.59 -2.17 c -2.87,-2.879 -6.48,-2.879 -8.64,-2.879 0,0 -2.88,0 -2.88,2.879 0,0 0,0 0,2.891 v 2.871 c 8.65,8.64 11.52,20.16 11.52,34.558 0,2.172 0,2.172 0,5.051 -2.87,11.512 -2.87,23.031 -6.48,33.832 -2.16,8.641 -5.04,20.879 -8.64,29.528 0,5.031 0,10.8 -2.16,16.55 0,2.879 0,5.762 0,8.653 0,5.027 0,11.508 -2.87,13.668 0,6.48 0,12.238 0,17.281 v 3.609 c 0,0 0,0 0,2.149 0,11.519 0,22.32 0,34.562 -2.89,13.688 -2.89,28.09 -8.65,38.879 -2.88,6.488 -5.76,8.641 -5.76,15.121 -8.64,10.797 -17.27,25.199 -23.04,39.598 -2.15,8.652 -5.03,20.16 -8.64,30.973 0,5.75 -2.16,12.226 -2.16,17.277 -2.88,8.633 -2.88,17.281 -6.48,25.199 0,8.633 -2.15,17.281 -2.15,25.91 0,2.883 -2.88,8.653 -2.88,10.801 -2.89,3.602 -5.77,8.641 -8.65,15.121 0,2.16 -2.88,7.918 -5.75,14.41 -2.89,5.039 -5.05,10.789 -8.65,16.551 -2.16,2.879 -5.04,5.77 -8.63,11.52 0,0 0,0 -2.17,2.879 0,2.878 -2.88,5.761 -6.48,7.921 0,3.61 -2.16,3.61 -2.16,6.481 -8.64,10.797 -17.28,19.449 -25.92,25.199 -2.16,2.879 -5.76,2.879 -10.79,2.879 0,0 -3.61,0 -5.77,0 l -31.68,-13.68 c -5.76,0 -11.51,-3.601 -20.157,-3.601 -2.16,0 -5.761,0 -10.8,3.601 -3.598,0 -5.758,2.16 -5.758,5.051 -2.879,3.59 -2.879,5.75 -2.879,8.629 l -3.602,2.879 c -7.918,0 -13.679,8.641 -16.558,14.402 0,7.918 0,14.399 2.879,20.16 0,2.161 2.878,5.039 2.878,8.637 v 0 c 0,5.043 2.883,10.801 2.883,13.684 2.875,2.886 2.875,5.769 5.758,8.636 5.762,2.883 10.801,10.801 14.399,16.563 5.039,8.641 8.64,17.277 13.679,28.801 v 2.879 0 c 0,2.879 0,2.879 0,2.879 -11.515,2.89 -25.918,5.761 -36.719,5.761 -8.64,2.879 -14.398,2.879 -23.039,5.047 -2.882,3.594 -8.636,6.481 -11.519,12.231 0,2.171 -2.164,5.05 0,8.64 0,5.039 2.883,8.641 6.48,10.811 0,2.88 0,2.88 2.157,2.88 2.882,2.87 8.644,2.87 11.523,5.75 2.879,2.88 5.758,2.88 8.641,2.88 5.757,0 11.515,0 16.558,0 h 3.602 c 2.879,0 8.637,0 10.801,0 h 8.636 c 2.879,0 2.879,0 6.477,0 7.92,0 13.68,-2.88 19.45,-5.76 2.87,0 5.75,0 5.75,0 2.88,0 5.04,0 8.65,0 5.03,2.88 11.51,5.76 17.28,5.76 2.15,2.88 5.03,2.88 8.63,2.88 h 2.16 l 17.28,5.76 c 2.88,2.88 5.76,2.88 8.64,2.88 10.81,0 23.04,-2.88 33.84,-5.75 5.76,5.75 8.65,10.79 11.53,17.28 5.75,5.75 10.79,10.79 17.28,16.55 0,0 2.15,0 2.15,2.88 3.6,0 8.64,0 14.4,3.6 0,0 2.88,0 5.77,0 2.87,0 2.87,-3.6 2.87,-3.6 2.88,0 5.76,-2.88 5.76,-5.03 0,-5.77 2.88,-8.65 2.88,-12.25 0,-5.03 0,-10.8 0,-13.68 0,-2.88 0,-5.75 0,-8.64 0,-2.88 0,-5.76 0,-8.64 0,-2.87 0,-5.75 0,-7.92 v 0 -3.602 0 c 0,-5.039 2.88,-8.629 2.88,-13.679 l 14.4,-14.399 8.64,-5.75 16.56,-17.281 c 5.77,-5.051 8.64,-11.527 14.4,-13.688 5.77,-3.589 8.64,-3.589 13.69,-3.589 l 12.23,-2.891 8.64,-2.152 h 8.64 l 19.45,-3.61 13.67,-2.16 12.24,-2.879 c 16.57,0 30.24,-2.879 45.36,-2.879 5.76,0 10.81,0 16.56,0 2.88,0 5.76,0 8.65,0 5.75,0 11.51,0 20.16,0 h 2.87 c 11.53,0 19.45,0 30.96,2.879 14.4,0 28.8,2.879 42.48,8.649 25.93,5.043 51.12,8.632 74.16,5.043 17.28,-5.043 34.57,-8.653 51.85,-13.692 19.44,-5.762 38.87,-17.281 56.15,-28.082 11.53,-8.637 23.04,-20.879 31.68,-31.68 8.65,-11.519 13.68,-25.918 19.45,-40.308 0,-5.039 0,-8.649 0,-13.692 2.89,-11.507 2.89,-20.16 5.75,-31.679 2.88,-5.758 2.88,-10.801 5.76,-16.559 0,-6.48 2.89,-11.519 2.89,-17.269 2.89,-8.653 5.75,-17.282 5.75,-23.051 2.88,-5.031 2.88,-11.512 2.88,-16.559 0,-5.761 2.88,-11.519 2.88,-17.281 0,-5.762 2.16,-11.52 2.16,-16.559 3.61,-8.632 6.49,-17.281 6.49,-25.91 2.15,-8.652 2.15,-17.281 2.15,-25.929 0,-5.762 -2.15,-11.524 -2.15,-16.551 -2.88,-5.77 -6.49,-8.653 -11.53,-14.403 -2.88,-2.878 -8.63,-6.488 -14.4,-2.878 -5.74,0 -8.63,0 -10.8,2.878 0,2.153 -3.6,2.153 -3.6,5.75 l -2.88,28.082 -2.15,23.051 v 2.867 l -2.89,2.172 v 0 0 c 0,-5.039 -3.59,-10.808 -3.59,-16.57 0,-5.75 0,-8.641 0,-14.398 v 0 c 0,-5.762 0,-16.551 0,-25.204 0,-8.628 0,-20.16 0,-31.679 0,-2.879 0,-8.629 0,-10.797 v 0 c 0,-14.402 0,-25.922 6.48,-37.434 2.15,-7.918 5.03,-20.168 5.03,-30.968 v -2.879 c 0,-3.602 0,-3.602 0,-3.602 0,-2.148 0,-5.027 0,-5.027 -5.03,-8.653 -11.51,-20.172 -11.51,-31.684 -2.17,0 -2.17,-2.168 -2.17,-5.769 -2.88,-10.797 -5.75,-19.43 -8.64,-28.079 -2.88,-8.628 -2.88,-14.402 -5.76,-23.031 0,-5.051 -2.88,-11.527 -5.75,-17.277 z" /><path
         id="path4036"
         style="fill:#231f20;fill-opacity:1;fill-rule:nonzero;stroke:none"
         d="m 882.355,381.949 c -2.16,-8.629 -2.16,-17.277 -2.16,-25.199 0,-2.879 0,-2.879 0,-2.879 0,-3.601 0,-5.762 0,-11.519 0,0 0,0 0,-2.883 v 0 c 0,-2.879 0,-5.75 -3.601,-5.75 -2.16,0 -2.16,0 -5.039,0 0,0 0,0 -3.602,0 0,0 0,0 -2.156,0 v 0 c -2.883,0 -2.883,0 -2.883,0 -2.879,-2.891 -8.641,-2.891 -8.641,0 -2.882,2.871 -2.882,5.75 -2.882,8.633 2.882,2.878 2.882,5.757 2.882,5.757 2.879,5.762 5.762,10.813 5.762,16.563 0,8.648 2.879,15.117 2.879,20.156 0,2.883 0,2.883 0,5.774 -2.879,8.628 -2.879,17.277 -8.641,23.027 0,2.883 0,5.043 0,8.641 0,0 0,0 -2.882,2.89 0,0 0,2.149 0,5.75 0,2.168 0,2.168 0,5.039 0,5.762 0,8.641 0,14.41 v 0 c 0,2.871 0,2.871 0,5.75 -2.875,8.653 -5.754,20.161 -8.637,34.559 -2.883,10.801 -5.039,22.32 -8.645,30.973 0,5.75 0,5.75 -2.875,8.629 0,2.171 0,5.761 -2.164,7.921 0,0 0,2.879 0,6.481 -3.597,2.168 -3.597,5.047 -3.597,7.918 -2.879,2.879 -2.879,5.762 -2.879,11.531 0,2.867 0,8.629 -2.16,10.789 0,6.488 0,12.238 -3.598,17.281 0,3.61 0,3.61 0,5.758 -2.164,6.481 -2.164,8.641 -2.164,14.403 0,5.757 -2.879,8.648 -2.879,14.398 -3.602,2.879 -3.602,2.879 -5.758,5.762 0,2.886 0,2.886 -2.883,2.886 -2.879,0 -5.757,0 -8.64,0 h -2.875 v 0 c -5.762,0 -8.645,0 -13.684,0 -3.598,0 -6.476,0 -8.64,0 h -3.598 c -2.883,0 -2.883,0 -2.883,0 v 0 c -5.758,0 -7.922,0 -10.797,0 -3.601,0 -5.762,0 -8.64,0 0,0 -3.598,2.883 -3.598,5.75 0,0 0,0 0,2.172 v 0 c -2.164,3.59 -2.164,3.59 -2.164,3.59 h -2.875 c 0,2.879 -2.883,5.039 -2.883,8.649 0,0 0,2.152 0,5.043 0,0 0,3.589 0,5.75 2.883,2.878 5.758,6.476 7.922,8.636 0,2.891 0,2.891 3.598,5.762 5.039,5.762 11.515,8.641 17.281,14.41 2.156,2.871 8.637,5.75 10.801,7.918 0,0 0,0 0,3.594 v 0 2.887 c -2.164,0 -8.645,0 -10.801,2.152 -3.602,0 -5.766,0 -8.641,0 -3.601,2.879 -5.762,2.879 -8.64,5.769 -3.598,0 -3.598,0 -5.762,2.879 0,0 0,2.871 -2.875,5.75 0,2.879 0,5.762 0,5.762 0,2.891 2.875,2.891 2.875,5.77 2.164,2.148 8.64,2.148 10.801,2.148 6.476,3.602 8.64,3.602 14.398,3.602 6.481,0 8.645,0 15.121,-3.602 2.16,0 5.039,0 7.922,0 h 2.879 c 5.758,0 8.641,0 11.519,3.602 5.762,0 14.399,2.879 22.321,2.879 2.879,2.16 8.64,2.16 15.121,0 v 0 c 2.156,0 2.156,0 5.039,2.16 5.762,14.398 17.281,23.039 31.68,29.519 2.16,0 5.761,0 5.761,0 2.16,-3.59 2.16,-3.59 2.16,-6.48 v 0 c 0,-5.758 0,-14.399 -2.16,-19.43 0,-3.609 -3.601,-5.769 -3.601,-8.648 0,0 0,0 0,-3.602 v 0 0 c 8.64,-10.801 20.883,-22.309 31.676,-33.117 0,0 2.882,-3.594 5.761,-5.762 2.883,-2.879 5.766,-5.75 7.922,-5.75 0,-2.89 3.598,-2.89 5.762,-5.769 h 2.883 v 0 c 5.754,0 12.234,0 17.277,0 0,0 0,0 2.879,0 2.879,0 8.641,0 14.402,0 2.875,0 7.918,0 14.399,0 5.758,0 7.922,2.879 10.797,2.879 8.64,0 17.278,0 25.918,-2.879 5.77,0 11.52,-2.879 16.56,-5.762 6.48,0 8.64,-2.879 12.24,-5.75 2.88,-2.891 2.88,-2.891 5.04,-2.891 8.64,-8.636 17.28,-14.386 20.16,-25.199 11.52,-14.391 17.28,-31.68 20.16,-51.84 0,-2.148 2.16,-7.918 2.16,-14.398 0,-5.031 -2.16,-13.68 -2.16,-19.43 0,-5.769 -2.88,-14.402 -5.76,-23.051 0,-10.8 -2.88,-13.679 -2.88,-17.281 -2.87,-5.039 -2.87,-8.629 -2.87,-13.68 v -2.871 c 2.87,-7.918 2.87,-14.41 2.87,-22.328 0,0 0,-6.48 2.88,-11.519 0,-3.602 0,-5.75 0,-8.629 2.88,-5.774 2.88,-8.653 5.76,-11.532 0,-5.75 0,-11.519 2.16,-20.152 0,-5.769 0,-10.808 0,-16.566 0,-11.524 0,-17.282 3.6,-25.91 0,0 0,-5.774 0,-10.813 0,0 0,-3.59 0,-6.469 v -2.172 c 0,-3.597 0,-6.476 0,-6.476 0,-2.16 -3.6,-2.16 -3.6,-2.16 -2.16,-3.59 -2.16,-3.59 -5.04,-3.59 -2.88,0 -2.88,0 -5.76,-2.172 -2.87,0 -8.64,0 -11.52,0 0,2.172 0,2.172 0,2.172 0,3.59 0,3.59 2.88,5.75 0,2.879 0,2.879 0,6.476 0,2.172 0,2.172 0,5.051 0,3.59 -2.88,5.75 -2.88,8.629 0,5.774 -2.88,11.524 -2.88,14.402 -2.88,14.399 -8.64,28.079 -13.67,42.481 -3.61,5.769 -3.61,8.648 -5.77,11.519 0,2.879 -2.88,5.758 -6.48,11.532 0,2.879 -2.16,8.629 -8.64,13.668 0,3.609 0,6.48 -2.16,6.48 0,5.758 0,7.918 -2.88,10.801 0,3.609 -2.88,3.609 -2.88,5.758 0,0 0,0 -2.87,0 v 0 0 c 2.87,-10.801 5.75,-23.039 8.63,-33.828 2.16,-2.879 2.16,-5.77 5.77,-8.653 0,-2.879 2.87,-8.629 2.87,-14.398 0,0 0,-2.879 0,-5.031 -2.87,-6.481 -2.87,-12.25 -8.64,-17.289 0,-3.598 -2.88,-8.641 -2.88,-12.239 v 0 c 0,-2.152 0,-2.152 0,-5.043 0,-11.508 -2.88,-23.039 -5.75,-37.437 0,-2.879 0,-5.039 -2.88,-8.629 0,-2.172 -2.89,-2.172 -2.89,-2.172 -2.88,0 -2.88,0 -5.76,0 0,0 -2.88,0 -5.75,0 -2.17,-2.879 -5.768,-2.879 -8.647,-2.879 -2.16,0 -2.16,0 -2.16,2.879 v 0 c 5.039,7.922 8.637,16.57 8.637,25.199 v 0 c 0,5.762 0,14.403 -3.598,20.16 0,2.879 0,7.922 3.598,11.52 0,2.883 0,8.641 0,11.531 0,2.149 0,2.149 0,2.149 0,5.769 0,8.64 0,14.402 v 0 c 0,2.879 0,5.769 -3.598,8.648 0,0 0,2.871 -2.879,2.871 -2.16,2.879 -5.761,5.758 -8.636,8.641 -2.164,5.77 -5.762,11.52 -7.922,16.559 0,6.48 -2.879,8.64 -2.879,12.238 -3.602,2.16 -3.602,8.652 -3.602,10.801 h -2.16 v 0 c -2.883,-2.149 -2.883,-5.758 -5.758,-10.801 0,-5.758 -2.883,-8.629 -5.761,-14.398 0,-2.879 0,-6.481 0,-6.481 0,0 -2.879,-2.148 -2.879,-5.027 0,-2.891 0,-2.891 0,-2.891 -2.883,-5.762 -2.883,-11.512 -5.762,-17.281 0,-2.879 -2.879,-5.031 -2.879,-11.512 l -2.879,-2.168 c -2.164,-8.64 0,-8.64 -2.164,-12.238 -3.598,-16.563 -3.598,-16.563 0,-16.563 v -2.879 c 0,-2.878 0,-2.878 0,-5.75 0,0 0,0 0,-2.878 v -2.891 c 0,-2.883 0,-2.883 0,-5.762 0,-2.16 0,-2.16 0,-5.75 0,-2.879 0,-2.879 0,-5.051 0,0 0,0 0,-3.597 0,-2.879 0,-8.629 -3.598,-13.68 0,-3.601 0,-5.762 0,-11.519 -2.882,0 -2.882,-2.883 -2.882,-2.883 0,-2.879 -2.157,-2.879 -2.157,-2.879 -3.597,-2.871 -3.597,-2.871 -6.48,-2.871 0,0 0,0 -2.164,0 0,0 -3.598,0 -5.754,0 0,0 -2.883,0 -5.766,0 0,0 0,0 -2.879,0 v 0 c 0,2.871 0,5.75 2.879,8.633 0,2.878 0,2.878 2.883,5.757 0,5.762 0,8.641 2.883,10.813 0,3.59 0,3.59 0,5.75 0,0 0,2.879 0,6.476 -2.883,2.172 -2.883,5.051 -2.883,8.641 0,5.039 0,7.922 -2.883,10.813 0,2.878 0,5.75 0,8.628 -2.879,2.879 -2.879,5.758 -2.879,8.649 -2.882,2.152 -2.882,2.152 -2.882,5.75 0,2.883 0,5.043 0,8.641 0,5.039 2.882,13.679 5.761,19.441 0,5.769 2.883,14.398 5.766,20.16 0,5.77 2.156,7.918 2.156,14.399 v 0 c 0,2.16 0,5.769 0,8.64 0,2.16 -2.156,2.16 -2.156,2.16 v 3.598 c 0,0 0,0 0,-3.598 -2.883,0 -2.883,0 -5.766,0 -2.879,0 -5.761,0 -8.636,0 -2.879,0 -5.762,0 -5.762,0 0,0 0,0 -2.156,0 v 0 c 0,-2.16 -3.606,-8.64 -3.606,-10.8 0,-2.879 0,-6.481 0,-11.508 v -2.891 c -2.875,-2.883 -2.875,-5.762 -2.875,-8.641 v 0 c 0,-2.871 -2.164,-8.64 -2.164,-13.671 0,-3.61 0,-3.61 0,-6.481 0,0 0,-2.168 0,-5.769 0,-2.149 0,-2.149 0,-5.039 0,-3.598 0,-5.758 0,-8.641 0,-3.598 0,-5.75 0,-8.641 0,-2.879 -3.598,-2.879 -3.598,-5.758 0,-2.878 0,-2.878 -2.879,-5.75 0,-2.878 0,-5.769 0,-8.652 0,0 0,0 0,-2.879" /><path
         id="path4038"
         style="fill:none;stroke:#231f20;stroke-width:2.1500001;stroke-linecap:butt;stroke-linejoin:miter;stroke-miterlimit:4;stroke-dasharray:none;stroke-opacity:1"
         d="m 882.355,381.949 c -2.16,-8.629 -2.16,-17.277 -2.16,-25.199 0,-2.879 0,-2.879 0,-2.879 0,-3.601 0,-5.762 0,-11.519 0,0 0,0 0,-2.883 v 0 c 0,-2.879 0,-5.75 -3.601,-5.75 -2.16,0 -2.16,0 -5.039,0 0,0 0,0 -3.602,0 0,0 0,0 -2.156,0 v 0 c -2.883,0 -2.883,0 -2.883,0 -2.879,-2.891 -8.641,-2.891 -8.641,0 -2.882,2.871 -2.882,5.75 -2.882,8.633 2.882,2.878 2.882,5.757 2.882,5.757 2.879,5.762 5.762,10.813 5.762,16.563 0,8.648 2.879,15.117 2.879,20.156 0,2.883 0,2.883 0,5.774 -2.879,8.628 -2.879,17.277 -8.641,23.027 0,2.883 0,5.043 0,8.641 0,0 0,0 -2.882,2.89 0,0 0,2.149 0,5.75 0,2.168 0,2.168 0,5.039 0,5.762 0,8.641 0,14.41 v 0 c 0,2.871 0,2.871 0,5.75 -2.875,8.653 -5.754,20.161 -8.637,34.559 -2.883,10.801 -5.039,22.32 -8.645,30.973 0,5.75 0,5.75 -2.875,8.629 0,2.171 0,5.761 -2.164,7.921 0,0 0,2.879 0,6.481 -3.597,2.168 -3.597,5.047 -3.597,7.918 -2.879,2.879 -2.879,5.762 -2.879,11.531 0,2.867 0,8.629 -2.16,10.789 0,6.488 0,12.238 -3.598,17.281 0,3.61 0,3.61 0,5.758 -2.164,6.481 -2.164,8.641 -2.164,14.403 0,5.757 -2.879,8.648 -2.879,14.398 -3.602,2.879 -3.602,2.879 -5.758,5.762 0,2.886 0,2.886 -2.883,2.886 -2.879,0 -5.757,0 -8.64,0 h -2.875 v 0 c -5.762,0 -8.645,0 -13.684,0 -3.598,0 -6.476,0 -8.64,0 h -3.598 c -2.883,0 -2.883,0 -2.883,0 v 0 c -5.758,0 -7.922,0 -10.797,0 -3.601,0 -5.762,0 -8.64,0 0,0 -3.598,2.883 -3.598,5.75 0,0 0,0 0,2.172 v 0 c -2.164,3.59 -2.164,3.59 -2.164,3.59 h -2.875 c 0,2.879 -2.883,5.039 -2.883,8.649 0,0 0,2.152 0,5.043 0,0 0,3.589 0,5.75 2.883,2.878 5.758,6.476 7.922,8.636 0,2.891 0,2.891 3.598,5.762 5.039,5.762 11.515,8.641 17.281,14.41 2.156,2.871 8.637,5.75 10.801,7.918 0,0 0,0 0,3.594 v 0 2.887 c -2.164,0 -8.645,0 -10.801,2.152 -3.602,0 -5.766,0 -8.641,0 -3.601,2.879 -5.762,2.879 -8.64,5.769 -3.598,0 -3.598,0 -5.762,2.879 0,0 0,2.871 -2.875,5.75 0,2.879 0,5.762 0,5.762 0,2.891 2.875,2.891 2.875,5.77 2.164,2.148 8.64,2.148 10.801,2.148 6.476,3.602 8.64,3.602 14.398,3.602 6.481,0 8.645,0 15.121,-3.602 2.16,0 5.039,0 7.922,0 h 2.879 c 5.758,0 8.641,0 11.519,3.602 5.762,0 14.399,2.879 22.321,2.879 2.879,2.16 8.64,2.16 15.121,0 v 0 c 2.156,0 2.156,0 5.039,2.16 5.762,14.398 17.281,23.039 31.68,29.519 2.16,0 5.761,0 5.761,0 2.16,-3.59 2.16,-3.59 2.16,-6.48 v 0 c 0,-5.758 0,-14.399 -2.16,-19.43 0,-3.609 -3.601,-5.769 -3.601,-8.648 0,0 0,0 0,-3.602 v 0 0 c 8.64,-10.801 20.883,-22.309 31.676,-33.117 0,0 2.882,-3.594 5.761,-5.762 2.883,-2.879 5.766,-5.75 7.922,-5.75 0,-2.89 3.598,-2.89 5.762,-5.769 h 2.883 v 0 c 5.754,0 12.234,0 17.277,0 0,0 0,0 2.879,0 2.879,0 8.641,0 14.402,0 2.875,0 7.918,0 14.399,0 5.758,0 7.922,2.879 10.797,2.879 8.64,0 17.278,0 25.918,-2.879 5.77,0 11.52,-2.879 16.56,-5.762 6.48,0 8.64,-2.879 12.24,-5.75 2.88,-2.891 2.88,-2.891 5.04,-2.891 8.64,-8.636 17.28,-14.386 20.16,-25.199 11.52,-14.391 17.28,-31.68 20.16,-51.84 0,-2.148 2.16,-7.918 2.16,-14.398 0,-5.031 -2.16,-13.68 -2.16,-19.43 0,-5.769 -2.88,-14.402 -5.76,-23.051 0,-10.8 -2.88,-13.679 -2.88,-17.281 -2.87,-5.039 -2.87,-8.629 -2.87,-13.68 v -2.871 c 2.87,-7.918 2.87,-14.41 2.87,-22.328 0,0 0,-6.48 2.88,-11.519 0,-3.602 0,-5.75 0,-8.629 2.88,-5.774 2.88,-8.653 5.76,-11.532 0,-5.75 0,-11.519 2.16,-20.152 0,-5.769 0,-10.808 0,-16.566 0,-11.524 0,-17.282 3.6,-25.91 0,0 0,-5.774 0,-10.813 0,0 0,-3.59 0,-6.469 v -2.172 c 0,-3.597 0,-6.476 0,-6.476 0,-2.16 -3.6,-2.16 -3.6,-2.16 -2.16,-3.59 -2.16,-3.59 -5.04,-3.59 -2.88,0 -2.88,0 -5.76,-2.172 -2.87,0 -8.64,0 -11.52,0 0,2.172 0,2.172 0,2.172 0,3.59 0,3.59 2.88,5.75 0,2.879 0,2.879 0,6.476 0,2.172 0,2.172 0,5.051 0,3.59 -2.88,5.75 -2.88,8.629 0,5.774 -2.88,11.524 -2.88,14.402 -2.88,14.399 -8.64,28.079 -13.67,42.481 -3.61,5.769 -3.61,8.648 -5.77,11.519 0,2.879 -2.88,5.758 -6.48,11.532 0,2.879 -2.16,8.629 -8.64,13.668 0,3.609 0,6.48 -2.16,6.48 0,5.758 0,7.918 -2.88,10.801 0,3.609 -2.88,3.609 -2.88,5.758 0,0 0,0 -2.87,0 v 0 0 c 2.87,-10.801 5.75,-23.039 8.63,-33.828 2.16,-2.879 2.16,-5.77 5.77,-8.653 0,-2.879 2.87,-8.629 2.87,-14.398 0,0 0,-2.879 0,-5.031 -2.87,-6.481 -2.87,-12.25 -8.64,-17.289 0,-3.598 -2.88,-8.641 -2.88,-12.239 v 0 c 0,-2.152 0,-2.152 0,-5.043 0,-11.508 -2.88,-23.039 -5.75,-37.437 0,-2.879 0,-5.039 -2.88,-8.629 0,-2.172 -2.89,-2.172 -2.89,-2.172 -2.88,0 -2.88,0 -5.76,0 0,0 -2.88,0 -5.75,0 -2.17,-2.879 -5.768,-2.879 -8.647,-2.879 -2.16,0 -2.16,0 -2.16,2.879 v 0 c 5.039,7.922 8.637,16.57 8.637,25.199 v 0 c 0,5.762 0,14.403 -3.598,20.16 0,2.879 0,7.922 3.598,11.52 0,2.883 0,8.641 0,11.531 0,2.149 0,2.149 0,2.149 0,5.769 0,8.64 0,14.402 v 0 c 0,2.879 0,5.769 -3.598,8.648 0,0 0,2.871 -2.879,2.871 -2.16,2.879 -5.761,5.758 -8.636,8.641 -2.164,5.77 -5.762,11.52 -7.922,16.559 0,6.48 -2.879,8.64 -2.879,12.238 -3.602,2.16 -3.602,8.652 -3.602,10.801 h -2.16 v 0 c -2.883,-2.149 -2.883,-5.758 -5.758,-10.801 0,-5.758 -2.883,-8.629 -5.761,-14.398 0,-2.879 0,-6.481 0,-6.481 0,0 -2.879,-2.148 -2.879,-5.027 0,-2.891 0,-2.891 0,-2.891 -2.883,-5.762 -2.883,-11.512 -5.762,-17.281 0,-2.879 -2.879,-5.031 -2.879,-11.512 l -2.879,-2.168 c -2.164,-8.64 0,-8.64 -2.164,-12.238 -3.598,-16.563 -3.598,-16.563 0,-16.563 v -2.879 c 0,-2.878 0,-2.878 0,-5.75 0,0 0,0 0,-2.878 v -2.891 c 0,-2.883 0,-2.883 0,-5.762 0,-2.16 0,-2.16 0,-5.75 0,-2.879 0,-2.879 0,-5.051 0,0 0,0 0,-3.597 0,-2.879 0,-8.629 -3.598,-13.68 0,-3.601 0,-5.762 0,-11.519 -2.882,0 -2.882,-2.883 -2.882,-2.883 0,-2.879 -2.157,-2.879 -2.157,-2.879 -3.597,-2.871 -3.597,-2.871 -6.48,-2.871 0,0 0,0 -2.164,0 0,0 -3.598,0 -5.754,0 0,0 -2.883,0 -5.766,0 0,0 0,0 -2.879,0 v 0 c 0,2.871 0,5.75 2.879,8.633 0,2.878 0,2.878 2.883,5.757 0,5.762 0,8.641 2.883,10.813 0,3.59 0,3.59 0,5.75 0,0 0,2.879 0,6.476 -2.883,2.172 -2.883,5.051 -2.883,8.641 0,5.039 0,7.922 -2.883,10.813 0,2.878 0,5.75 0,8.628 -2.879,2.879 -2.879,5.758 -2.879,8.649 -2.882,2.152 -2.882,2.152 -2.882,5.75 0,2.883 0,5.043 0,8.641 0,5.039 2.882,13.679 5.761,19.441 0,5.769 2.883,14.398 5.766,20.16 0,5.77 2.156,7.918 2.156,14.399 v 0 c 0,2.16 0,5.769 0,8.64 0,2.16 -2.156,2.16 -2.156,2.16 v 3.598 c 0,0 0,0 0,-3.598 -2.883,0 -2.883,0 -5.766,0 -2.879,0 -5.761,0 -8.636,0 -2.879,0 -5.762,0 -5.762,0 0,0 0,0 -2.156,0 v 0 c 0,-2.16 -3.606,-8.64 -3.606,-10.8 0,-2.879 0,-6.481 0,-11.508 v -2.891 c -2.875,-2.883 -2.875,-5.762 -2.875,-8.641 v 0 c 0,-2.871 -2.164,-8.64 -2.164,-13.671 0,-3.61 0,-3.61 0,-6.481 0,0 0,-2.168 0,-5.769 0,-2.149 0,-2.149 0,-5.039 0,-3.598 0,-5.758 0,-8.641 0,-3.598 0,-5.75 0,-8.641 0,-2.879 -3.598,-2.879 -3.598,-5.758 0,-2.878 0,-2.878 -2.879,-5.75 0,-2.878 0,-5.769 0,-8.652 0,0 0,0 0,-2.879 z" /></g></g></svg>