<?xml version="1.0" encoding="UTF-8" standalone="no"?>
<svg
   xmlns:dc="http://purl.org/dc/elements/1.1/"
   xmlns:cc="http://creativecommons.org/ns#"
   xmlns:rdf="http://www.w3.org/1999/02/22-rdf-syntax-ns#"
   xmlns:svg="http://www.w3.org/2000/svg"
   xmlns="http://www.w3.org/2000/svg"
   viewBox="0 0 793.70667 694.93335"
   height="694.93335"
   width="793.70667"
   xml:space="preserve"
   id="svg4040"
   version="1.1"><metadata
     id="metadata4046"><rdf:RDF><cc:Work
         rdf:about=""><dc:format>image/svg+xml</dc:format><dc:type
           rdf:resource="http://purl.org/dc/dcmitype/StillImage" /><dc:title></dc:title></cc:Work></rdf:RDF></metadata><defs
     id="defs4044" /><g
     transform="matrix(1.3333333,0,0,-1.3333333,0,694.93333)"
     id="g4048"><g
       transform="scale(0.1)"
       id="g4050"><path
         id="path4052"
         style="fill:#f1491c;fill-opacity:1;fill-rule:nonzero;stroke:none"
         d="M 2795.94,5104.3 31.4648,316.09 C -5.75,251.621 -5.75,172.199 31.4648,107.723 68.6875,43.2695 137.465,3.55078 211.91,3.55078 h 5528.94 c 74.43,0 143.22,39.71872 180.44,104.17222 37.22,64.476 37.22,143.898 0,208.367 L 3156.83,5104.3 c -37.23,64.46 -106.01,104.17 -180.45,104.17 -74.44,0 -143.22,-39.71 -180.44,-104.17" /><path
         id="path4054"
         style="fill:none;stroke:#f1491c;stroke-width:7.10031986;stroke-linecap:round;stroke-linejoin:round;stroke-miterlimit:500;stroke-dasharray:none;stroke-opacity:1"
         d="M 2795.94,5104.3 31.4648,316.09 C -5.75,251.621 -5.75,172.199 31.4648,107.723 68.6875,43.2695 137.465,3.55078 211.91,3.55078 h 5528.94 c 74.43,0 143.22,39.71872 180.44,104.17222 37.22,64.476 37.22,143.898 0,208.367 L 3156.83,5104.3 c -37.23,64.46 -106.01,104.17 -180.45,104.17 -74.44,0 -143.22,-39.71 -180.44,-104.17 z" /><path
         id="path4056"
         style="fill:#ffffff;fill-opacity:1;fill-rule:nonzero;stroke:none"
         d="M 933.676,628.621 H 5019.08 L 2976.38,4166.68 Z" /><path
         id="path4058"
         style="fill:none;stroke:#ffffff;stroke-width:7.10031986;stroke-linecap:round;stroke-linejoin:round;stroke-miterlimit:500;stroke-dasharray:none;stroke-opacity:1"
         d="M 933.676,628.621 H 5019.08 L 2976.38,4166.68 Z" /><path
         id="path4060"
         style="fill:#100f0d;fill-opacity:1;fill-rule:nonzero;stroke:none"
         d="m 3672.37,847.711 c -18.84,4.988 -38.57,-4.109 -46.99,-21.691 -8.42,-17.571 -3.15,-38.649 12.54,-50.207 91.77,-47.192 203.58,-29.051 275.74,44.726 l 541.81,554.011 -52.23,90.46 -561.49,-574.139 c -43.95,-44.93 -109.29,-61.582 -169.38,-43.16" /><path
         id="path4062"
         style="fill:none;stroke:#100f0d;stroke-width:7.10031986;stroke-linecap:round;stroke-linejoin:round;stroke-miterlimit:500;stroke-dasharray:none;stroke-opacity:1"
         d="m 3672.37,847.711 c -18.84,4.988 -38.57,-4.109 -46.99,-21.691 -8.42,-17.571 -3.15,-38.649 12.54,-50.207 91.77,-47.192 203.58,-29.051 275.74,44.726 l 541.81,554.011 -52.23,90.46 -561.49,-574.139 c -43.95,-44.93 -109.29,-61.582 -169.38,-43.16 z" /><path
         id="path4064"
         style="fill:#100f0d;fill-opacity:1;fill-rule:nonzero;stroke:none"
         d="M 2246.67,760.68 H 3362.38 V 876.359 H 2234.99 c -72.04,0 -134.03,50.922 -148.01,121.59 -3.34,16.821 -18.79,28.441 -35.87,26.961 -17.08,-1.48 -30.3,-15.58 -30.7,-32.711 -1.39,-60.91 21.83,-119.808 64.41,-163.379 42.59,-43.578 100.94,-68.14 161.87,-68.14 h -0.02" /><path
         id="path4066"
         style="fill:none;stroke:#100f0d;stroke-width:7.10031986;stroke-linecap:round;stroke-linejoin:round;stroke-miterlimit:500;stroke-dasharray:none;stroke-opacity:1"
         d="M 2246.67,760.68 H 3362.38 V 876.359 H 2234.99 c -72.04,0 -134.03,50.922 -148.01,121.59 -3.34,16.821 -18.79,28.441 -35.87,26.961 -17.08,-1.48 -30.3,-15.58 -30.7,-32.711 -1.39,-60.91 21.83,-119.808 64.41,-163.379 42.59,-43.578 100.94,-68.14 161.87,-68.14 z" /><path
         id="path4068"
         style="fill:#100f0d;fill-opacity:1;fill-rule:nonzero;stroke:none"
         d="m 3801.55,1964.42 v 0 c -7.17,-33.23 -33.46,-58.97 -66.85,-65.44 -33.38,-6.45 -67.39,7.64 -86.43,35.8 l -218.54,323.28 h -204.91 l 513.59,-759.71 h 389.74 c 56.25,0 101.85,-45.6 101.85,-101.85 0,-56.25 -45.6,-101.84 -101.85,-101.84 h -501.5 c -33.83,0 -65.44,16.78 -84.38,44.8 l -275.39,407.36 -467.82,-324.25 v -381.49 c 0,-56.248 -45.6,-101.838 -101.84,-101.838 -56.25,0 -101.85,45.59 -101.85,101.838 v 492.95 c 0,33.41 16.37,64.68 43.82,83.71 l 375.21,260.07 -257.05,380.25 h -515.72 l 405.23,-599.42 -48.87,-33.88 -428.13,633.3 h -13.54 c -46.87,0 -84.87,38 -84.87,84.88 0,46.86 38,84.87 84.87,84.87 h 1309.46 c 33.83,0 65.44,-16.79 84.38,-44.8 l 242.77,-359.12 h 287.65 l 34.32,-59.47 h -313.35" /><path
         id="path4070"
         style="fill:none;stroke:#100f0d;stroke-width:7.10031986;stroke-linecap:round;stroke-linejoin:round;stroke-miterlimit:500;stroke-dasharray:none;stroke-opacity:1"
         d="m 3801.55,1964.42 v 0 c -7.17,-33.23 -33.46,-58.97 -66.85,-65.44 -33.38,-6.45 -67.39,7.64 -86.43,35.8 l -218.54,323.28 h -204.91 l 513.59,-759.71 h 389.74 c 56.25,0 101.85,-45.6 101.85,-101.85 0,-56.25 -45.6,-101.84 -101.85,-101.84 h -501.5 c -33.83,0 -65.44,16.78 -84.38,44.8 l -275.39,407.36 -467.82,-324.25 v -381.49 c 0,-56.248 -45.6,-101.838 -101.84,-101.838 -56.25,0 -101.85,45.59 -101.85,101.838 v 492.95 c 0,33.41 16.37,64.68 43.82,83.71 l 375.21,260.07 -257.05,380.25 h -515.72 l 405.23,-599.42 -48.87,-33.88 -428.13,633.3 h -13.54 c -46.87,0 -84.87,38 -84.87,84.88 0,46.86 38,84.87 84.87,84.87 h 1309.46 c 33.83,0 65.44,-16.79 84.38,-44.8 l 242.77,-359.12 h 287.65 l 34.32,-59.47 z" /><path
         id="path4072"
         style="fill:#100f0d;fill-opacity:1;fill-rule:nonzero;stroke:none"
         d="m 2822.21,2906.49 c -57.68,37.99 -132.56,37.53 -189.78,-1.15 -57.22,-38.69 -85.55,-108 -71.8,-175.69 22.42,-110.36 97.74,-202.61 201.38,-246.64 48.04,-20.4 103.13,-15.08 146.36,14.15 43.23,29.22 68.71,78.36 67.67,130.53 -2.24,112.59 -59.77,216.86 -153.83,278.8" /><path
         id="path4074"
         style="fill:none;stroke:#100f0d;stroke-width:5.97502995;stroke-linecap:round;stroke-linejoin:round;stroke-miterlimit:500;stroke-dasharray:none;stroke-opacity:1"
         d="m 2822.21,2906.49 c -57.68,37.99 -132.56,37.53 -189.78,-1.15 -57.22,-38.69 -85.55,-108 -71.8,-175.69 22.42,-110.36 97.74,-202.61 201.38,-246.64 48.04,-20.4 103.13,-15.08 146.36,14.15 43.23,29.22 68.71,78.36 67.67,130.53 -2.24,112.59 -59.77,216.86 -153.83,278.8 z" /></g></g></svg>